<?xml version="1.0" encoding="UTF-8" standalone="no"?>
<svg
   width="778.96338"
   height="778.96326"
   version="1.1"
   id="svg48"
   sodipodi:docname="348217043_250243060919913_3782761160358314043_n.svg"
   inkscape:version="1.4 (e7c3feb100, 2024-10-09)"
   xmlns:inkscape="http://www.inkscape.org/namespaces/inkscape"
   xmlns:sodipodi="http://sodipodi.sourceforge.net/DTD/sodipodi-0.dtd"
   xmlns="http://www.w3.org/2000/svg"
   xmlns:svg="http://www.w3.org/2000/svg">
  <defs
     id="defs48" />
  <sodipodi:namedview
     id="namedview48"
     pagecolor="#00ffff"
     bordercolor="#000000"
     borderopacity="0.25"
     inkscape:showpageshadow="2"
     inkscape:pageopacity="0.0"
     inkscape:pagecheckerboard="0"
     inkscape:deskcolor="#d1d1d1"
     inkscape:zoom="0.9489917"
     inkscape:cx="388.30687"
     inkscape:cy="388.83375"
     inkscape:window-width="1920"
     inkscape:window-height="1011"
     inkscape:window-x="0"
     inkscape:window-y="0"
     inkscape:window-maximized="1"
     inkscape:current-layer="svg48" />
  <path
     d="m 378.71535,0.14887999 q 9.556,-0.2643 19.113,-0.0594 9.557,0.2048 19.093,0.8783 9.536,0.67350001 19.027,1.81400001 9.491,1.1404 18.915,2.7452 9.424,1.6047 18.758,3.6698 9.334,2.0652 18.555,4.5857 9.221,2.5205 18.308,5.4904 9.086,2.9699 18.016,6.382 8.93,3.4121 17.681,7.2582 8.752,3.846 17.305,8.1168 8.552,4.2708 16.885,8.956 8.332,4.6852 16.425,9.7736 8.093,5.0883 15.926,10.5677 7.834,5.479 15.389,11.336 7.555,5.857 14.814,12.078 7.258,6.22 14.203,12.789 6.945,6.569 13.559,13.471 6.614,6.902 12.882,14.12 6.267,7.219 12.173,14.736 5.906,7.516 11.436,15.314 5.53,7.798 10.671,15.857 5.141,8.06 9.88,16.362 4.74,8.302 9.066,16.826 4.326,8.525 8.229,17.251 3.903,8.727 7.373,17.634 3.47,8.908 6.499,17.975 3.029,9.067 5.609,18.271 2.58,9.205 4.706,18.525 2.126,9.32 3.792,18.733 1.666,9.414 2.868,18.897 1.202,9.484 1.938,19.015 0.735,9.531 1.002,19.087 0.267,9.556 0.065,19.113 -0.202,9.558 -0.873,19.093 -0.671,9.536 -1.809,19.028 -1.137,9.492 -2.739,18.916 -1.602,9.424 -3.665,18.759 -2.062,9.334 -4.58,18.556 -2.518,9.222 -5.485,18.309 -2.968,9.088 -6.377,18.018 -3.41,8.931 -7.254,17.684 -3.843,8.753 -8.112,17.306 -4.268,8.554 -8.951,16.888 -4.683,8.334 -9.769,16.428 -5.086,8.094 -10.563,15.929 -5.477,7.835 -11.332,15.392 -5.854,7.557 -12.073,14.817 -6.218,7.261 -12.786,14.208 -6.567,6.946 -13.467,13.562 -6.9,6.617 -14.116,12.886 -7.217,6.27 -14.732,12.178 -7.515,5.908 -15.311,11.44 -7.796,5.533 -15.854,10.676 -8.058,5.143 -16.359,9.884 -8.301,4.742 -16.824,9.071 -8.523,4.328 -17.249,8.234 -8.725,3.905 -17.632,7.378 -8.906,3.472 -17.972,6.504 -9.066,3.031 -18.27,5.614 -9.204,2.583 -18.524,4.712 -9.319,2.128 -18.732,3.797 -9.413,1.668 -18.896,2.873 -9.483,1.205 -19.014,1.943 -9.531,0.738 -19.087,1.008 -9.559,0.27 -19.12,0.07 -9.561,-0.199 -19.1,-0.868 -9.54,-0.669 -19.035,-1.805 -9.496,-1.136 -18.924,-2.736 -9.428,-1.601 -18.766,-3.662 -9.338,-2.062 -18.564,-4.579 -9.225,-2.517 -18.316,-5.484 -9.092,-2.967 -18.026,-6.377 -8.935,-3.409 -17.691,-7.253 -8.756,-3.844 -17.314,-8.113 -8.557,-4.269 -16.894,-8.953 -8.338,-4.683 -16.435,-9.771 -8.098,-5.087 -15.936,-10.566 -7.838,-5.478 -15.398,-11.335 -7.559,-5.856 -14.823,-12.077 -7.263,-6.221 -14.212,-12.79 -6.949,-6.57 -13.567,-13.473 -6.619,-6.902 -12.890996,-14.121 -6.271,-7.22 -12.181,-14.738 -5.91,-7.518 -11.444,-15.317 -5.5333,-7.8 -10.6775,-15.861 -5.1443,-8.062 -9.8868,-16.366 -4.7424,-8.304 -9.0717,-16.831 -4.3292,-8.527 -8.2347,-17.256 -3.9055,-8.729 -7.3779,-17.639 -3.4724,-8.91 -6.5034,-17.98 -3.0309,-9.07 -5.6131,-18.278 -2.5822,-9.208 -4.7094,-18.531 -2.1271,-9.323 -3.7942,-18.74 -1.6671,-9.417 -2.87,-18.904 -1.2029,-9.487 -1.9388,-19.021 -0.73579999,-9.535 -1.00289999,-19.094 -0.2671,-9.559 -0.0647,-19.12 0.2023,-9.561 0.8737,-19.1 0.67129999,-9.54 1.80999999,-19.035 1.1387,-9.495 2.742,-18.922 1.6033,-9.428 3.6673,-18.765 2.0641,-9.338 4.5839,-18.563 2.5198,-9.225 5.4893,-18.315 2.9695,-9.091 6.3816,-18.024 3.412,-8.934 7.2584,-17.689 3.8464,-8.755 8.1178,-17.311 4.2714,-8.556 8.9576,-16.893 4.6861,-8.336 9.7758,-16.432 5.0896,-8.096 10.5707,-15.932 5.481,-7.837 11.339,-15.395 5.859,-7.558 12.082,-14.819 6.223,-7.262 12.793996,-14.209 6.572,-6.948 13.476,-13.564 6.905,-6.616 14.126,-12.886 7.221,-6.27 14.741,-12.177 7.52,-5.908 15.321,-11.44 7.8,-5.5311 15.863,-10.6731 8.063,-5.142 16.369,-9.8821 8.305,-4.7401 16.833,-9.0669 8.529,-4.3268 17.259,-8.2298 8.73,-3.903 17.641,-7.3729 8.912,-3.4699 17.982,-6.4982 9.071,-3.0284 18.28,-5.608 9.208,-2.5795 18.532,-4.704 9.324,-2.1245 18.741,-3.7889 9.417,-1.6644 18.905,-2.8646 9.487,-1.2002 19.022,-1.9333 9.535,-0.73320001 19.094,-0.99750001 z"
     id="path2" />
  <path
     fill="#fefefe"
     d="m 384.71735,141.50018 q 6.087,-0.117 12.173,0.065 6.085,0.182 12.154,0.662 6.07,0.48 12.108,1.258 6.038,0.777 12.031,1.85 5.993,1.073 11.926,2.438 5.934,1.366 11.792,3.021 5.859,1.655 11.63,3.595 5.771,1.941 11.439,4.162 5.669,2.221 11.222,4.718 5.552,2.497 10.976,5.263 5.424,2.766 10.705,5.795 5.281,3.029 10.407,6.313 5.127,3.285 10.086,6.817 4.959,3.532 9.738,7.303 4.78,3.771 9.369,7.772 4.589,4.001 8.976,8.222 4.387,4.221 8.562,8.653 4.175,4.431 8.127,9.062 3.952,4.631 7.672,9.451 3.721,4.819 7.2,9.815 3.479,4.996 6.709,10.157 3.23,5.161 6.203,10.474 2.973,5.313 5.682,10.765 2.709,5.453 5.146,11.032 2.438,5.579 4.599,11.27 2.162,5.692 4.041,11.483 1.879,5.791 3.472,11.667 1.593,5.876 2.896,11.823 1.303,5.947 2.312,11.951 1.009,6.004 1.723,12.051 0.713,6.046 1.13,12.12 0.416,6.074 0.533,12.161 0.118,6.087 -0.064,12.173 -0.181,6.085 -0.661,12.154 -0.479,6.07 -1.256,12.108 -0.777,6.039 -1.849,12.032 -1.072,5.993 -2.437,11.926 -1.365,5.933 -3.02,11.792 -1.654,5.859 -3.594,11.63 -1.94,5.771 -4.161,11.44 -2.22,5.669 -4.716,11.222 -2.496,5.553 -5.262,10.976 -2.766,5.424 -5.794,10.706 -3.028,5.281 -6.312,10.408 -3.284,5.127 -6.816,10.086 -3.531,4.959 -7.302,9.739 -3.77,4.781 -7.771,9.37 -4,4.589 -8.221,8.977 -4.221,4.387 -8.652,8.562 -4.431,4.176 -9.062,8.128 -4.63,3.953 -9.449,7.674 -4.819,3.72 -9.815,7.2 -4.996,3.48 -10.156,6.711 -5.161,3.23 -10.473,6.204 -5.313,2.973 -10.765,5.682 -5.452,2.709 -11.031,5.148 -5.579,2.438 -11.27,4.6 -5.692,2.162 -11.482,4.042 -5.791,1.88 -11.667,3.473 -5.876,1.594 -11.823,2.897 -5.947,1.303 -11.951,2.313 -6.004,1.01 -12.05,1.724 -6.046,0.715 -12.12,1.131 -6.074,0.417 -12.161,0.535 -6.088,0.118 -12.174,-0.063 -6.086,-0.18 -12.157,-0.659 -6.07,-0.48 -12.109,-1.256 -6.039,-0.776 -12.033,-1.848 -5.994,-1.072 -11.928,-2.437 -5.934,-1.364 -11.794,-3.019 -5.86,-1.654 -11.632,-3.594 -5.772,-1.94 -11.441,-4.16 -5.67,-2.221 -11.224,-4.717 -5.553,-2.496 -10.978,-5.262 -5.425,-2.766 -10.707,-5.794 -5.282,-3.029 -10.41,-6.313 -5.127,-3.284 -10.087,-6.816 -4.96,-3.532 -9.741,-7.303 -4.781,-3.771 -9.371,-7.772 -4.59,-4.001 -8.978,-8.222 -4.388,-4.222 -8.564,-8.654 -4.175,-4.431 -8.128,-9.062 -3.954,-4.632 -7.675,-9.451 -3.721,-4.82 -7.201,-9.816 -3.48,-4.997 -6.711,-10.158 -3.231,-5.161 -6.204,-10.475 -2.974,-5.313 -5.683,-10.766 -2.71,-5.453 -5.148,-11.033 -2.439,-5.579 -4.6,-11.271 -2.162,-5.693 -4.042,-11.484 -1.88,-5.792 -3.473,-11.668 -1.593,-5.877 -2.896,-11.825 -1.303,-5.948 -2.313,-11.953 -1.01,-6.005 -1.723,-12.052 -0.714,-6.047 -1.13,-12.121 -0.416,-6.075 -0.534,-12.163 -0.118,-6.088 0.064,-12.174 0.181,-6.086 0.661,-12.157 0.48,-6.07 1.257,-12.109 0.777,-6.039 1.849,-12.033 1.073,-5.994 2.438,-11.928 1.365,-5.934 3.02,-11.793 1.655,-5.86 3.595,-11.632 1.941,-5.771 4.162,-11.441 2.221,-5.669 4.718,-11.223 2.497,-5.553 5.263,-10.978 2.766,-5.424 5.795,-10.706 3.029,-5.282 6.314,-10.409 3.285,-5.127 6.817,-10.087 3.532,-4.96 7.304,-9.74 3.771,-4.78 7.773,-9.37 4.001,-4.59 8.223,-8.977 4.222,-4.388 8.654,-8.563 4.432,-4.175 9.064,-8.128 4.632,-3.953 9.452,-7.674 4.82,-3.72 9.816,-7.2 4.997,-3.48 10.159,-6.71 5.161,-3.23 10.475,-6.203 5.314,-2.973 10.767,-5.682 5.454,-2.709 11.033,-5.147 5.58,-2.438 11.272,-4.599 5.693,-2.161 11.485,-4.04 5.791,-1.879 11.668,-3.472 5.877,-1.593 11.826,-2.895 5.948,-1.303 11.952,-2.312 6.005,-1.009 12.052,-1.722 6.048,-0.713 12.122,-1.129 6.075,-0.415 12.163,-0.532 z"
     id="path3" />
  <path
     d="m 383.49735,150.05218 q 5.877,-0.147 11.755,-0.005 5.877,0.141 11.74,0.571 5.864,0.43 11.699,1.147 5.835,0.717 11.628,1.719 5.793,1.002 11.53,2.288 5.737,1.285 11.404,2.851 5.667,1.565 11.25,3.406 5.583,1.842 11.069,3.955 5.486,2.113 10.862,4.493 5.376,2.38 10.629,5.021 5.252,2.64 10.369,5.535 5.117,2.896 10.085,6.039 4.969,3.142 9.777,6.525 4.809,3.383 9.445,6.998 4.637,3.614 9.09,7.452 4.454,3.838 8.714,7.889 4.26,4.052 8.316,8.308 4.056,4.256 7.899,8.705 3.842,4.45 7.462,9.083 3.619,4.633 7.007,9.438 3.388,4.804 6.536,9.77 3.147,4.965 6.048,10.079 2.901,5.113 5.547,10.363 2.646,5.25 5.031,10.624 2.386,5.373 4.505,10.857 2.118,5.484 3.966,11.065 1.847,5.582 3.418,11.247 1.571,5.665 2.863,11.401 1.291,5.735 2.299,11.527 1.009,5.792 1.732,11.627 0.723,5.834 1.158,11.697 0.436,5.863 0.584,11.74 0.148,5.877 0.007,11.755 -0.141,5.877 -0.57,11.74 -0.429,5.864 -1.145,11.699 -0.716,5.835 -1.718,11.628 -1.002,5.794 -2.286,11.531 -1.285,5.737 -2.85,11.404 -1.564,5.667 -3.405,11.25 -1.841,5.584 -3.953,11.07 -2.113,5.486 -4.492,10.863 -2.379,5.376 -5.019,10.629 -2.64,5.253 -5.535,10.37 -2.895,5.117 -6.037,10.086 -3.142,4.969 -6.524,9.778 -3.382,4.808 -6.996,9.445 -3.614,4.637 -7.452,9.092 -3.837,4.454 -7.888,8.714 -4.051,4.261 -8.306,8.317 -4.256,4.057 -8.705,7.9 -4.449,3.843 -9.081,7.463 -4.633,3.62 -9.437,7.008 -4.805,3.389 -9.77,6.537 -4.964,3.149 -10.078,6.05 -5.113,2.901 -10.363,5.548 -5.249,2.647 -10.622,5.033 -5.373,2.386 -10.857,4.505 -5.484,2.12 -11.065,3.968 -5.581,1.848 -11.246,3.42 -5.665,1.572 -11.4,2.864 -5.736,1.292 -11.528,2.301 -5.791,1.009 -11.626,1.733 -5.834,0.723 -11.697,1.16 -5.863,0.437 -11.74,0.585 -5.878,0.149 -11.756,0.008 -5.879,-0.14 -11.743,-0.568 -5.865,-0.429 -11.701,-1.145 -5.836,-0.715 -11.63,-1.717 -5.795,-1.001 -11.533,-2.285 -5.738,-1.285 -11.406,-2.849 -5.668,-1.565 -11.252,-3.405 -5.585,-1.841 -11.072,-3.953 -5.488,-2.113 -10.865,-4.492 -5.377,-2.379 -10.631,-5.019 -5.254,-2.641 -10.372,-5.536 -5.118,-2.895 -10.088,-6.037 -4.97,-3.143 -9.779,-6.525 -4.81,-3.383 -9.448,-6.997 -4.638,-3.615 -9.092,-7.453 -4.455,-3.838 -8.717,-7.889 -4.261,-4.052 -8.318,-8.308 -4.057,-4.256 -7.901,-8.706 -3.843,-4.45 -7.464,-9.083 -3.62,-4.634 -7.009,-9.439 -3.389,-4.805 -6.538,-9.771 -3.148,-4.966 -6.05,-10.08 -2.901,-5.115 -5.548,-10.365 -2.647,-5.251 -5.033,-10.625 -2.386,-5.374 -4.506,-10.859 -2.119,-5.484 -3.967,-11.067 -1.848,-5.582 -3.42,-11.248 -1.571,-5.666 -2.863,-11.402 -1.292,-5.737 -2.3,-11.53 -1.009,-5.792 -1.732,-11.628 -0.723,-5.835 -1.159,-11.699 -0.436,-5.864 -0.584,-11.742 -0.148,-5.878 -0.007,-11.756 0.141,-5.879 0.57,-11.743 0.43,-5.864 1.146,-11.701 0.717,-5.836 1.719,-11.63 1.002,-5.794 2.287,-11.532 1.285,-5.737 2.85,-11.405 1.565,-5.668 3.407,-11.252 1.841,-5.585 3.954,-11.072 2.113,-5.487 4.493,-10.864 2.38,-5.377 5.021,-10.63 2.641,-5.254 5.536,-10.372 2.896,-5.117 6.039,-10.087 3.143,-4.969 6.526,-9.778 3.384,-4.809 6.999,-9.447 3.615,-4.637 7.453,-9.092 3.839,-4.454 7.891,-8.715 4.052,-4.26 8.309,-8.317 4.256,-4.057 8.707,-7.9 4.45,-3.842 9.084,-7.462 4.633,-3.62 9.439,-7.008 4.806,-3.389 9.772,-6.537 4.966,-3.148 10.081,-6.049 5.115,-2.901 10.365,-5.547 5.251,-2.646 10.626,-5.032 5.374,-2.385 10.859,-4.504 5.485,-2.119 11.067,-3.966 5.583,-1.847 11.249,-3.418 5.666,-1.571 11.403,-2.862 5.736,-1.291 11.529,-2.299 5.793,-1.008 11.629,-1.73 5.835,-0.723 11.699,-1.158 5.864,-0.435 11.742,-0.582 z"
     id="path4" />
  <path
     fill="#fefefe"
     d="m 436.53535,255.50018 c 19.739,-0.615 41.762,1.191 59.657,9.958 15.918,7.798 28.966,21.584 34.674,38.497 6.27,18.582 5.959,42.765 -2.95,60.47 -9.838,19.552 -26.993,31.107 -47.255,37.891 24.807,39.582 48.67,79.85 72.905,119.79 -17.418,0.028 -34.829,0.417 -52.246,0.317 l -69.938,-115.138 c -7.902,-0.392 -16.044,0.167 -23.976,0.169 -0.281,10.939 -0.051,21.94 -0.056,32.886 -0.063,5.854 0.249,11.711 0.282,17.566 0.123,21.661 0.399,43.331 0.246,64.991 -22.624,-0.17 -45.294,0.483 -67.925,0.538 -10.634,0.026 -21.442,0.419 -32.036,-0.485 -25.265,-2.156 -49.366,-9.64 -66.196,-29.768 -13.186,-15.77 -18.04,-37.355 -16.177,-57.586 2.023,-21.967 14.314,-39.002 30.771,-52.723 -14.586,-15.293 -19.978,-29.446 -20.933,-50.496 -0.842,-18.545 4.259,-36.178 16.951,-49.984 27.112,-29.488 69.783,-25.93 106.166,-26.235 l 45.558,-0.422 c 10.81,-0.046 21.681,0.222 32.478,-0.236 z"
     id="path5" />
  <path
     d="m 333.35335,407.84518 c 9.498,-0.415 19.057,-0.191 28.564,-0.178 l 0.481,71.218 c -20.529,-0.015 -41.476,1.439 -61.835,-1.628 -7.832,-1.852 -15.544,-4.191 -21.549,-9.818 -6.167,-5.778 -8.652,-13.642 -8.85,-21.928 -0.222,-9.265 3.197,-17.3 9.66,-23.911 14.275,-14.602 34.736,-13.545 53.529,-13.755 z"
     id="path6" />
  <path
     d="m 323.82535,300.77318 c 12.332,-0.98 25.2,-0.316 37.574,-0.292 l 0.247,62.679 c -8.239,0.385 -16.486,0.345 -24.732,0.346 -6.075,0 -12.204,0.192 -18.258,-0.386 -10.516,-1.223 -21.213,-3.41 -29.516,-10.472 -5.662,-4.815 -8.024,-11.216 -8.613,-18.445 -0.627,-7.676 -0.018,-15.277 5.344,-21.322 9.055,-10.208 25.257,-11.3 37.954,-12.108 z"
     id="path7" />
  <path
     d="m 447.09135,279.05318 c 2.378,2.625 11.123,31.963 13.217,38.141 q 20.256,-0.308 40.515,-0.214 l -32.647,24.04 q 6.331,19.404 12.922,38.721 c -11.274,-7.469 -22.129,-15.739 -33.11,-23.641 -4.136,2.331 -8.003,5.614 -11.812,8.442 q -10.474,7.91 -21.194,15.484 c 4.08,-12.887 7.946,-25.893 12.396,-38.654 -10.843,-7.871 -22.347,-15.324 -32.731,-23.773 4.815,0.339 9.852,-0.072 14.69,-0.12 8.509,-0.086 17.023,-0.017 25.532,0.001 3.727,-12.885 8.262,-25.602 12.222,-38.427 z"
     id="path8" />
  <path
     fill="#fefefe"
     d="m 512.39135,84.81518 q 0.47,-0.109 0.946,-0.194 0.475,-0.086 0.954,-0.148 0.479,-0.062 0.96,-0.101 0.481,-0.038 0.964,-0.053 0.483,-0.015 0.965,-0.005 0.483,0.009 0.965,0.041 0.482,0.033 0.961,0.09 0.48,0.056 0.956,0.136 0.476,0.08 0.948,0.184 0.472,0.103 0.938,0.229 0.466,0.127 0.925,0.276 0.459,0.149 0.911,0.321 0.451,0.172 0.893,0.365 0.443,0.194 0.875,0.409 0.432,0.215 0.853,0.452 0.422,0.236 0.831,0.492 0.409,0.257 0.804,0.534 0.396,0.276 0.778,0.572 0.382,0.295 0.749,0.609 0.367,0.314 0.718,0.646 0.35,0.332 0.685,0.681 0.334,0.348 0.65,0.713 0.317,0.364 0.615,0.744 0.298,0.38 0.578,0.774 0.279,0.394 0.538,0.801 0.26,0.407 0.499,0.827 0.239,0.419 0.457,0.85 0.218,0.431 0.415,0.872 0.197,0.441 0.371,0.891 0.175,0.45 0.328,0.909 0.152,0.458 0.282,0.923 0.129,0.465 0.236,0.936 0.107,0.471 0.19,0.947 0.083,0.475 0.143,0.954 0.06,0.48 0.096,0.961 0.036,0.482 0.048,0.964 0.013,0.483 0.001,0.966 -0.011,0.483 -0.046,0.964 -0.035,0.482 -0.094,0.961 -0.059,0.479 -0.141,0.955 -0.082,0.476 -0.188,0.947 -0.106,0.471 -0.234,0.937 -0.129,0.465 -0.28,0.924 -0.152,0.458 -0.326,0.909 -0.174,0.45 -0.369,0.892 -0.196,0.441 -0.413,0.873 -0.218,0.431 -0.456,0.851 -0.238,0.42 -0.497,0.828 -0.258,0.407 -0.537,0.802 -0.278,0.395 -0.576,0.775 -0.297,0.38 -0.613,0.746 -0.316,0.365 -0.649,0.714 -0.333,0.35 -0.684,0.682 -0.35,0.332 -0.716,0.647 -0.366,0.315 -0.747,0.612 -0.382,0.296 -0.777,0.573 -0.395,0.278 -0.804,0.535 -0.408,0.258 -0.829,0.495 -0.421,0.237 -0.852,0.453 -0.432,0.216 -0.874,0.411 -0.442,0.194 -0.893,0.367 -0.451,0.172 -0.91,0.323 -0.459,0.15 -0.925,0.277 -0.465,0.128 -0.937,0.232 -0.469,0.104 -0.942,0.184 -0.473,0.081 -0.949,0.138 -0.477,0.058 -0.955,0.092 -0.479,0.034 -0.959,0.044 -0.48,0.011 -0.96,-0.002 -0.479,-0.013 -0.958,-0.049 -0.478,-0.036 -0.955,-0.096 -0.476,-0.06 -0.949,-0.143 -0.472,-0.083 -0.94,-0.189 -0.469,-0.106 -0.931,-0.235 -0.462,-0.128 -0.918,-0.279 -0.455,-0.152 -0.903,-0.325 -0.447,-0.173 -0.886,-0.368 -0.438,-0.195 -0.867,-0.412 -0.428,-0.216 -0.846,-0.453 -0.417,-0.237 -0.823,-0.494 -0.405,-0.257 -0.797,-0.533 -0.392,-0.277 -0.771,-0.572 -0.378,-0.296 -0.741,-0.609 -0.363,-0.314 -0.711,-0.645 -0.348,-0.331 -0.678,-0.678 -0.331,-0.348 -0.645,-0.711 -0.314,-0.364 -0.609,-0.742 -0.295,-0.378 -0.572,-0.77 -0.276,-0.393 -0.534,-0.798 -0.256,-0.405 -0.493,-0.823 -0.237,-0.417 -0.454,-0.845 -0.216,-0.429 -0.411,-0.868 -0.195,-0.438 -0.368,-0.886 -0.173,-0.447 -0.324,-0.903 -0.152,-0.455 -0.28,-0.918 -0.129,-0.462 -0.235,-0.93 -0.106,-0.468 -0.189,-0.941 -0.083,-0.473 -0.143,-0.949 -0.059,-0.476 -0.096,-0.955 -0.036,-0.478 -0.049,-0.958 -0.013,-0.48 -0.002,-0.959 0.01,-0.48 0.044,-0.959 0.035,-0.479 0.092,-0.955 0.057,-0.477 0.138,-0.95 0.081,-0.473 0.184,-0.941 0.104,-0.469 0.231,-0.932 0.126,-0.463 0.275,-0.919 0.149,-0.456 0.32,-0.905 0.172,-0.448 0.364,-0.888 0.193,-0.439 0.407,-0.869 0.215,-0.429 0.45,-0.848 0.234,-0.418 0.49,-0.825 0.255,-0.406 0.529,-0.8 0.275,-0.393 0.568,-0.773 0.294,-0.38 0.606,-0.744 0.312,-0.365 0.641,-0.714 0.329,-0.35 0.675,-0.682 0.346,-0.333 0.708,-0.648 0.362,-0.315 0.739,-0.613 0.376,-0.297 0.767,-0.575 0.391,-0.279 0.795,-0.538 0.404,-0.259 0.821,-0.498 0.416,-0.239 0.843,-0.457 0.428,-0.218 0.865,-0.415 0.438,-0.197 0.885,-0.373 0.446,-0.175 0.901,-0.328 0.455,-0.154 0.917,-0.285 0.461,-0.131 0.929,-0.239 z"
     id="path9" />
  <path
     d="m 514.61735,92.22818 q 0.284,-0.054 0.57,-0.093 0.287,-0.04 0.575,-0.066 0.287,-0.025 0.576,-0.037 0.289,-0.012 0.578,-0.009 0.289,0.002 0.577,0.018 0.289,0.017 0.576,0.047 0.288,0.031 0.573,0.075 0.286,0.044 0.569,0.102 0.283,0.058 0.563,0.13 0.28,0.072 0.556,0.157 0.277,0.086 0.548,0.184 0.272,0.099 0.538,0.211 0.267,0.111 0.528,0.236 0.261,0.125 0.515,0.262 0.254,0.137 0.502,0.286 0.247,0.149 0.487,0.31 0.24,0.161 0.472,0.334 0.232,0.173 0.455,0.356 0.223,0.184 0.437,0.378 0.214,0.194 0.419,0.399 0.204,0.204 0.398,0.418 0.194,0.214 0.378,0.438 0.183,0.223 0.356,0.455 0.172,0.232 0.333,0.472 0.161,0.24 0.31,0.487 0.15,0.248 0.286,0.503 0.137,0.254 0.262,0.515 0.124,0.261 0.236,0.527 0.111,0.267 0.21,0.539 0.098,0.272 0.183,0.548 0.086,0.276 0.157,0.556 0.072,0.28 0.13,0.563 0.058,0.283 0.102,0.569 0.044,0.285 0.075,0.573 0.03,0.287 0.046,0.576 0.016,0.288 0.018,0.577 0.003,0.289 -0.009,0.578 -0.012,0.289 -0.038,0.577 -0.026,0.287 -0.066,0.574 -0.04,0.286 -0.093,0.57 -0.054,0.284 -0.121,0.565 -0.068,0.281 -0.149,0.558 -0.081,0.278 -0.175,0.551 -0.094,0.273 -0.202,0.541 -0.107,0.269 -0.228,0.531 -0.12,0.263 -0.253,0.52 -0.133,0.256 -0.278,0.506 -0.146,0.25 -0.303,0.492 -0.157,0.243 -0.326,0.477 -0.169,0.235 -0.349,0.461 -0.18,0.226 -0.371,0.443 -0.191,0.217 -0.392,0.424 -0.201,0.208 -0.412,0.405 -0.211,0.198 -0.432,0.385 -0.22,0.187 -0.449,0.363 -0.229,0.176 -0.467,0.341 -0.237,0.164 -0.482,0.317 -0.245,0.153 -0.498,0.294 -0.252,0.141 -0.511,0.27 -0.259,0.128 -0.524,0.244 -0.264,0.116 -0.535,0.219 -0.27,0.102 -0.544,0.192 -0.275,0.089 -0.554,0.165 -0.279,0.077 -0.561,0.139 -0.384,0.085 -0.773,0.144 -0.388,0.06 -0.78,0.093 -0.392,0.034 -0.785,0.042 -0.393,0.007 -0.786,-0.011 -0.393,-0.018 -0.784,-0.062 -0.39,-0.045 -0.777,-0.115 -0.387,-0.07 -0.769,-0.165 -0.381,-0.095 -0.756,-0.216 -0.374,-0.12 -0.74,-0.265 -0.365,-0.145 -0.721,-0.313 -0.355,-0.169 -0.698,-0.361 -0.343,-0.192 -0.673,-0.406 -0.33,-0.214 -0.645,-0.449 -0.315,-0.235 -0.614,-0.491 -0.299,-0.256 -0.58,-0.53 -0.282,-0.275 -0.544,-0.568 -0.263,-0.293 -0.505,-0.602 -0.243,-0.31 -0.464,-0.635 -0.222,-0.325 -0.422,-0.663 -0.199,-0.339 -0.376,-0.69 -0.177,-0.352 -0.33,-0.714 -0.153,-0.362 -0.282,-0.733 -0.13,-0.372 -0.234,-0.751 -0.104,-0.379 -0.183,-0.764 -0.079,-0.386 -0.132,-0.775 -0.053,-0.39 -0.081,-0.782 -0.027,-0.393 -0.029,-0.786 -0.001,-0.393 0.023,-0.786 0.025,-0.392 0.075,-0.782 0.051,-0.39 0.127,-0.776 0.076,-0.386 0.177,-0.766 0.102,-0.38 0.228,-0.752 0.126,-0.372 0.277,-0.736 0.15,-0.363 0.325,-0.715 0.174,-0.353 0.371,-0.693 0.197,-0.34 0.416,-0.667 0.22,-0.326 0.46,-0.637 0.24,-0.312 0.501,-0.606 0.26,-0.295 0.539,-0.572 0.279,-0.277 0.576,-0.535 0.297,-0.257 0.61,-0.495 0.314,-0.238 0.642,-0.454 0.328,-0.217 0.67,-0.411 0.342,-0.194 0.696,-0.365 0.354,-0.172 0.719,-0.319 0.364,-0.148 0.738,-0.271 0.373,-0.123 0.754,-0.221 0.38,-0.098 0.767,-0.171 z"
     id="path10" />
  <path
     fill="#fefefe"
     d="m 224.74635,108.40718 q 0.643,-0.086 1.291,-0.129 0.648,-0.043 1.297,-0.043 0.649,0 1.297,0.042 0.648,0.043 1.291,0.129 0.644,0.085 1.28,0.213 0.637,0.128 1.263,0.297 0.627,0.17 1.241,0.381 0.614,0.211 1.213,0.462 0.598,0.25 1.179,0.54 0.581,0.29 1.141,0.618 0.561,0.328 1.098,0.692 0.538,0.364 1.05,0.763 0.512,0.399 0.997,0.83 0.485,0.432 0.94,0.895 0.455,0.463 0.878,0.955 0.424,0.492 0.814,1.011 0.39,0.519 0.745,1.063 0.355,0.543 0.673,1.109 0.318,0.566 0.598,1.152 0.28,0.585 0.521,1.188 0.24,0.603 0.44,1.221 0.201,0.617 0.36,1.246 0.159,0.63 0.276,1.268 0.117,0.639 0.191,1.284 0.075,0.645 0.106,1.293 0.032,0.648 0.021,1.297 -0.011,0.65 -0.066,1.296 -0.054,0.647 -0.15,1.289 -0.097,0.642 -0.236,1.276 -0.139,0.634 -0.32,1.258 -0.181,0.623 -0.402,1.234 -0.222,0.61 -0.483,1.204 -0.261,0.594 -0.561,1.17 -0.301,0.575 -0.638,1.13 -0.337,0.555 -0.711,1.086 -0.373,0.531 -0.781,1.036 -0.408,0.505 -0.848,0.982 -0.44,0.477 -0.911,0.924 -0.471,0.447 -0.97,0.862 -0.5,0.414 -1.025,0.795 -0.526,0.381 -1.076,0.726 -0.549,0.346 -1.121,0.654 -0.571,0.308 -1.162,0.578 -0.59,0.269 -1.197,0.499 -0.607,0.23 -1.228,0.42 -0.621,0.189 -1.253,0.337 -0.632,0.148 -1.272,0.254 -0.641,0.106 -1.287,0.169 -0.474,0.046 -0.949,0.07 -0.476,0.023 -0.952,0.023 -0.476,0 -0.951,-0.022 -0.476,-0.023 -0.95,-0.069 -0.474,-0.046 -0.945,-0.115 -0.471,-0.069 -0.938,-0.161 -0.467,-0.091 -0.929,-0.205 -0.462,-0.115 -0.918,-0.251 -0.456,-0.136 -0.905,-0.295 -0.449,-0.158 -0.89,-0.338 -0.44,-0.18 -0.872,-0.382 -0.431,-0.201 -0.852,-0.423 -0.422,-0.222 -0.832,-0.464 -0.409,-0.242 -0.807,-0.504 -0.398,-0.261 -0.782,-0.542 -0.385,-0.281 -0.755,-0.58 -0.371,-0.299 -0.726,-0.615 -0.356,-0.317 -0.695,-0.65 -0.34,-0.334 -0.663,-0.683 -0.323,-0.35 -0.629,-0.715 -0.306,-0.365 -0.594,-0.744 -0.287,-0.379 -0.556,-0.772 -0.269,-0.393 -0.519,-0.798 -0.249,-0.405 -0.479,-0.822 -0.23,-0.417 -0.439,-0.845 -0.209,-0.428 -0.397,-0.865 -0.188,-0.437 -0.355,-0.883 -0.167,-0.446 -0.312,-0.9 -0.144,-0.453 -0.267,-0.913 -0.123,-0.46 -0.223,-0.925 -0.1,-0.466 -0.178,-0.935 -0.077,-0.47 -0.132,-0.943 -0.055,-0.473 -0.086,-0.948 -0.032,-0.475 -0.04,-0.951 -0.009,-0.476 0.005,-0.952 0.015,-0.475 0.053,-0.95 0.037,-0.474 0.098,-0.947 0.06,-0.472 0.144,-0.94 0.083,-0.469 0.189,-0.933 0.106,-0.464 0.235,-0.923 0.128,-0.458 0.279,-0.91 0.151,-0.451 0.323,-0.895 0.172,-0.444 0.366,-0.879 0.193,-0.434 0.408,-0.859 0.214,-0.425 0.449,-0.84 0.235,-0.414 0.49,-0.816 0.254,-0.402 0.528,-0.791 0.274,-0.39 0.567,-0.765 0.292,-0.376 0.602,-0.737 0.311,-0.361 0.638,-0.706 0.328,-0.346 0.671,-0.675 0.344,-0.329 0.704,-0.641 0.359,-0.312 0.733,-0.607 0.374,-0.294 0.762,-0.57 0.388,-0.276 0.789,-0.532 0.401,-0.257 0.814,-0.494 0.413,-0.237 0.837,-0.453 0.424,-0.217 0.858,-0.413 0.434,-0.196 0.877,-0.37 0.442,-0.175 0.893,-0.327 0.451,-0.153 0.909,-0.284 0.458,-0.131 0.921,-0.239 0.464,-0.109 0.932,-0.194 0.468,-0.086 0.94,-0.149 z"
     id="path11" />
  <path
     d="m 225.18835,116.15518 q 0.386,-0.071 0.776,-0.117 0.39,-0.046 0.782,-0.066 0.392,-0.019 0.784,-0.013 0.393,0.006 0.784,0.037 0.391,0.032 0.78,0.09 0.388,0.057 0.772,0.14 0.383,0.084 0.761,0.192 0.377,0.108 0.747,0.241 0.369,0.132 0.729,0.289 0.36,0.157 0.708,0.337 0.349,0.181 0.685,0.384 0.336,0.202 0.658,0.427 0.322,0.225 0.629,0.47 0.306,0.245 0.596,0.51 0.29,0.265 0.561,0.549 0.272,0.283 0.524,0.584 0.252,0.301 0.484,0.618 0.232,0.316 0.442,0.648 0.211,0.331 0.399,0.675 0.188,0.345 0.353,0.701 0.166,0.356 0.307,0.722 0.141,0.367 0.258,0.741 0.117,0.375 0.208,0.757 0.092,0.382 0.159,0.768 0.066,0.387 0.107,0.778 0.041,0.39 0.056,0.782 0.015,0.393 0.004,0.785 -0.011,0.392 -0.048,0.783 -0.036,0.391 -0.099,0.779 -0.062,0.387 -0.15,0.77 -0.088,0.382 -0.201,0.758 -0.113,0.376 -0.25,0.744 -0.137,0.368 -0.299,0.726 -0.161,0.357 -0.346,0.704 -0.184,0.346 -0.391,0.68 -0.207,0.333 -0.436,0.653 -0.228,0.319 -0.478,0.622 -0.249,0.304 -0.517,0.59 -0.269,0.286 -0.556,0.554 -0.286,0.268 -0.59,0.517 -0.304,0.248 -0.624,0.476 -0.319,0.228 -0.653,0.434 -0.334,0.207 -0.681,0.391 -0.347,0.183 -0.705,0.344 -0.358,0.161 -0.726,0.297 -0.368,0.137 -0.745,0.249 -0.376,0.112 -0.759,0.199 -0.382,0.087 -0.77,0.149 -0.286,0.046 -0.574,0.077 -0.288,0.032 -0.577,0.049 -0.289,0.017 -0.579,0.021 -0.29,0.003 -0.579,-0.008 -0.29,-0.01 -0.579,-0.035 -0.288,-0.025 -0.575,-0.064 -0.287,-0.039 -0.572,-0.091 -0.285,-0.053 -0.567,-0.12 -0.282,-0.066 -0.561,-0.147 -0.278,-0.08 -0.552,-0.173 -0.274,-0.094 -0.544,-0.201 -0.269,-0.107 -0.533,-0.227 -0.263,-0.12 -0.521,-0.252 -0.257,-0.133 -0.508,-0.278 -0.251,-0.145 -0.495,-0.302 -0.243,-0.157 -0.479,-0.326 -0.235,-0.168 -0.462,-0.348 -0.227,-0.18 -0.445,-0.371 -0.218,-0.191 -0.427,-0.392 -0.208,-0.201 -0.407,-0.412 -0.198,-0.211 -0.386,-0.432 -0.188,-0.22 -0.365,-0.45 -0.177,-0.229 -0.343,-0.467 -0.165,-0.238 -0.319,-0.483 -0.154,-0.246 -0.296,-0.498 -0.141,-0.253 -0.271,-0.512 -0.129,-0.26 -0.245,-0.525 -0.117,-0.265 -0.22,-0.536 -0.104,-0.27 -0.194,-0.546 -0.09,-0.275 -0.166,-0.554 -0.077,-0.28 -0.14,-0.563 -0.063,-0.282 -0.112,-0.568 -0.049,-0.286 -0.084,-0.573 -0.035,-0.288 -0.056,-0.577 -0.021,-0.289 -0.028,-0.578 -0.007,-0.29 0,-0.58 0.007,-0.289 0.028,-0.578 0.021,-0.289 0.057,-0.577 0.035,-0.287 0.084,-0.573 0.049,-0.285 0.112,-0.568 0.063,-0.283 0.14,-0.562 0.077,-0.28 0.167,-0.555 0.09,-0.275 0.194,-0.546 0.103,-0.271 0.22,-0.536 0.117,-0.265 0.246,-0.524 0.129,-0.26 0.271,-0.512 0.142,-0.253 0.296,-0.498 0.154,-0.246 0.32,-0.483 0.165,-0.238 0.342,-0.467 0.178,-0.23 0.366,-0.45 0.188,-0.22 0.386,-0.431 0.199,-0.211 0.407,-0.412 0.209,-0.202 0.427,-0.392 0.218,-0.191 0.446,-0.371 0.227,-0.18 0.462,-0.348 0.236,-0.169 0.48,-0.326 0.243,-0.157 0.494,-0.301 0.251,-0.145 0.509,-0.278 0.257,-0.132 0.521,-0.252 0.264,-0.12 0.533,-0.226 0.27,-0.107 0.544,-0.201 0.274,-0.093 0.553,-0.173 0.278,-0.08 0.56,-0.147 0.282,-0.066 0.567,-0.119 z"
     id="path12" />
  <path
     fill="#fefefe"
     d="m 352.21035,681.16118 c 3.971,0.347 7.959,0.585 11.935,0.875 q 3.207,12.451 6.775,24.804 5.411,-11.61 10.495,-23.367 5.943,0.426 11.881,0.929 c -0.422,12.053 -1.896,24.197 -2.683,36.253 -2.611,-0.061 -5.231,-0.266 -7.84,-0.414 q 0.735,-11.585 1.688,-23.154 l 0.555,-6.027 -12.311,28.272 -5.931,-0.414 c -2.361,-9.962 -4.673,-20.007 -7.504,-29.846 -0.067,9.593 -1.334,19.41 -2.043,28.988 l -7.732,-0.496 c 0.632,-12.14 1.763,-24.283 2.715,-36.403 z"
     id="path13" />
  <path
     fill="#fefefe"
     d="m 462.32535,676.98518 c 0.747,-0.046 0.345,-0.098 1.185,0.281 2.601,11.536 3.852,23.753 5.693,35.469 l -7.854,1.236 c -0.71,-9.578 -3.137,-19.126 -4.242,-28.696 -2.39,9.931 -3.537,20.203 -5.573,30.221 l -5.679,1.068 c -4.368,-8.367 -8.428,-17.672 -13.563,-25.565 l 0.129,0.296 -0.421,-0.081 0.478,3.271 c 1.597,7.738 2.452,15.743 3.844,23.538 -2.622,0.424 -5.264,0.762 -7.894,1.138 q -2.708,-17.98 -5.689,-35.917 l 11.681,-1.92 c 4.42,7.402 8.405,15.153 12.592,22.699 1.551,-8.452 3.236,-16.904 4.516,-25.401 q 5.392,-0.86 10.797,-1.637 z"
     id="path14" />
  <path
     fill="#fefefe"
     d="m 105.21535,473.58518 c 1.447,0.129 2.819,0.256 4.141,0.905 7.298,3.579 9.772,16.302 12.192,23.489 q -14.492,4.864 -28.925996,9.899 l -5.617,2.002 c -1.639,-5.745 -4.41,-11.38 -5.475,-17.261 -0.514,-2.84 -0.491,-5.924 1.331,-8.324 1.435,-1.892 4.024,-3.196 6.379,-3.366 3.129,-0.227 5.357,1.766 7.622,3.607 l -0.004,-0.369 c -0.001,-0.204 0.003,-0.409 10e-4,-0.614 -0.019,-2.051 0.138,-3.79 1.203,-5.605 1.59,-2.708 4.278996,-3.585 7.152996,-4.363 z"
     id="path15" />
  <path
     d="m 104.15935,481.67418 c 0.998,-0.022 2.359,-0.156 3.261,0.34 3.413,1.876 4.251,7.15 5.305,10.63 l -3.172,1.181 -4.837,1.728 c -1.119,-2.965 -2.933,-6.592 -2.817,-9.788 0.069,-1.908 0.891,-2.863 2.26,-4.091 z"
     id="path16" />
  <path
     d="m 90.551354,488.23718 c 0.953,-0.032 2.088,-0.143 2.988,0.222 3.09,1.255 3.999,6.372 4.899,9.229 l -3.294,1.085 -4.426,1.498 c -0.887,-2.47 -2.324,-5.439 -2.305,-8.088 0.014,-1.852 0.871,-2.76 2.138,-3.946 z"
     id="path17" />
  <path
     fill="#fefefe"
     d="m 715.92935,355.17018 c 2.292,-0.221 4.618,-0.298 6.917,-0.441 0.333,5.711 1.086,11.878 0.677,17.577 -0.193,2.679 -0.794,6.101 -3.023,7.895 -1.752,1.41 -4.461,2.429 -6.724,2.089 -2.984,-0.449 -4.864,-3.099 -6.582,-5.313 -0.863,0.502 -1.219,2.664 -1.773,3.641 -1.432,2.532 -3.668,3.545 -6.337,4.334 -2.82,0.062 -5.049,-0.203 -7.267,-2.143 -5.846,-5.112 -4.911,-18.293 -5.592,-25.633 9.879,-0.836 19.81,-1.358 29.704,-2.006 z"
     id="path18" />
  <path
     d="m 697.73635,364.22918 c 1.232,-0.14 2.337,-0.195 3.576,-0.099 0.85,0.742 1.156,1.752 1.327,2.857 0.39,2.513 -0.001,7.107 -1.71,9.108 -0.855,1 -1.977,1.085 -3.192,1.259 -0.747,-0.343 -1.471,-0.737 -2.087,-1.291 -2.405,-2.167 -2.023,-8.586 -2.207,-11.613 q 2.148,-0.082 4.293,-0.221 z"
     id="path19" />
  <path
     d="m 715.77235,362.96418 0.33,-0.022 0.546,0.619 c 0.352,2.121 0.8,4.48 0.471,6.62 -0.229,1.481 -0.787,2.924 -2.133,3.742 -1.17,0.711 -2.487,0.396 -3.751,0.194 -2.691,-2.895 -2.385,-6.782 -2.656,-10.51 2.394,-0.245 4.796,-0.431 7.193,-0.643 z"
     id="path20" />
  <path
     fill="#fefefe"
     d="m 675.98135,474.87318 c 11.321,4.295 22.901,7.93 34.27,12.109 -1.753,5.258 -3.254,10.928 -5.724,15.89 -1.522,3.055 -3.823,6.119 -7.24,7.126 -3.601,1.062 -6.886,-0.494 -9.927,-2.287 -2.914,-2.776 -3.383,-5.092 -3.624,-8.952 -5.749,1.12 -11.465,2.375 -17.229,3.427 q 1.491,-4.371 2.926,-8.76 c 4.651,-0.643 11.708,-0.4 15.77,-2.687 1.353,-0.762 1.629,-2.193 2.083,-3.577 l -13.967,-4.953 c 0.939,-2.422 1.78,-4.892 2.662,-7.336 z"
     id="path21" />
  <path
     d="m 693.40535,489.29218 c 2.747,0.814 5.415,1.87 8.095,2.879 -0.88,3.159 -1.998,6.12 -3.651,8.955 -1.124,0.621 -2.674,1.312 -3.998,1.168 -1.052,-0.113 -1.703,-0.575 -2.206,-1.509 -1.708,-3.172 0.626,-8.466 1.76,-11.493 z"
     id="path22" />
  <path
     fill="#fefefe"
     d="m 172.80335,149.60318 c 2.321,-0.09 4.274,0.217 6.325,1.381 3.577,2.03 4.99,5.417 6.065,9.156 -0.509,2.017 -1.211,3.848 -2.015,5.757 5.75,1.429 11.522,2.797 17.201,4.49 -2.21,2.065 -4.274,4.254 -6.348,6.454 -5.361,-1.562 -10.679,-3.301 -16.001,-4.989 l -3.133,2.858 c 1.989,2.262 4.271,4.341 6.411,6.464 l 3.989,3.943 -5.571,5.651 c -8.352,-8.804 -17.186,-17.179 -25.383,-26.117 5.307,-5.408 11.126,-12.672 18.46,-15.048 z"
     id="path23" />
  <path
     d="m 172.45035,157.30318 c 0.191,0.017 0.383,0.022 0.571,0.053 1.32,0.216 2.93,0.995 3.59,2.213 0.596,1.099 0.403,2.306 -0.024,3.417 -0.993,2.584 -3.924,5.694 -6.467,6.86 l -5.928,-5.95 c 2.591,-2.598 4.969,-4.897 8.258,-6.593 z"
     id="path24" />
  <path
     fill="#fefefe"
     d="m 101.96835,357.82218 0.551,0.403 c 0.283,2.657 -0.025,5.365 -0.189,8.025 -2.564996,1.07 -5.240996,1.894 -7.874996,2.775 -0.123,4.915 -0.466,9.815 -0.543,14.737 q 3.838,1.61 7.635996,3.312 c -0.389,2.839 -0.45,5.703 -0.564,8.562 -6.115996,-3.314 -12.545996,-6.211 -18.791996,-9.287 q -8.519,-4.042 -16.9234,-8.316 c -0.0032,-2.07 0.1565,-4.141 0.2731,-6.206 4.1203,-1.988 8.6333,-3.44 12.9143,-5.065 z"
     id="path25" />
  <path
     d="m 86.469354,371.80818 c 0.43,-0.038 0.109,-0.034 0.92,0.283 0.507,2.739 0.042,5.985 -0.089,8.781 l -7.145,-3.196 -4.549,-2.039 z"
     id="path26" />
  <path
     fill="#fefefe"
     d="m 687.75635,410.59518 c 5.14,2.617 10.148,5.909 15.103,8.877 6.414,3.843 12.959,7.577 19.181,11.725 -0.406,2.026 -0.616,4.091 -0.874,6.14 l -16.409,4.686 c -7.238,2.187 -14.55,4.166 -21.825,6.231 l 1.133,-8.746 c 2.761,-0.634 5.479,-1.374 8.203,-2.15 0.464,-4.742 1.202,-9.49 1.816,-14.217 l -7.277,-4.092 c 0.375,-2.809 0.645,-5.636 0.949,-8.454 z"
     id="path27" />
  <path
     d="m 700.40335,426.49418 c 3.066,1.594 8.161,3.727 10.575,6.132 l -2.511,0.756 c -3.12,0.801 -6.281,1.454 -9.426,2.147 q 0.589,-4.531 1.362,-9.035 z"
     id="path28" />
  <path
     fill="#fefefe"
     d="m 362.48935,62.07728 c 0.175,0.1214 0.175,0.3888 0.25,0.5882 q -6.287,9.2127 -12.916,18.1817 c 6.528,5.804 13.488,11.195 20.254,16.723 -3.542,0.723 -7.119,1.176 -10.7,1.656 l -17.542,-15.217 1.429,9.853 1.179,7.717 -7.823,1.075 c -1.569,-12.048 -3.524,-24.066 -5.275,-36.092 2.585,-0.254 5.165,-0.7336 7.73,-1.1412 0.581,5.1692 1.501,10.3322 2.204,15.4912 4.034,-5.899 7.956,-11.932 12.273,-17.6254 2.96,-0.4908 5.962,-0.8172 8.937,-1.2095 z"
     id="path29" />
  <path
     fill="#fefefe"
     d="m 106.60435,229.26618 c 2.112,2.129 6.851,17.573 8.371,21.521 8.309,-2.599 16.787,-4.713 25.138,-7.187 q -2.301,4.957 -4.88,9.775 c -7.305,1.979 -15.046,4.499 -22.521,5.548 5.15,2.949 10.594,5.455 15.952,7.999 -1.239,2.305 -2.344,4.651 -3.432,7.03 q -16.356,-7.974 -32.617996,-16.139 l 3.397,-6.801 c 4.672996,1.934 9.090996,4.527 13.739996,6.557 -2.162,-6.602 -4.837,-13.108 -7.272,-19.617 z"
     id="path30" />
  <path
     fill="#fefefe"
     d="m 693.72635,252.00818 c 1.416,0.71 8.758,19.719 9.879,22.629 l -6.57,2.639 q -3.228,-7.753 -6.564,-15.459 l -6.482,2.644 c 1.827,4.954 4.028,9.819 6.071,14.691 l -6.578,2.889 c -1.826,-4.961 -4.084,-9.834 -6.142,-14.709 -2.418,0.766 -4.858,2.02 -7.207,3.01 l 6.856,16.381 -6.584,2.759 -9.836,-23.555 c 10.713,-5.15 22.171,-9.32 33.157,-13.919 z"
     id="path31" />
  <path
     fill="#fefefe"
     d="m 661.73835,197.61118 c 2.135,0.988 12.235,17.376 14.092,20.157 l -5.922,4.04 c -3.233,-4.646 -6.295,-9.43 -9.432,-14.143 -1.92,1.412 -3.95,2.706 -5.927,4.038 2.803,4.488 5.889,8.825 8.873,13.196 l -5.962,4.079 c -2.739,-4.365 -5.709,-8.6 -8.598,-12.867 -1.794,0.083 -5.096,2.918 -6.715,4.003 3.336,4.882 6.563,9.848 9.842,14.77 l -5.775,3.973 c -4.94,-6.985 -9.583,-14.195 -14.269,-21.353 q 15,-9.792 29.793,-19.893 z"
     id="path32" />
  <path
     fill="#fefefe"
     d="m 180.42735,589.83618 c 3.111,1.791 14.201,14.012 17.496,17.357 l -4.836,4.987 c -4.112,-3.882 -8.059,-7.975 -12.071,-11.962 -1.8,1.586 -3.415,3.349 -5.057,5.094 3.606,3.821 7.403,7.492 11.107,11.22 l -4.776,5.087 -11.422,-11.309 -5.402,5.505 c 4.058,4.312 8.348,8.444 12.521,12.648 l -4.837,4.924 q -9.304,-8.791 -18.299,-17.896 c 8.826,-8.251 16.904,-17.254 25.576,-25.655 z"
     id="path33" />
  <path
     fill="#fefefe"
     d="m 221.50035,629.52418 c 2.06,-0.185 4.007,0.033 5.98,0.659 5.881,1.865 9.225,6.2 11.901,11.462 -2.498,0.765 -5.122,1.276 -7.667,1.878 -0.652,-1.512 -1.372,-2.897 -2.489,-4.126 -1.574,-1.732 -3.857,-2.397 -6.153,-2.414 -1.178,-0.009 -1.599,0.194 -2.395,1.02 -0.973,5.232 6.323,10.699 7.252,15.997 0.429,2.446 -0.049,5.026 -1.49,7.066 -1.964,2.782 -5.815,4.229 -9.029,4.791 q -1.612,-0.136 -3.178,-0.546 -1.565,-0.411 -3.036,-1.084 c -5.468,-2.474 -8.637,-6.756 -10.644,-12.239 l 7.706,-1.842 c 0.698,1.735 1.389,3.666 2.581,5.126 1.301,1.593 3.562,2.88 5.643,2.955 1.36,0.049 2.26,-0.527 3.221,-1.406 1.775,-4.197 -5.316,-10.662 -6.69,-14.81 -0.767,-2.316 -0.825,-4.826 0.397,-7 1.681,-2.991 4.97,-4.498 8.09,-5.487 z"
     id="path34" />
  <path
     fill="#fefefe"
     d="m 453.79935,66.07848 q 2.464,-0.2543 4.922,0.0554 c 5.541,0.6571 9.517,3.2833 12.927,7.5473 -2.136,1.288 -4.363,2.456 -6.547,3.664 -1.454,-1.428 -2.887,-2.566 -4.784,-3.367 -2.505,-1.058 -5.062,-1.499 -7.62,-0.334 -2.929,1.334 -5.085,4.136 -6.21,7.091 q -0.262,0.669 -0.453,1.361 -0.19,0.692 -0.308,1.4 -0.117,0.709 -0.16,1.425 -0.043,0.717 -0.011,1.434 0.032,0.717 0.138,1.428 0.107,0.71 0.287,1.405 0.18,0.695 0.432,1.367 0.252,0.672 0.572,1.315 c 1.159,2.287 2.961,4.184 5.474,4.919 3.163,0.926 6.631,-0.293 9.351,-1.862 l 0.266,-0.005 c 2.01,1.433 3.728,3.789 5.372,5.653 q -1.435,1.136 -3.064,1.97 -1.629,0.834 -3.389,1.335 c -4.935,1.371 -10.216,0.344 -14.573,-2.251 q -0.794,-0.463 -1.538,-1.002 -0.744,-0.54 -1.43,-1.151 -0.686,-0.612 -1.308,-1.288 -0.621,-0.677 -1.172,-1.412 -0.552,-0.736 -1.026,-1.522 -0.475,-0.787 -0.869,-1.617 -0.394,-0.83 -0.704,-1.696 -0.309,-0.865 -0.53,-1.757 c -1.256,-5.064 -0.302,-11.06 2.413,-15.522 3.158,-5.189 7.855,-7.322 13.542,-8.5837 z"
     id="path35" />
  <path
     fill="#fefefe"
     d="m 287.79635,77.98718 c 3.469,-0.227 5.982,0.3 9.21,1.427 -1.163,2.264 -2.481,4.47 -3.732,6.688 -2.71,-0.688 -5.043,-0.739 -7.766,-0.092 -2.171,0.516 -4.062,1.796 -5.162,3.76 -1.691,3.02 -1.925,7.09 -0.936,10.368 1.018,3.372 3.401,6.428 6.544,8.059 2.204,1.144 4.76,1.64 7.156,0.816 3.116,-1.072 5.147,-3.884 6.464,-6.737 1.408,0.422 2.816,0.88 4.248,1.215 1.207,0.282 1.837,0.486 2.817,1.265 0.317,1.197 -0.096,1.527 -0.637,2.608 -2.692,4.08 -6.035,6.773 -10.789,8.156 -4.981,1.448 -10.346,1.175 -14.903,-1.424 -4.61,-2.629 -7.643,-7.237 -8.914,-12.325 -1.258,-5.032 -0.8,-10.352 2.024,-14.785 3.296,-5.174 8.57,-7.745 14.376,-8.999 z"
     id="path36" />
  <path
     fill="#fefefe"
     d="m 83.102354,293.52718 c 1.708,1.258 2.772,4.562 3.649,6.488 -1.985,1.816 -3.465,3.533 -4.286,6.149 q -0.153,0.483 -0.256,0.979 -0.103,0.496 -0.155,1 -0.051,0.504 -0.051,1.01 0,0.507 0.052,1.011 0.052,0.504 0.155,1 0.104,0.496 0.257,0.979 0.153,0.482 0.355,0.947 0.203,0.465 0.451,0.906 c 1.729,3.122 4.922,5.172 8.339,5.999 3.118,0.755 6.503,0.491 9.262996,-1.236 3.405,-2.129 4.403,-5.118 5.356,-8.776 -0.672,-2.029 -1.394,-3.743 -2.45,-5.61 2.071,-1.787 4.287,-3.431 6.444,-5.113 1.788,3.118 2.657,5.755 3.12,9.314 -0.007,0.159 -0.009,0.319 -0.02,0.479 -0.411,5.898 -2.636,11.551 -7.332,15.35 -3.877,3.136 -8.740996,4.499 -13.687996,3.952 -5.212,-0.577 -10.446,-3.052 -13.721,-7.226 -3.316,-4.227 -4.251,-9.751 -3.429,-14.978 0.862,-5.474 3.521,-9.415 7.947,-12.624 z"
     id="path37" />
  <path
     fill="#fefefe"
     d="m 521.51235,656.28518 c 1.326,2.098 0.202,34.48 0.148,39.17 -1.998,0.726 -3.946,1.574 -5.903,2.404 -6.706,-7.794 -14.268,-15.032 -21.318,-22.534 l -5.651,-5.863 q 4.158,-1.723 8.344,-3.377 c 5.208,6.738 11.726,13.03 17.544,19.256 -0.068,-8.694 -0.118,-17.466 -0.535,-26.147 2.427,-1.045 4.905,-1.964 7.371,-2.909 z"
     id="path38" />
  <path
     fill="#fefefe"
     d="m 621.94635,151.49618 c 1.742,1.291 3.352,3.344 4.893,4.904 l 12.148,12.284 -5.127,5.132 c -3.827,-4.042 -7.665,-8.041 -11.684,-11.893 l -5.418,5.537 q 5.272,5.441 10.657,10.769 l -3.907,3.96 -0.952,0.623 c -2.801,-0.904 -8.694,-8.078 -10.939,-10.437 q -5.034,4.96 -9.997,9.991 c -1.93,-1.776 -3.73,-3.687 -5.553,-5.573 8.587,-8.379 16.856,-17.416 25.879,-25.297 z"
     id="path39" />
  <path
     fill="#fefefe"
     d="m 573.93035,113.73118 c 6.86,3.951 13.441,9.207 19.961,13.748 -1.249,2.027 -2.643,3.947 -4.028,5.882 q -6.76,-4.814 -13.679,-9.398 l -4.401,6.51 c 4.327,2.4 8.471,5.745 12.539,8.594 l -2.963,4.451 c -0.29,0.395 -0.638,0.619 -1.026,0.912 -3.437,-0.727 -9.447,-6.027 -12.454,-8.232 -2.901,3.808 -5.559,7.795 -8.26,11.745 l -6.31,-4.401 c 6.505,-10.145 13.777,-19.881 20.621,-29.811 z"
     id="path40" />
  <path
     fill="#fefefe"
     d="m 263.08535,652.36918 q 13.097,5.743 26.09,11.72 c -0.875,2.084 -1.801,4.148 -2.705,6.219 -3.168,-1.524 -6.411,-2.866 -9.651,-4.226 -2.339,5.95 -5.245,11.784 -7.866,17.623 l -4.086,9.323 c -2.423,-1.052 -4.795,-2.088 -7.085,-3.413 l 12.048,-26.718 c -3.119,-1.581 -6.405,-2.896 -9.609,-4.298 z"
     id="path41" />
  <path
     fill="#fefefe"
     d="m 102.56635,420.16318 c 1.582,3.676 2.577,17.373 3.531,22.539 l -35.834996,5.194 c -0.999,-0.884 -1.271,-6.083 -1.473,-7.643 9.519,-1.734 19.27,-2.81 28.855,-4.186 l -1.889,-14.961 z"
     id="path42" />
  <path
     fill="#fefefe"
     d="m 583.35635,616.30218 c 2.912,2.889 5.447,6.498 8.033,9.697 l 14.883,18.431 c -1.919,1.669 -3.945,3.242 -5.914,4.854 -2.387,-1.841 -4.804,-5.684 -6.732,-8.08 l -16.116,-20.087 c 1.852,-1.702 3.886,-3.237 5.846,-4.815 z"
     id="path43" />
  <path
     fill="#fefefe"
     d="m 552.08835,638.98718 c 2.39,2.732 4.32,6.755 6.227,9.886 l 12.808,21.044 -6.424,4.081 c -2.509,-3.205 -4.566,-7.176 -6.687,-10.662 l -12.464,-20.388 c 2.104,-1.417 4.358,-2.664 6.54,-3.961 z"
     id="path44" />
  <path
     fill="#fefefe"
     d="m 611.41535,589.81918 c 2.773,1.371 22.783,21.368 26.401,24.799 -1.72,1.878 -3.525,3.689 -5.292,5.525 -3.241,-2.455 -6.232,-5.705 -9.178,-8.518 l -17.166,-16.426 c 1.653,-1.863 3.484,-3.608 5.235,-5.38 z"
     id="path45" />
  <path
     fill="#fefefe"
     d="m 309.22735,700.09318 q 0.296,-0.088 0.601,-0.137 0.305,-0.048 0.614,-0.055 0.309,-0.007 0.616,0.027 0.307,0.034 0.607,0.109 0.3,0.074 0.587,0.188 0.287,0.114 0.556,0.265 0.27,0.152 0.516,0.337 0.247,0.186 0.467,0.403 0.22,0.217 0.409,0.461 0.189,0.245 0.344,0.512 0.155,0.267 0.272,0.553 0.118,0.285 0.197,0.584 0.078,0.299 0.117,0.605 0.038,0.307 0.035,0.616 -0.003,0.309 -0.047,0.614 -0.044,0.306 -0.129,0.603 -0.085,0.297 -0.208,0.58 -0.123,0.283 -0.283,0.548 -0.16,0.264 -0.354,0.504 -0.194,0.241 -0.418,0.454 -0.224,0.212 -0.474,0.393 -0.251,0.181 -0.523,0.327 -0.272,0.146 -0.562,0.254 -0.289,0.108 -0.59,0.177 -0.108,0.025 -0.217,0.044 -0.11,0.02 -0.22,0.034 -0.11,0.014 -0.22,0.023 -0.111,0.009 -0.222,0.013 -0.11,0.003 -0.221,10e-4 -0.111,-10e-4 -0.222,-0.009 -0.111,-0.007 -0.221,-0.019 -0.11,-0.012 -0.22,-0.03 -0.109,-0.018 -0.218,-0.041 -0.108,-0.022 -0.215,-0.051 -0.108,-0.028 -0.214,-0.061 -0.105,-0.033 -0.21,-0.071 -0.104,-0.039 -0.206,-0.082 -0.102,-0.043 -0.202,-0.091 -0.1,-0.048 -0.197,-0.101 -0.098,-0.053 -0.193,-0.11 -0.095,-0.058 -0.187,-0.12 -0.092,-0.062 -0.181,-0.128 -0.089,-0.066 -0.174,-0.137 -0.086,-0.07 -0.168,-0.145 -0.082,-0.074 -0.161,-0.153 -0.078,-0.078 -0.153,-0.16 -0.075,-0.082 -0.145,-0.168 -0.071,-0.085 -0.137,-0.174 -0.067,-0.089 -0.129,-0.181 -0.062,-0.092 -0.119,-0.186 -0.058,-0.095 -0.111,-0.193 -0.053,-0.097 -0.101,-0.197 -0.048,-0.1 -0.092,-0.202 -0.043,-0.102 -0.082,-0.206 -0.038,-0.104 -0.071,-0.21 -0.034,-0.106 -0.062,-0.213 -0.028,-0.107 -0.051,-0.216 -0.023,-0.108 -0.041,-0.218 -0.018,-0.109 -0.031,-0.22 -0.012,-0.11 -0.019,-0.22 -0.008,-0.111 -0.01,-0.222 -10e-4,-0.111 0.002,-0.222 0.003,-0.111 0.012,-0.221 0.009,-0.111 0.023,-0.221 0.014,-0.11 0.033,-0.219 0.02,-0.109 0.044,-0.218 0.025,-0.108 0.054,-0.215 0.03,-0.106 0.065,-0.212 0.035,-0.105 0.074,-0.209 0.04,-0.103 0.085,-0.205 0.045,-0.101 0.094,-0.2 0.05,-0.1 0.104,-0.196 0.054,-0.097 0.113,-0.191 0.059,-0.094 0.122,-0.185 0.064,-0.091 0.131,-0.179 0.068,-0.088 0.14,-0.173 0.072,-0.084 0.147,-0.165 0.076,-0.082 0.156,-0.159 0.079,-0.077 0.162,-0.151 0.083,-0.073 0.17,-0.142 0.087,-0.07 0.176,-0.135 0.09,-0.065 0.183,-0.125 0.093,-0.061 0.189,-0.117 0.095,-0.056 0.194,-0.108 0.098,-0.051 0.198,-0.098 0.101,-0.047 0.204,-0.089 0.102,-0.042 0.207,-0.078 0.105,-0.037 0.211,-0.069 z"
     id="path46" />
  <path
     fill="#fefefe"
     d="m 652.57135,554.33518 q 0.297,-0.086 0.602,-0.131 0.305,-0.045 0.614,-0.049 0.309,-0.005 0.615,0.032 0.307,0.037 0.606,0.115 0.299,0.077 0.585,0.194 0.286,0.116 0.553,0.27 0.268,0.153 0.513,0.341 0.245,0.188 0.463,0.407 0.218,0.219 0.404,0.465 0.187,0.246 0.339,0.514 0.152,0.269 0.267,0.556 0.115,0.286 0.191,0.585 0.076,0.3 0.111,0.606 0.036,0.307 0.03,0.616 -0.006,0.308 -0.053,0.614 -0.047,0.305 -0.134,0.601 -0.087,0.296 -0.213,0.578 -0.126,0.282 -0.288,0.545 -0.162,0.262 -0.358,0.501 -0.196,0.239 -0.422,0.449 -0.226,0.211 -0.478,0.389 -0.251,0.179 -0.525,0.322 -0.273,0.144 -0.563,0.249 -0.29,0.106 -0.592,0.172 -0.108,0.024 -0.218,0.042 -0.109,0.019 -0.219,0.032 -0.11,0.013 -0.221,0.021 -0.111,0.008 -0.222,0.011 -0.11,0.002 -0.221,0 -0.111,-0.003 -0.222,-0.011 -0.111,-0.008 -0.221,-0.022 -0.11,-0.013 -0.219,-0.032 -0.11,-0.018 -0.218,-0.042 -0.108,-0.024 -0.215,-0.053 -0.107,-0.029 -0.213,-0.063 -0.106,-0.034 -0.209,-0.074 -0.104,-0.039 -0.206,-0.083 -0.102,-0.044 -0.201,-0.093 -0.1,-0.049 -0.197,-0.103 -0.097,-0.054 -0.191,-0.112 -0.095,-0.058 -0.186,-0.121 -0.092,-0.063 -0.18,-0.13 -0.088,-0.067 -0.173,-0.138 -0.085,-0.071 -0.167,-0.147 -0.081,-0.075 -0.159,-0.154 -0.078,-0.079 -0.152,-0.162 -0.074,-0.083 -0.143,-0.169 -0.07,-0.086 -0.136,-0.176 -0.065,-0.089 -0.127,-0.182 -0.061,-0.092 -0.118,-0.187 -0.056,-0.096 -0.109,-0.194 -0.052,-0.098 -0.099,-0.198 -0.047,-0.1 -0.09,-0.203 -0.042,-0.102 -0.079,-0.207 -0.038,-0.104 -0.07,-0.21 -0.033,-0.106 -0.06,-0.214 -0.027,-0.108 -0.049,-0.216 -0.022,-0.109 -0.039,-0.219 -0.017,-0.109 -0.028,-0.22 -0.012,-0.11 -0.018,-0.221 -0.006,-0.11 -0.007,-0.221 -10e-4,-0.111 0.003,-0.222 0.005,-0.111 0.015,-0.221 0.009,-0.111 0.025,-0.221 0.015,-0.11 0.035,-0.219 0.02,-0.109 0.046,-0.217 0.025,-0.107 0.056,-0.214 0.031,-0.107 0.067,-0.212 0.035,-0.105 0.076,-0.208 0.041,-0.103 0.087,-0.204 0.045,-0.101 0.096,-0.2 0.05,-0.099 0.106,-0.195 0.055,-0.096 0.115,-0.189 0.059,-0.094 0.124,-0.184 0.064,-0.091 0.132,-0.178 0.069,-0.087 0.141,-0.171 0.073,-0.084 0.149,-0.164 0.077,-0.081 0.157,-0.157 0.08,-0.077 0.164,-0.149 0.084,-0.073 0.171,-0.141 0.088,-0.069 0.178,-0.133 0.09,-0.064 0.184,-0.124 0.093,-0.06 0.189,-0.115 0.097,-0.055 0.195,-0.106 0.099,-0.05 0.2,-0.096 0.101,-0.046 0.204,-0.087 0.104,-0.041 0.209,-0.076 0.105,-0.036 0.211,-0.067 z"
     id="path47" />
  <path
     fill="#fefefe"
     d="m 125.25235,554.31618 q 0.294,-0.082 0.597,-0.125 0.303,-0.043 0.609,-0.045 0.305,-0.003 0.609,0.035 0.303,0.038 0.599,0.116 0.295,0.078 0.578,0.194 0.283,0.116 0.548,0.269 0.265,0.152 0.508,0.338 0.242,0.186 0.458,0.403 0.216,0.217 0.401,0.46 0.186,0.243 0.337,0.508 0.152,0.266 0.267,0.549 0.116,0.283 0.192,0.579 0.077,0.296 0.114,0.6 0.037,0.303 0.034,0.609 -0.003,0.306 -0.047,0.608 -0.044,0.303 -0.127,0.597 -0.083,0.294 -0.205,0.575 -0.121,0.28 -0.279,0.542 -0.157,0.262 -0.348,0.501 -0.191,0.239 -0.411,0.451 -0.221,0.211 -0.468,0.392 -0.246,0.181 -0.515,0.327 -0.268,0.146 -0.553,0.256 -0.286,0.11 -0.583,0.181 -0.109,0.026 -0.218,0.047 -0.11,0.02 -0.221,0.036 -0.111,0.015 -0.222,0.025 -0.111,0.01 -0.223,0.015 -0.112,0.004 -0.223,0.003 -0.112,0 -0.224,-0.007 -0.111,-0.006 -0.222,-0.018 -0.112,-0.011 -0.222,-0.028 -0.11,-0.017 -0.22,-0.04 -0.109,-0.022 -0.218,-0.05 -0.108,-0.027 -0.215,-0.06 -0.107,-0.033 -0.212,-0.071 -0.105,-0.038 -0.208,-0.081 -0.103,-0.043 -0.204,-0.091 -0.101,-0.048 -0.199,-0.101 -0.099,-0.053 -0.195,-0.111 -0.095,-0.057 -0.188,-0.119 -0.093,-0.062 -0.183,-0.129 -0.09,-0.066 -0.176,-0.137 -0.087,-0.071 -0.17,-0.146 -0.082,-0.075 -0.162,-0.154 -0.079,-0.079 -0.154,-0.161 -0.075,-0.083 -0.146,-0.169 -0.072,-0.086 -0.139,-0.176 -0.066,-0.089 -0.129,-0.182 -0.062,-0.093 -0.12,-0.188 -0.058,-0.096 -0.112,-0.194 -0.053,-0.098 -0.101,-0.199 -0.049,-0.101 -0.092,-0.204 -0.043,-0.103 -0.082,-0.208 -0.038,-0.104 -0.072,-0.211 -0.033,-0.107 -0.061,-0.215 -0.028,-0.108 -0.051,-0.218 -0.023,-0.109 -0.04,-0.219 -0.018,-0.111 -0.03,-0.222 -0.012,-0.111 -0.019,-0.223 -0.006,-0.111 -0.008,-0.223 -10e-4,-0.112 0.003,-0.223 0.004,-0.112 0.014,-0.223 0.009,-0.112 0.024,-0.223 0.015,-0.11 0.036,-0.22 0.02,-0.11 0.045,-0.219 0.026,-0.109 0.057,-0.216 0.031,-0.108 0.067,-0.213 0.036,-0.106 0.077,-0.21 0.041,-0.104 0.087,-0.206 0.046,-0.102 0.097,-0.201 0.051,-0.1 0.107,-0.197 0.055,-0.096 0.116,-0.191 0.06,-0.094 0.125,-0.185 0.065,-0.091 0.134,-0.178 0.069,-0.088 0.142,-0.173 0.074,-0.084 0.151,-0.165 0.077,-0.08 0.159,-0.157 0.081,-0.077 0.166,-0.15 0.084,-0.073 0.173,-0.141 0.088,-0.069 0.179,-0.133 0.092,-0.064 0.186,-0.124 0.095,-0.06 0.192,-0.115 0.097,-0.055 0.197,-0.105 0.1,-0.051 0.202,-0.096 0.102,-0.045 0.206,-0.086 0.104,-0.04 0.21,-0.076 0.106,-0.035 0.214,-0.065 z"
     id="path48" />
</svg>
