<?xml version="1.0" encoding="UTF-8" standalone="no"?>
<svg
   width="1024"
   height="1024"
   version="1.1"
   id="svg93"
   sodipodi:docname="chris_bryan_vector_art.svg"
   inkscape:version="1.4 (e7c3feb100, 2024-10-09)"
   xml:space="preserve"
   xmlns:inkscape="http://www.inkscape.org/namespaces/inkscape"
   xmlns:sodipodi="http://sodipodi.sourceforge.net/DTD/sodipodi-0.dtd"
   xmlns="http://www.w3.org/2000/svg"
   xmlns:svg="http://www.w3.org/2000/svg"><sodipodi:namedview
     id="namedview93"
     pagecolor="#00ffff"
     bordercolor="#000000"
     borderopacity="0.25"
     inkscape:showpageshadow="2"
     inkscape:pageopacity="0.0"
     inkscape:pagecheckerboard="0"
     inkscape:deskcolor="#d1d1d1"
     inkscape:zoom="0.390625"
     inkscape:cx="-151.04"
     inkscape:cy="220.16"
     inkscape:window-width="1920"
     inkscape:window-height="1011"
     inkscape:window-x="0"
     inkscape:window-y="0"
     inkscape:window-maximized="1"
     inkscape:current-layer="svg93" /><defs
     id="defs62"><linearGradient
       id="gradient_0"
       gradientUnits="userSpaceOnUse"
       x1="472.6853"
       y1="560.44189"
       x2="465.92337"
       y2="571.5575"
       gradientTransform="matrix(0.93976828,0,0,1,50.58348,0)"><stop
         offset="0"
         stop-color="#1D1C1C"
         id="stop61" /><stop
         offset="1"
         stop-color="#322521"
         id="stop62" /></linearGradient></defs><path
     id="path1"
     style="display:inline;stroke-width:0.969416"
     d="M 503.24023 28.03125 C 478.68078 27.224911 455.01475 31.847034 431.35938 42.287109 L 434.20312 34.732422 C 416.01578 41.704222 398.1661 52.088722 382.30469 63.794922 C 385.00089 58.412222 387.48466 52.922247 389.98633 47.435547 C 387.87373 48.694747 385.79142 50.008773 383.74023 51.378906 C 381.68965 52.749106 379.67299 54.174677 377.68945 55.652344 C 375.70529 57.13001 373.75719 58.658768 371.8457 60.240234 C 369.93359 61.821701 368.05966 63.453432 366.22461 65.134766 C 364.39018 66.816099 362.59735 68.545266 360.84375 70.322266 C 359.09014 72.099199 357.37872 73.920929 355.71094 75.789062 C 354.04254 77.657196 352.4213 79.568838 350.84375 81.523438 C 349.26619 83.478104 347.73227 85.473566 346.24805 87.509766 C 346.84293 83.780366 347.34688 80.080706 347.70117 76.316406 C 340.77602 83.134506 335.78174 92.950641 331.4043 101.74805 L 327.06445 93.480469 C 324.36167 99.878869 321.93115 106.39282 319.77344 113.02148 C 317.28964 111.54948 314.6945 110.48195 312.05469 109.37695 C 311.48331 114.01995 311.00375 118.62783 310.67578 123.29883 C 308.67407 119.97583 306.68895 116.69503 304.40625 113.58203 C 302.94491 120.13703 302.69338 126.78337 302.39453 133.48438 C 299.18146 132.26935 295.90739 131.33481 292.61914 130.38281 C 293.38693 133.95681 294.25669 137.51322 295.07617 141.07422 C 290.52393 141.73755 286.0429 142.75872 281.63477 144.13672 C 283.0087 147.34872 284.81277 150.34514 286.51562 153.36914 C 279.16663 156.25914 272.36515 160.26583 265.60352 164.42383 C 268.11176 166.79183 270.80945 168.99563 273.40039 171.26562 C 268.81056 175.96062 264.68447 181.16616 260.66602 186.41016 L 266.48047 191.06445 C 263.45817 194.90145 259.54889 199.27162 258.10352 204.14062 C 254.71472 215.55865 253.82312 245.90905 253.04688 259.37305 L 246.7207 388.3418 C 243.99349 387.5268 241.19525 386.82739 238.375 386.52539 C 230.78638 385.71139 223.40222 387.46402 217.46289 392.79102 C 208.95235 400.42402 205.8731 413.06016 205.20117 424.41016 C 202.97673 461.97416 210.01175 534.15561 234.30664 563.34961 C 245.13747 576.36261 257.62768 585.04216 274.1582 586.16016 C 275.01715 606.59016 277.47683 630.84191 284.29297 650.00391 C 287.25418 658.32791 294.36828 671.90884 295.56836 679.58984 C 296.67447 686.66584 295.33265 694.83027 295.17383 702.07227 C 294.66071 725.43327 293.06391 748.88033 293.22461 772.23633 C 270.88726 792.28333 256.08792 820.21639 235.13672 841.90039 C 227.70222 849.59539 219.61553 856.51467 212.01562 864.01367 C 207.90601 868.06867 203.81739 874.00342 199.10352 877.10742 C 193.71864 880.65242 187.05633 883.11936 181.26172 885.94336 L 148.0293 902.49609 C 120.38901 916.36476 42.644394 955.1703 0 975.99219 L 0 1004.4473 L 50.583984 1024 L 169.03906 1024 L 183.51562 1024 L 276.79102 1024 L 285.96484 1024 L 307.94531 1024 L 315.53711 1024 L 351.93945 1024 L 411.30859 1024 L 421.09766 1024 L 505.58008 1024 L 516.66016 1024 L 567.33984 1024 L 607.78125 1024 L 621.24805 1024 L 626.90039 1024 L 635.79688 1024 L 732.63086 1024 L 748.17969 1024 L 997.37305 1024 L 1010.8672 1024 C 1004.0351 1015.14 995.41773 1006.6496 986.2832 1000.5996 C 975.01632 993.14163 962.51919 987.38252 950.48828 981.47852 L 905.41406 959.37695 C 860.46056 937.25495 815.62207 914.86756 770.90039 892.21289 L 739.45508 876.28125 C 734.32676 873.66325 728.43363 871.24628 723.7207 867.86328 C 718.27474 863.95528 713.4367 858.07134 708.75195 853.15234 C 697.1903 840.97101 686.20932 828.2222 675.80859 814.9082 C 666.31787 802.9742 657.00594 790.34025 646.25781 779.65625 C 646.47302 772.83625 646.01647 760.71109 648.05859 754.62109 C 649.9353 749.02409 654.27399 743.58373 657.38086 738.67773 C 660.94759 733.0364 664.40744 727.32311 667.76367 721.53711 C 676.71778 706.14211 685.91184 690.38952 693.11328 673.97852 C 698.65416 661.34952 702.96205 648.20756 707.03125 634.97656 C 711.57127 632.44956 715.4166 629.82297 718.79883 625.66797 C 725.73056 617.15097 730.52919 606.28508 735.58984 596.45508 C 744.29021 579.55108 752.86804 562.83611 759.89844 545.03711 C 762.36439 538.79411 765.15802 532.35456 766.94922 525.85156 C 771.56442 509.09456 775.47554 479.5167 769.03906 463.4707 C 766.86256 458.0447 763.02176 453.20744 757.76562 451.02344 C 751.10736 448.25644 744.77895 450.23198 738.60938 453.20898 C 743.68412 428.08598 745.38065 402.08389 749.19141 376.71289 C 752.93921 351.76289 758.714 327.17675 763.10742 302.34375 C 764.53148 294.50642 765.81848 286.64386 766.96875 278.75586 C 767.5937 274.21386 767.61773 268.80208 768.85352 264.45508 L 770.24023 264.72266 L 770.66602 264.14258 C 770.69892 257.30158 768.68066 249.78455 767.43359 243.06055 C 771.08177 242.57555 774.69142 242.02231 778.30859 241.32031 C 772.22547 233.58831 766.08263 225.71813 759.38867 218.57812 C 766.06478 219.90715 772.74844 221.27239 779.54297 221.65039 C 773.91 213.71139 767.44733 206.45277 761.88672 198.38477 C 754.19659 187.22777 747.52153 175.31609 739.86523 164.12109 C 744.35169 167.05009 748.97112 169.79333 753.52148 172.61133 C 745.993 158.90233 738.679 144.51908 728.60938 132.70508 C 718.62432 120.99008 706.06256 111.71453 693.64258 103.14453 C 665.55291 83.764933 636.43643 68.584391 604.60742 57.462891 C 610.1389 56.305691 615.49206 54.283425 620.85156 52.453125 C 603.58801 46.541525 585.2759 43.388897 567.55469 39.404297 C 554.43929 36.455497 541.36179 32.928912 528.12891 30.632812 C 519.71164 29.172263 511.42671 28.30003 503.24023 28.03125 z " /><path
     fill="#ebbf9d"
     d="m 304.37072,696.426 q 22.94445,45.979 49.32092,89.823 c 7.96548,13.013 16.17341,26.15 25.47336,38.131 4.67723,6.025 9.87979,11.597 15.01844,17.173 1.02341,4.89 5.51174,9.901 8.44758,13.714 12.17469,15.814 23.24798,28.125 39.54169,39.162 24.25917,16.432 45.20097,21.646 73.58761,18.173 -6.05869,20.367 -16.45534,38.368 -26.74017,56.538 -3.3888,5.987 -7.17137,11.932 -10.09029,18.182 6.63195,3.135 13.10789,4.955 20.2802,6.135 5.27022,0.867 25.12189,1.627 27.72223,3.18 q -5.89235,6.333 -11.24057,13.183 -5.34822,6.85 -10.11097,14.18 H 421.0984 c -4.49961,-10.93 -9.09414,-21.73 -15.86517,-31.333 -7.42041,-10.529 -17.21373,-18.072 -26.55973,-26.466 Q 366.18962,954.96 354.48951,942.802 c -26.73453,-28.197 -49.86881,-63.293 -53.40516,-104.277 -1.27244,-14.745 0.1654,-30.219 0.60146,-45.05 l 1.29406,-46.726 c 0.59299,-16.764 1.45194,-33.544 1.39085,-50.323 z"
     id="path3"
     style="display:inline;stroke-width:0.969416" /><path
     fill="#de9770"
     d="m 637.53925,769.002 c -1.16625,22.624 -1.51208,46.179 -5.30593,68.476 -8.20887,48.248 -34.81935,87.171 -66.77241,121.166 -5.48543,5.835 -10.92105,11.825 -16.68935,17.343 -5.21947,4.994 -10.55454,9.857 -15.82476,14.79 -1.97257,1.847 -3.92635,4.232 -6.01451,5.86 -2.60034,-1.553 -22.45201,-2.313 -27.72223,-3.18 -7.17231,-1.18 -13.64825,-3 -20.2802,-6.135 2.91892,-6.25 6.70149,-12.195 10.09029,-18.182 10.28483,-18.17 20.68148,-36.171 26.74017,-56.538 -28.38664,3.473 -49.32844,-1.741 -73.58761,-18.173 -16.29371,-11.037 -27.367,-23.348 -39.54169,-39.162 -2.93584,-3.813 -7.42417,-8.824 -8.44758,-13.714 6.07184,5.121 12.09857,10.006 18.8931,14.032 28.05584,16.622 67.94807,25.195 99.88891,21.232 11.24057,-1.395 22.67097,-3.745 33.18698,-8.27 25.2215,-10.854 46.20934,-34.32 62.80189,-56.667 10.07526,-13.569 20.08755,-28.131 28.58493,-42.878 z"
     id="path4"
     style="display:inline;stroke-width:0.969416" /><path
     fill="#3f3632"
     d="m 738.20253,886.218 c 17.31241,7.911 34.23764,17.154 51.24275,25.807 l 81.63579,40.841 58.33893,28.668 c 15.13779,7.313 30.96631,14.235 45.38235,23.036 8.72105,5.33 15.83134,11.52 22.56945,19.43 H 748.18005 c -4.81161,-3.84 -9.72472,-7.6 -14.44612,-11.56 6.0944,-4.69 42.95963,-32.314 43.74716,-37.38 0.31764,-2.047 -0.96232,-4.556 -1.77147,-6.375 -4.39341,-9.871 -9.71908,-19.31 -14.25722,-29.119 -8.12712,-17.564 -15.59921,-35.545 -23.24987,-53.348 z"
     id="path5"
     style="display:inline;stroke-width:0.969416" /><path
     fill="#3f3632"
     d="m 659.50728,809.616 q 18.15444,23.735 38.48821,45.376 c 8.90148,9.378 19.6233,18.193 27.20817,28.782 6.99093,9.759 15.57384,33.333 21.10907,45.492 6.74096,14.808 14.36436,29.171 21.10156,43.951 -9.12891,7.013 -17.75128,14.775 -26.76272,21.961 -5.59726,4.464 -11.70857,8.372 -17.16299,12.992 -1.29124,1.09 -2.00359,1.76 -2.51294,3.43 0.92191,4.8 8.15061,9.55 11.65595,12.4 h -96.83467 c 8.30098,-37.932 14.15197,-76.067 18.95701,-114.651 3.9865,-32.012 8.86577,-67.601 4.75335,-99.733 z"
     id="path6"
     style="display:inline;stroke-width:0.969416" /><path
     fill="#3f3632"
     d="m 272.81894,810.244 c -10.95957,46.344 -6.12541,120.148 -1.27996,167.89 1.5525,15.294 3.95078,30.566 5.25236,45.866 h -93.27576 c 4.45732,-3.16 13.40674,-7.82 14.77974,-13.7 -0.70577,-3.12 -2.81837,-3.87 -5.25143,-5.44 -12.88704,-8.363 -25.01005,-17.772 -37.32195,-27.055 10.99622,-21.165 20.97656,-42.81 32.38911,-63.74 5.695,-10.446 11.20204,-20.722 18.43919,-30.086 9.54523,-12.348 21.3553,-21.857 32.10813,-32.898 12.36359,-12.694 23.37579,-26.638 34.16057,-40.837 z"
     id="path7"
     style="display:inline;stroke-width:0.969416" /><path
     id="path8"
     style="display:inline;fill:#3f3632;fill-opacity:1;stroke-width:0.969416"
     d="M 188.58398 892.72461 C 169.59409 901.24661 150.98772 911.26067 132.40625 920.76367 L 0 985.08789 L 0 1024 L 169.03711 1024 C 174.46521 1019.53 180.11441 1015.0391 186.05469 1011.3691 C 179.74038 1007.3491 146.95471 985.31798 145.19922 980.20898 C 144.01897 976.77598 182.68412 902.83961 188.58398 892.72461 z " /><path
     fill="#85acbe"
     d="m 313.93756,906.364 c 8.85168,14.935 19.27653,28.144 30.59886,41.007 5.14147,5.345 10.28764,10.742 15.67064,15.812 -4.94319,5.628 -9.7548,11.702 -14.99683,16.988 -7.74275,9.369 -16.40271,19.102 -22.4661,29.839 -3.3061,-5.26 -7.12908,-18.014 -9.61477,-24.571 l 0.11278,-0.339 c -3.24502,-5.137 -6.7607,-19.473 -9.4973,-26.276 l -0.39001,-0.183 c 0.1748,-3.037 -8.03783,-24.44 -9.78956,-28.499 l 0.0329,-0.283 c 6.44117,-8.116 13.42459,-15.839 20.3394,-23.495 z"
     id="path9"
     style="display:inline;stroke-width:0.969416" /><path
     fill="#f3efec"
     d="m 303.74484,958.824 c 1.4369,-4.469 16.2796,-20.26 20.23603,-25.624 3.35027,8.569 7.38658,16.707 11.20486,25.039 L 313.24214,985.1 c -3.24502,-5.137 -6.7607,-19.473 -9.4973,-26.276 z"
     id="path10"
     style="display:inline;stroke-width:0.969416" /><path
     fill="#58889e"
     d="m 344.53642,947.371 c 5.14147,5.345 10.28764,10.742 15.67064,15.812 -4.94319,5.628 -9.7548,11.702 -14.99683,16.988 -4.00059,-6.867 -6.82929,-14.852 -10.09687,-22.152 3.24032,-3.458 6.3331,-7.04 9.42306,-10.648 z"
     id="path11"
     style="display:inline;stroke-width:0.969416" /><path
     fill="#85acbe"
     d="m 611.59413,917.22 q 9.57154,10.061 18.57358,20.701 l -0.16728,0.345 q -5.75608,13.256 -11.03758,26.733 l -0.25561,0.114 c -1.37582,6.454 -8.16095,20.767 -10.97274,27.83 l -0.14378,0.357 c -2.47535,6.057 -4.69602,12.54 -7.5501,18.39 -7.25407,-10.4 -15.36897,-19.713 -23.98477,-28.832 -3.19615,-3.322 -6.43929,-6.765 -10.07243,-9.544 l 10.47653,-10.739 c 12.94907,-14.106 24.8174,-28.957 35.13418,-45.355 z"
     id="path12"
     style="display:inline;stroke-width:0.969416" /><path
     fill="#f3efec"
     d="m 598.97304,943.487 q 6.21469,6.429 12.18504,13.116 c 2.51106,2.823 4.82947,5.917 7.54916,8.51 -1.37582,6.454 -8.16095,20.767 -10.97274,27.83 -3.23374,-2.346 -6.3049,-6.379 -9.17777,-9.304 q -7.41478,-7.429 -15.00622,-14.653 c 4.67064,-8.782 10.50003,-16.858 15.42253,-25.499 z"
     id="path13"
     style="display:inline;stroke-width:0.969416" /><path
     fill="#58889e"
     d="m 565.98342,973.314 10.47653,-10.739 c 2.65391,1.777 4.99581,4.017 7.20145,6.381 -2.41427,4.73 -4.82007,9.402 -7.60555,13.902 -3.19615,-3.322 -6.43929,-6.765 -10.07243,-9.544 z"
     id="path14"
     style="display:inline;stroke-width:0.969416" /><path
     fill="#45768d"
     d="m 360.20706,963.183 c 4.39717,4.016 8.75864,8.126 13.2855,11.974 -5.05501,13.216 -11.6691,25.673 -17.24475,38.653 -1.42751,3.32 -3.17172,6.75 -4.30978,10.19 h -36.40004 c 2.35412,-4.73 4.34549,-9.55 7.20614,-13.99 6.06339,-10.737 14.72335,-20.47 22.4661,-29.839 5.24203,-5.286 10.05364,-11.36 14.99683,-16.988 z"
     id="path15"
     style="display:inline;stroke-width:0.969416" /><path
     fill="#58889e"
     d="m 373.49256,975.157 c 18.8292,14.852 28.43175,25.473 37.8144,48.843 h -59.36893 c 1.13806,-3.44 2.88227,-6.87 4.30978,-10.19 5.57565,-12.98 12.18974,-25.437 17.24475,-38.653 z"
     id="path16"
     style="display:inline;stroke-width:0.969416" /><path
     fill="#45768d"
     d="m 550.51671,987.822 c 4.73455,-5.113 10.40512,-9.722 15.46671,-14.508 3.63314,2.779 6.87628,6.222 10.07243,9.544 8.6158,9.119 16.7307,18.432 23.98477,28.832 2.9349,3.92 5.10294,8.2 7.74181,12.31 h -40.44199 c -5.87167,-11.88 -10.99905,-24.245 -16.82373,-36.178 z"
     id="path17"
     style="display:inline;stroke-width:0.969416" /><path
     fill="#85acbe"
     d="m 618.70724,965.113 0.25561,-0.114 c 1.04409,3.389 12.01964,16.423 14.94138,19.465 -0.75839,4.039 -1.12772,12.182 -2.84374,15.424 -2.38889,2.362 -3.7243,8.682 -5.17248,11.952 -1.53559,4.04 -2.95839,8.19 -4.6387,12.16 h -13.46688 c -2.63887,-4.11 -4.80691,-8.39 -7.74181,-12.31 2.85408,-5.85 5.07475,-12.333 7.5501,-18.39 l 0.14378,-0.357 c 2.81179,-7.063 9.59692,-21.376 10.97274,-27.83 z"
     id="path18"
     style="display:inline;stroke-width:0.969416" /><path
     fill="#58889e"
     d="m 607.59072,993.3 q 8.82348,9.63 18.29729,18.54 c -1.53559,4.04 -2.95839,8.19 -4.6387,12.16 h -13.46688 c -2.63887,-4.11 -4.80691,-8.39 -7.74181,-12.31 2.85408,-5.85 5.07475,-12.333 7.5501,-18.39 z"
     id="path19"
     style="display:inline;stroke-width:0.969416" /><path
     fill="#58889e"
     d="m 516.66156,1024 c 10.33463,-14.28 20.78673,-24.755 33.85515,-36.178 5.82468,11.933 10.95206,24.298 16.82373,36.178 z"
     id="path20"
     style="display:inline;stroke-width:0.969416" /><path
     fill="#58889e"
     d="m 313.12936,985.439 c 2.48569,6.557 6.30867,19.311 9.61477,24.571 -2.86065,4.44 -4.85202,9.26 -7.20614,13.99 h -7.59239 -21.98212 c -0.24716,-1.76 -0.37966,-3.56 -0.5648,-5.34 4.20452,-5.03 8.75958,-9.7 12.91618,-14.81 l 0.26783,0.04 c 0.75933,-2.71 12.09482,-16.132 14.54667,-18.451 z"
     id="path21"
     style="display:inline;stroke-width:0.969416" /><path
     fill="#85acbe"
     d="m 298.31486,1003.85 0.26783,0.04 q 4.40281,10.2 9.36291,20.11 h -21.98212 c -0.24716,-1.76 -0.37966,-3.56 -0.5648,-5.34 4.20452,-5.03 8.75958,-9.7 12.91618,-14.81 z"
     id="path22"
     style="display:inline;stroke-width:0.969416" /><path
     fill="#f3efec"
     d="m 285.59227,902.435 c 5.96941,-4.785 13.34189,-10.648 17.95146,-16.904 3.18769,7.156 6.4844,14.079 10.39383,20.833 -6.91481,7.656 -13.89823,15.379 -20.3394,23.495 -3.0176,-9.035 -5.50516,-18.217 -8.00589,-27.424 z"
     id="path23"
     style="display:inline;stroke-width:0.969416" /><path
     fill="#85acbe"
     d="m 276.64474,873.045 c 5.86509,-2.417 12.67278,-10.416 18.43168,-14.25 2.11917,9.061 4.92908,18.183 8.46731,26.736 -4.60957,6.256 -11.98205,12.119 -17.95146,16.904 -3.68201,-8.705 -3.7929,-21.495 -8.94753,-29.39 z"
     id="path24"
     style="display:inline;stroke-width:0.969416" /><path
     fill="#58889e"
     d="m 278.58442,947.501 c 0.36933,0.251 0.10338,0.112 0.87587,0.154 3.74497,-6.076 9.02365,-12.656 14.10498,-17.513 1.75173,4.059 9.96436,25.462 9.78956,28.499 -5.03246,5.523 -9.92489,12.489 -15.47892,17.287 -3.09842,-8.154 -5.45441,-16.971 -8.95411,-24.892 -0.19359,-1.147 -0.23118,-2.372 -0.33738,-3.535 z"
     id="path25"
     style="display:inline;stroke-width:0.969416" /><path
     fill="#f3efec"
     d="m 623.99719,894.736 c 5.69218,3.486 9.78017,10.435 14.85962,14.942 -0.23306,6.828 -6.10098,21.525 -8.6891,28.243 q -9.00204,-10.64 -18.57358,-20.701 6.67893,-10.944 12.40306,-22.484 z"
     id="path26"
     style="display:inline;stroke-width:0.969416" /><path
     fill="#85acbe"
     d="m 287.87591,975.928 c 5.55403,-4.798 10.44646,-11.764 15.47892,-17.287 l 0.39001,0.183 c 2.7366,6.803 6.25228,21.139 9.4973,26.276 l -0.11278,0.339 c -2.45185,2.319 -13.78734,15.741 -14.54667,18.451 l -0.26783,-0.04 c -0.80163,-3.62 -2.60034,-7.243 -3.95549,-10.678 q -3.30704,-8.397 -6.45527,-16.863 z"
     id="path27"
     style="display:inline;stroke-width:0.969416" /><path
     fill="#85acbe"
     d="m 276.57896,845.858 c 0.4868,-13.369 2.4199,-29.59 7.76906,-41.722 2.27988,-5.171 5.31251,-9.765 8.41187,-14.399 -0.64656,14.927 -0.65596,29.796 -0.61461,44.735 -4.74113,3.815 -10.04519,8.996 -15.56632,11.386 z"
     id="path28"
     style="display:inline;stroke-width:0.969416" /><path
     fill="#85acbe"
     d="m 623.99719,894.736 q 6.04271,-12.662 10.34779,-26.103 c 2.87475,2.705 11.48867,13.321 13.7319,13.93 l -0.65878,4.903 c -4.3032,7.042 -5.17625,14.608 -8.24553,22.032 l -0.31576,0.18 c -5.07945,-4.507 -9.16744,-11.456 -14.85962,-14.942 z"
     id="path29"
     style="display:inline;stroke-width:0.969416" /><path
     fill="#58889e"
     d="m 630.00043,938.266 c 3.12849,3.921 5.96001,8.005 8.77274,12.184 -1.30722,11.381 -3.19709,22.688 -4.86894,34.014 -2.92174,-3.042 -13.89729,-16.076 -14.94138,-19.465 q 5.2815,-13.477 11.03758,-26.733 z"
     id="path30"
     style="display:inline;stroke-width:0.969416" /><path
     fill="#f3efec"
     d="m 276.57896,845.858 c 5.52113,-2.39 10.82519,-7.571 15.56632,-11.386 0.4135,7.968 0.63528,16.702 2.93114,24.323 -5.7589,3.834 -12.56659,11.833 -18.43168,14.25 l -0.44639,-0.191 q -0.38906,-13.507 0.38061,-26.996 z"
     id="path31"
     style="display:inline;stroke-width:0.969416" /><path
     fill="#85acbe"
     d="m 285.59227,902.435 c 2.50073,9.207 4.98829,18.389 8.00589,27.424 l -0.0329,0.283 c -5.08133,4.857 -10.36001,11.437 -14.10498,17.513 -0.77249,-0.042 -0.50654,0.097 -0.87587,-0.154 q -1.12302,-16.696 -1.58069,-33.428 c -0.003,-1.116 -0.0545,-2.308 0.078,-3.414 0.43417,-3.603 5.89987,-6.313 8.51054,-8.224 z"
     id="path32"
     style="display:inline;stroke-width:0.969416" /><path
     fill="#85acbe"
     d="m 640.3689,845.041 c 2.36351,-14.362 4.8351,-34.608 4.67252,-48.942 8.68252,16.397 7.89406,40.316 6.5671,58.716 -4.05416,-2.505 -6.77103,-7.839 -11.23962,-9.774 z"
     id="path33"
     style="display:inline;stroke-width:0.969416" /><path
     fill="#f3efec"
     d="m 287.9041,976.309 q 3.14917,8.466 6.45527,16.863 c 1.35515,3.435 3.15386,7.058 3.95549,10.678 -4.1566,5.11 -8.71166,9.78 -12.91618,14.81 -1.57693,-11.86 -2.78171,-23.855 -3.84459,-35.78 z"
     id="path34"
     style="display:inline;stroke-width:0.969416" /><path
     fill="#f3efec"
     d="m 640.3689,845.041 c 4.46859,1.935 7.18546,7.269 11.23962,9.774 q -1.57505,13.901 -3.53164,27.748 c -2.24323,-0.609 -10.85715,-11.225 -13.7319,-13.93 2.46313,-7.752 4.3173,-15.621 6.02392,-23.592 z"
     id="path35"
     style="display:inline;stroke-width:0.969416" /><path
     fill="#85acbe"
     d="m 638.85681,909.678 0.31576,-0.18 c 0.0808,2.184 1.06194,4.334 2.55429,5.845 0.59487,0.602 1.2405,0.902 1.98479,1.242 q -2.32217,16.957 -4.93848,33.865 c -2.81273,-4.179 -5.64425,-8.263 -8.77274,-12.184 l 0.16728,-0.345 c 2.58812,-6.718 8.45604,-21.415 8.6891,-28.243 z"
     id="path36"
     style="display:inline;stroke-width:0.969416" /><path
     fill="#58889e"
     d="m 276.19835,872.854 0.44639,0.191 c 5.15463,7.895 5.26552,20.685 8.94753,29.39 -2.61067,1.911 -8.07637,4.621 -8.51054,8.224 -0.13251,1.106 -0.0808,2.298 -0.078,3.414 -0.69919,-4.703 -0.43511,-9.92 -0.53473,-14.696 -0.18607,-8.847 -0.43887,-17.672 -0.27065,-26.523 z"
     id="path37"
     style="display:inline;stroke-width:0.969416" /><path
     fill="#85acbe"
     d="m 278.9218,951.036 c 3.4997,7.921 5.85569,16.738 8.95411,24.892 l 0.0282,0.381 -6.35001,6.571 c -1.61546,-7.532 -2.09099,-23.536 -2.63229,-31.844 z"
     id="path38"
     style="display:inline;stroke-width:0.969416" /><path
     fill="#58889e"
     d="m 639.17257,909.498 c 3.06928,-7.424 3.94233,-14.99 8.24553,-22.032 -0.95669,9.736 -2.50073,19.414 -3.70645,29.119 -0.74429,-0.34 -1.38992,-0.64 -1.98479,-1.242 -1.49235,-1.511 -2.47347,-3.661 -2.55429,-5.845 z"
     id="path39"
     style="display:inline;stroke-width:0.969416" /><path
     fill="#85acbe"
     d="m 625.88801,1011.84 c 1.44818,-3.27 2.78359,-9.59 5.17248,-11.952 -0.69261,8.172 -2.98282,16.042 -4.16129,24.112 h -5.64989 c 1.68031,-3.97 3.10311,-8.12 4.6387,-12.16 z"
     id="path40"
     style="display:inline;stroke-width:0.969416" /><path
     fill="#ebbf9d"
     d="m 296.97475,513.17 c -1.41435,-6.578 -1.62956,-13.773 -2.10602,-20.49 -2.92268,-41.2 1.38897,-102.679 15.22518,-141.25 6.07654,-16.939 18.44201,-36.773 21.21715,-53.902 1.3091,-8.081 0.52251,-16.641 0.33362,-24.807 -0.47552,-20.552 -2.2921,-44.021 1.42845,-64.22 3.03451,-16.472 11.45859,-32.222 24.81834,-41.566 6.65074,-4.652 13.70746,-6.717 21.58271,-7.495 17.73907,-1.753 43.29513,2.394 61.81796,4.086 17.79451,1.625 36.15853,1.979 53.73313,5.444 18.06517,3.562 35.0402,11.408 52.81968,16.193 11.16069,3.003 22.47926,4.531 33.82132,6.474 q 11.52062,2.065 22.9388,4.697 c 24.14923,4.143 47.57107,10.083 69.33517,22.374 6.90636,3.9 13.47158,8.539 20.21817,12.745 5.43938,3.391 13.80144,7.096 17.47969,12.67 6.43084,9.747 8.3489,30.922 8.89773,42.94 0.58923,12.913 -0.96796,26.076 -2.74882,38.834 -1.1437,8.193 -2.5449,16.359 -2.66519,24.665 -0.20862,14.328 1.2499,28.828 1.70568,43.16 0.43324,13.649 0.0639,27.37 0.13909,41.028 0.18607,33.873 0.39658,67.003 -6.07184,100.346 -2.40581,12.407 -5.8651,24.23 -9.09038,36.39 1.96223,7.381 -11.33737,44.453 -14.33993,52.591 -1.40871,-8.688 -1.71695,-17.606 -3.6228,-26.176 l -0.12217,0.756 c -1.14746,7.308 -1.03375,14.774 -2.00735,22.107 -1.87672,14.13 -7.56231,32.821 -13.10037,46.112 -1.39086,-4.488 -2.76292,-8.304 -5.28901,-12.228 q -1.96506,4.836 -4.25246,9.509 -2.28645,4.673 -4.88303,9.158 -2.59658,4.487 -5.48919,8.762 -2.89354,4.276 -6.06714,8.32 c 2.58718,-13.181 5.76172,-26.182 8.55847,-39.308 1.0375,-4.87 1.58915,-9.872 2.64169,-14.704 q 0.26313,-4.82 -0.0639,-9.636 c -1.02341,-14.427 -5.4093,-20.795 -15.47422,-29.855 -18.50028,-10.843 -40.39876,-16.215 -61.48528,-16.902 -7.4082,-0.142 -14.28166,0.236 -21.46525,2.401 -18.18076,5.479 -26.94973,14.843 -46.74219,6.237 -0.30449,0.225 -0.70859,0.347 -0.9144,0.676 -1.35608,2.167 -1.80905,6.613 -4.77778,10.836 -5.19692,7.392 -12.95565,10.937 -21.27166,12.364 2.03554,-7.987 5.08791,-14.764 5.36138,-23.192 -14.44987,6.036 -24.4678,20.344 -39.76911,25.01 -3.73934,-10.155 -0.63153,-22.487 0.68321,-32.971 -11.58264,10.31 -22.19827,18.856 -36.26096,25.061 2.6041,-5.312 5.49577,-10.182 8.72763,-15.08 -3.24596,1.168 -6.44869,2.884 -9.64108,4.258 -5.67526,2.442 -11.6146,4.71 -17.07465,7.656 -17.92138,9.67 -15.20076,22.589 -20.0556,40.115 -2.22161,8.018 -5.64895,15.651 -8.05381,23.631 -5.1255,-9.971 -7.7888,-21.478 -13.49601,-30.949 -5.695,11.846 -8.61862,25.686 -12.54497,38.292 -4.94976,-14.756 -6.76915,-29.589 -7.40819,-45.141 -0.31013,-7.531 -0.36464,-15.085 -1.2217,-22.574 -8.20418,8.928 -12.48013,19.654 -17.709,30.612 -2.41614,-13.21 -3.11251,-26.872 -4.26936,-40.266 -0.4229,-4.891 -0.42478,-10.432 -1.47262,-15.2 -0.22367,-1.017 -0.20205,-1.338 -1.06006,-1.906 -3.55138,4.618 -7.01349,17.069 -8.81691,23.087 -3.22716,-12.002 -3.15856,-24.699 -3.29012,-37.067 -0.0836,-7.826 -1.05161,-45.832 1.23015,-51.102 0.19359,-0.445 1.12303,-1.22 1.48014,-1.61 z"
     id="path41"
     style="display:inline;stroke-width:0.969416" /><path
     fill="#ebbf9d"
     d="m 612.78294,395.317 c 26.04192,2.181 59.55405,6.099 77.52994,28.464 3.55796,4.426 6.78043,9.954 10.79888,13.814 q -0.95857,17.342 -0.61461,34.709 c -6.20247,-3.232 -15.09738,-9.203 -22.10147,-9.379 l -0.30918,0.551 c 3.87466,5.668 15.10865,9.857 20.78579,17.51 7.27663,9.807 4.35019,67.063 2.18308,81.111 -0.14848,0.962 -0.29509,1.615 -0.84955,2.414 0.42666,2.298 0.70389,4.831 1.59855,6.975 1.96223,7.381 -11.33737,44.453 -14.33993,52.591 -1.40871,-8.688 -1.71695,-17.606 -3.6228,-26.176 l -0.12217,0.756 c -1.14746,7.308 -1.03375,14.774 -2.00735,22.107 -1.87672,14.13 -7.56231,32.821 -13.10037,46.112 -1.39086,-4.488 -2.76292,-8.304 -5.28901,-12.228 q -1.96506,4.836 -4.25246,9.509 -2.28645,4.673 -4.88303,9.158 -2.59658,4.487 -5.48919,8.762 -2.89354,4.276 -6.06714,8.32 c 2.58718,-13.181 5.76172,-26.182 8.55847,-39.308 1.0375,-4.87 1.58915,-9.872 2.64169,-14.704 q 0.26313,-4.82 -0.0639,-9.636 c -1.02341,-14.427 -5.4093,-20.795 -15.47422,-29.855 -18.50028,-10.843 -40.39876,-16.215 -61.48528,-16.902 l -1.7959,-0.797 c 0.0949,-0.363 0.21051,-0.839 0.3449,-1.173 0.41819,-1.036 0.79504,-1.515 0.85425,-2.695 0.0131,-0.246 -0.003,-0.493 -0.005,-0.739 3.29013,-0.987 6.9665,-3.732 9.17683,-6.441 3.50722,-4.299 5.10764,-10.139 4.64434,-15.782 -0.61085,-7.43 -5.78146,-15.991 -11.05732,-20.725 -1.82784,-3.445 -1.39649,-16.684 -2.07688,-21.429 -3.34464,-23.294 -14.03262,-50.548 -9.18436,-74.103 1.66151,-0.839 3.65852,1.251 5.71191,0.713 3.03921,-2.503 4.67911,-7.072 6.36787,-10.652 -3.29952,1.431 -6.24382,3.623 -9.59597,5.069 l -0.6381,-0.512 -0.19454,0.568 c 2.356,-4.776 8.90807,-7.655 13.20281,-9.937 5.2486,-10.353 19.88738,-22.208 30.22013,-26.04 z"
     id="path42"
     style="display:inline;stroke-width:0.969416" /><path
     fill="#171514"
     d="m 605.30614,416.912 c 24.80706,-1.936 51.8442,8.901 70.42906,26.171 3.26099,3.03 6.20247,6.424 7.73429,10.811 -6.02768,0.658 -9.94557,-0.466 -15.0814,-3.793 l -2.75258,-1.884 c -7.52661,1.126 -19.2239,3.476 -26.39152,3.182 -1.05066,0.388 -2.06749,0.798 -3.17641,0.965 -5.50235,0.829 -25.18391,-0.287 -29.33487,-3.836 -0.12311,0.064 -0.2387,0.147 -0.36839,0.191 -2.61537,0.902 -20.48601,-3.255 -23.38895,-4.642 -2.54208,-0.084 -5.27586,0.193 -7.32644,-1.656 -0.40786,-1.291 -0.52345,-1.529 0.031,-2.844 2.65672,-6.294 19.81125,-14.602 25.78442,-16.768 2.88227,-1.046 5.95061,-1.316 8.82254,-2.371 l -0.10431,-0.455 c -1.90115,-0.828 -3.38693,-1.538 -4.87646,-3.071 z"
     id="path43"
     style="display:inline;stroke-width:0.969416" /><path
     fill="#f3efec"
     d="m 605.7826,428.697 c -2.16334,7.408 -2.16428,12.708 0.95011,19.831 -0.12311,0.064 -0.2387,0.147 -0.36839,0.191 -2.61537,0.902 -20.48601,-3.255 -23.38895,-4.642 6.32088,-7.15 14.35214,-11.698 22.80723,-15.38 z"
     id="path44"
     style="display:inline;stroke-width:0.969416" /><path
     fill="#f3efec"
     d="m 645.70772,435.544 c 6.91575,3.621 13.61254,7.985 19.92779,12.673 -7.52661,1.126 -19.2239,3.476 -26.39152,3.182 4.13592,-4.954 5.30687,-9.484 6.46373,-15.855 z"
     id="path45"
     style="display:inline;stroke-width:0.969416" /><path
     fill="#f3efec"
     d="m 618.35764,432.046 q 0.18232,-0.026 0.36745,-0.034 0.1842,-0.008 0.36839,0.003 0.1842,0.011 0.36651,0.04 0.18232,0.029 0.36087,0.077 0.1795,0.047 0.35336,0.112 0.17385,0.065 0.34207,0.147 0.16728,0.082 0.32704,0.18 0.15882,0.099 0.30918,0.213 0.15037,0.114 0.28945,0.243 0.13909,0.128 0.2669,0.27 0.12687,0.142 0.24152,0.296 0.11465,0.154 0.21426,0.319 0.10056,0.165 0.18514,0.339 0.0855,0.174 0.15506,0.356 0.0695,0.182 0.12217,0.37 0.0536,0.188 0.0893,0.38 0.0357,0.192 0.0554,0.388 0.0188,0.195 0.0207,0.391 9.4e-4,0.196 -0.015,0.392 -0.015,0.195 -0.0479,0.388 -0.0329,0.193 -0.0827,0.382 -0.0498,0.189 -0.11654,0.372 -0.0658,0.183 -0.14848,0.359 -0.0818,0.176 -0.17949,0.342 -0.0977,0.167 -0.20863,0.323 -0.11184,0.156 -0.23683,0.301 -0.12498,0.144 -0.26219,0.275 -0.13721,0.131 -0.28569,0.248 -0.14754,0.117 -0.30542,0.219 -0.15789,0.101 -0.32422,0.186 -0.16634,0.086 -0.33926,0.154 -0.17198,0.068 -0.35053,0.119 -0.2575,0.073 -0.52252,0.109 -0.26501,0.035 -0.5319,0.032 -0.2669,-0.003 -0.53097,-0.045 -0.26408,-0.042 -0.52064,-0.121 -0.25561,-0.08 -0.49995,-0.195 -0.2434,-0.116 -0.46989,-0.266 -0.22742,-0.15 -0.43229,-0.331 -0.20581,-0.182 -0.38624,-0.391 -0.18044,-0.209 -0.33268,-0.443 -0.15224,-0.233 -0.27254,-0.486 -0.12123,-0.254 -0.20862,-0.522 -0.0874,-0.269 -0.14003,-0.547 -0.0517,-0.279 -0.0686,-0.562 -0.016,-0.284 0.004,-0.567 0.0197,-0.283 0.0761,-0.561 0.0554,-0.278 0.1466,-0.545 0.0912,-0.267 0.21521,-0.519 0.12405,-0.251 0.27911,-0.482 0.15506,-0.231 0.33832,-0.438 0.18325,-0.207 0.39094,-0.385 0.20769,-0.178 0.43699,-0.325 0.22837,-0.146 0.47365,-0.259 0.24528,-0.112 0.50277,-0.187 0.25656,-0.076 0.52157,-0.114 z"
     id="path46"
     style="display:inline;stroke-width:0.969416" /><path
     fill="#3f3632"
     d="m 693.29665,549.947 c 3.15574,4.52 5.17906,9.271 6.90917,14.564 0.42666,2.298 0.70389,4.831 1.59855,6.975 1.96223,7.381 -11.33737,44.453 -14.33993,52.591 -1.40871,-8.688 -1.71695,-17.606 -3.6228,-26.176 l -0.12217,0.756 c -1.14746,7.308 -1.03375,14.774 -2.00735,22.107 -1.87672,14.13 -7.56231,32.821 -13.10037,46.112 -1.39086,-4.488 -2.76292,-8.304 -5.28901,-12.228 q -1.96506,4.836 -4.25246,9.509 -2.28645,4.673 -4.88303,9.158 -2.59658,4.487 -5.48919,8.762 -2.89354,4.276 -6.06714,8.32 c 2.58718,-13.181 5.76172,-26.182 8.55847,-39.308 1.0375,-4.87 1.58915,-9.872 2.64169,-14.704 0.11371,-0.036 0.23494,-0.051 0.34113,-0.108 1.04878,-0.566 1.77147,-2.718 2.28646,-3.797 7.99367,-13.045 16.41117,-28.123 17.49566,-43.979 0.31295,-4.573 -0.35805,-9.461 -0.7114,-14.031 4.74207,3.697 7.13942,7.937 9.74446,13.377 4.18666,-12.123 8.74266,-25.058 10.30926,-37.9 z"
     id="path47"
     style="display:inline;stroke-width:0.969416" /><path
     fill="#de9770"
     d="m 603.09581,553.608 c 16.9224,7.966 45.03181,30.293 51.78875,48.739 2.83622,7.741 2.53643,15.249 1.90961,23.406 -0.16352,2.13 -0.66254,4.615 -0.3355,6.727 -0.51499,1.079 -1.23768,3.231 -2.28646,3.797 -0.10619,0.057 -0.22742,0.072 -0.34113,0.108 q 0.26313,-4.82 -0.0639,-9.636 c -1.02341,-14.427 -5.4093,-20.795 -15.47422,-29.855 -3.04673,-9.195 -27.21005,-35.405 -35.19714,-43.286 z"
     id="path48"
     style="display:inline;stroke-width:0.969416" /><path
     fill="#de9770"
     d="m 668.38809,450.101 c 5.13583,3.327 9.05372,4.451 15.0814,3.793 0.94353,1.383 12.45005,0.294 15.12651,1.74 l 0.16634,0.777 c -0.0827,0.127 -0.14943,0.269 -0.24904,0.382 -2.27236,2.587 -13.26201,3.071 -16.67901,3.257 -3.8991,0.213 -8.58196,0.105 -11.54411,-3.03 -1.86356,-1.971 -1.8598,-4.28 -1.90209,-6.919 z"
     id="path49"
     style="display:inline;stroke-width:0.969416" /><path
     fill="#894a35"
     d="m 582.56281,421.357 c 7.45612,-2.493 14.91318,-4.211 22.74333,-4.445 1.48953,1.533 2.97531,2.243 4.87646,3.071 -7.14412,-0.323 -24.61629,1.995 -30.39399,6.186 -3.29952,1.431 -6.24382,3.623 -9.59597,5.069 l -0.6381,-0.512 -0.19454,0.568 c 2.356,-4.776 8.90807,-7.655 13.20281,-9.937 z"
     id="path50"
     style="display:inline;stroke-width:0.969416" /><path
     fill="#de9770"
     d="m 591.52256,467.934 c 5.60854,-0.189 11.70011,2.665 17.13198,4.056 6.20435,1.588 12.89832,2.672 19.25115,3.248 q 8.51054,0.781 17.04552,0.4 c 8.21545,-0.42 17.62911,-3.68 25.5288,-0.652 6.31712,2.421 13.35317,7.98 16.29276,14.521 l -0.50089,0.724 -1.09201,0.064 c -4.52123,-2.871 -8.32635,-6.989 -13.12199,-9.427 -7.89593,-4.015 -17.39229,0.484 -25.43201,2.248 -3.38128,0.742 -6.88286,1.1 -10.32993,1.239 -15.3201,0.617 -33.40876,-5.188 -44.77338,-16.421 z"
     id="path51"
     style="display:inline;stroke-width:0.969416" /><path
     fill="#3f3632"
     d="m 296.97475,513.17 c 1.47449,7.695 4.56163,14.427 6.51353,21.874 2.49133,-6.895 5.03434,-13.578 10.26321,-18.67 -0.13345,15.201 1.57881,31.837 7.49747,45.828 5.62827,-3.756 11.13344,-8.052 16.92147,-11.48 0.0272,11.62 0.75933,22.754 2.82494,34.171 5.8369,-7.12 13.57026,-13.769 21.54043,-17.977 -3.10123,14.736 -6.18931,28.852 -3.57206,44.064 l 1.57693,-4.873 c 1.19821,-2.549 2.39265,-5.117 3.71397,-7.597 9.15804,-17.179 21.5658,-26.326 39.26634,-31.446 20.89292,-1.945 43.56859,-2.37 64.13918,2.68 9.86381,2.131 18.62433,5.855 27.4168,11.054 4.47706,2.648 8.82912,5.638 13.52327,7.832 -0.30449,0.225 -0.70859,0.347 -0.9144,0.676 -1.35608,2.167 -1.80905,6.613 -4.77778,10.836 -5.19692,7.392 -12.95565,10.937 -21.27166,12.364 2.03554,-7.987 5.08791,-14.764 5.36138,-23.192 -14.44987,6.036 -24.4678,20.344 -39.76911,25.01 -3.73934,-10.155 -0.63153,-22.487 0.68321,-32.971 -11.58264,10.31 -22.19827,18.856 -36.26096,25.061 2.6041,-5.312 5.49577,-10.182 8.72763,-15.08 -3.24596,1.168 -6.44869,2.884 -9.64108,4.258 -5.67526,2.442 -11.6146,4.71 -17.07465,7.656 -17.92138,9.67 -15.20076,22.589 -20.0556,40.115 -2.22161,8.018 -5.64895,15.651 -8.05381,23.631 -5.1255,-9.971 -7.7888,-21.478 -13.49601,-30.949 -5.695,11.846 -8.61862,25.686 -12.54497,38.292 -4.94976,-14.756 -6.76915,-29.589 -7.40819,-45.141 -0.31013,-7.531 -0.36464,-15.085 -1.2217,-22.574 -8.20418,8.928 -12.48013,19.654 -17.709,30.612 -2.41614,-13.21 -3.11251,-26.872 -4.26936,-40.266 -0.4229,-4.891 -0.42478,-10.432 -1.47262,-15.2 -0.22367,-1.017 -0.20205,-1.338 -1.06006,-1.906 -3.55138,4.618 -7.01349,17.069 -8.81691,23.087 -3.22716,-12.002 -3.15856,-24.699 -3.29012,-37.067 -0.0836,-7.826 -1.05161,-45.832 1.23015,-51.102 0.19359,-0.445 1.12303,-1.22 1.48014,-1.61 z"
     id="path52"
     style="display:inline;stroke-width:0.969416" /><path
     fill="#de9770"
     d="m 604.60507,196.334 c 24.14923,4.143 47.57107,10.083 69.33517,22.374 6.90636,3.9 13.47158,8.539 20.21817,12.745 5.43938,3.391 13.80144,7.096 17.47969,12.67 6.43084,9.747 8.3489,30.922 8.89773,42.94 0.58923,12.913 -0.96796,26.076 -2.74882,38.834 -1.1437,8.193 -2.5449,16.359 -2.66519,24.665 -0.20862,14.328 1.2499,28.828 1.70568,43.16 0.43324,13.649 0.0639,27.37 0.13909,41.028 0.18607,33.873 0.39658,67.003 -6.07184,100.346 -2.40581,12.407 -5.8651,24.23 -9.09038,36.39 -0.89466,-2.144 -1.17189,-4.677 -1.59855,-6.975 0.55446,-0.799 0.70107,-1.452 0.84955,-2.414 2.16711,-14.048 5.09355,-71.304 -2.18308,-81.111 -5.67714,-7.653 -16.91113,-11.842 -20.78579,-17.51 l 0.30918,-0.551 c 7.00409,0.176 15.899,6.147 22.10147,9.379 q -0.34396,-17.368 0.61461,-34.709 c 0.40128,-0.719 0.69731,-1.34 0.88526,-2.158 2.7648,-12.076 -3.99308,-32.495 -10.25099,-42.82 0.99145,-5.966 -1.11363,-17.221 -1.67185,-23.694 q -0.93131,-11.524 -1.51679,-23.074 c -0.50653,-10.161 -0.87868,-20.417 -0.72362,-30.589 0.2434,-15.921 1.29312,-32.355 -0.27441,-48.198 -0.56574,-5.72 -1.87954,-11.335 -4.51747,-16.39 -10.61186,-20.33 -39.4214,-34.807 -58.81257,-44.079 -4.82478,-2.307 -15.16974,-6.092 -18.95513,-9.603 -0.22836,-0.212 -0.44639,-0.437 -0.66912,-0.656 z"
     id="path53"
     style="display:inline;stroke-width:0.969416" /><path
     fill="#de9770"
     d="m 556.87988,409.344 c 3.82204,-4.568 3.97334,-17.757 12.63049,-23.019 -0.57326,1.865 -1.2405,3.556 -0.9642,5.552 1.69628,1.946 5.04091,2.024 7.44954,2.117 12.29405,0.474 24.52513,-0.418 36.78723,1.323 -10.33275,3.832 -24.97153,15.687 -30.22013,26.04 -4.29474,2.282 -10.84681,5.161 -13.20281,9.937 l 0.19454,-0.568 0.6381,0.512 c 3.35215,-1.446 6.29645,-3.638 9.59597,-5.069 -1.68876,3.58 -3.32866,8.149 -6.36787,10.652 -2.05339,0.538 -4.0504,-1.552 -5.71191,-0.713 -4.84826,23.555 5.83972,50.809 9.18436,74.103 0.68039,4.745 0.24904,17.984 2.07688,21.429 5.27586,4.734 10.44647,13.295 11.05732,20.725 0.4633,5.643 -1.13712,11.483 -4.64434,15.782 -2.21033,2.709 -5.8867,5.454 -9.17683,6.441 0.002,0.246 0.0178,0.493 0.005,0.739 -0.0592,1.18 -0.43606,1.659 -0.85425,2.695 -0.13439,0.334 -0.24998,0.81 -0.3449,1.173 l 1.7959,0.797 c -7.4082,-0.142 -14.28166,0.236 -21.46525,2.401 -18.18076,5.479 -26.94973,14.843 -46.74219,6.237 -4.69415,-2.194 -9.04621,-5.184 -13.52327,-7.832 -8.79247,-5.199 -17.55299,-8.923 -27.4168,-11.054 l 0.83076,-2.11 c 3.7835,1.014 6.71558,-2.051 10.51976,-2.515 7.51533,0.025 14.02416,1.742 21.07431,4.458 2.82682,1.089 5.69217,2.436 8.63083,3.106 0.48492,-0.662 0.69731,-0.646 0.60145,-1.547 -0.11089,-1.048 -0.41914,-1.665 -0.85049,-2.593 1.9566,0.543 3.77975,1.691 5.6123,2.59 7.02946,3.446 13.86064,2.783 20.97562,-0.04 8.54344,-3.39 15.62929,-9.281 19.44287,-18.236 3.91507,-9.191 2.88321,-17.637 1.53558,-27.301 -0.57796,-4.138 -1.11175,-8.481 -2.47159,-12.419 -0.57608,-2.886 -0.67851,-5.816 -0.85801,-8.754 -0.88432,-3.931 -0.61085,-9.241 -0.78846,-13.314 -0.75088,-17.235 -2.07971,-40.592 -0.54601,-57.334 0.671,-7.332 1.89739,-18.035 5.5108,-24.391 z"
     id="path54"
     style="display:inline;stroke-width:0.969416" /><path
     fill="#3f3632"
     d="m 556.87988,409.344 c 0.74242,1.456 0.8129,2.802 0.85143,4.437 0.25186,10.752 -0.67381,21.687 -0.67945,32.481 l 0.031,34.895 c 0.003,7.392 0.5836,15.532 -0.72738,22.79 -1.25365,0.003 -2.53267,-0.208 -3.65194,0.436 -0.88432,-3.931 -0.61085,-9.241 -0.78846,-13.314 -0.75088,-17.235 -2.07971,-40.592 -0.54601,-57.334 0.671,-7.332 1.89739,-18.035 5.5108,-24.391 z"
     id="path55"
     style="display:inline;stroke-width:0.969416" /><path
     fill="#894a35"
     d="m 578.97007,531.64 c 5.27586,4.734 10.44647,13.295 11.05732,20.725 0.4633,5.643 -1.13712,11.483 -4.64434,15.782 -2.21033,2.709 -5.8867,5.454 -9.17683,6.441 l -2.16241,0.142 c -2.84468,-2.217 -4.77684,-2.407 -8.18726,-2.303 1.52242,-0.402 2.97343,-0.173 4.50055,-0.446 0.90124,-0.161 0.54318,-0.003 1.14088,-0.944 l -0.46237,-2.103 c 0.93507,-0.441 0.59112,-0.254 1.4839,-0.775 4.44416,-2.599 8.13369,-5.99 9.49635,-11.394 2.01205,-7.983 -1.66151,-15.063 -5.22041,-21.76 0.77155,-1.082 1.4604,-2.239 2.17462,-3.365 z"
     id="path56"
     style="display:inline;stroke-width:0.969416" /><path
     fill="#171514"
     d="m 565.85655,572.427 c -5.67526,0.565 -17.65919,5.755 -21.60433,5.155 l -0.2528,-0.711 c 1.76112,-2.621 5.08978,-4.332 7.76436,-5.74 6.67142,-3.51 12.08354,-4.764 19.27183,-2.197 l 0.46237,2.103 c -0.5977,0.941 -0.23964,0.783 -1.14088,0.944 -1.52712,0.273 -2.97813,0.044 -4.50055,0.446 z"
     id="path57"
     style="display:inline;stroke-width:0.969416" /><path
     fill="#171514"
     d="m 552.70355,504.383 c 1.11927,-0.644 2.39829,-0.433 3.65194,-0.436 -0.78377,2.9 -1.40119,6.564 -2.79393,9.19 -0.57608,-2.886 -0.67851,-5.816 -0.85801,-8.754 z"
     id="path58"
     style="display:inline;stroke-width:0.969416" /><path
     fill="#3f3632"
     d="m 569.51037,386.325 c 4.60486,-9.293 10.25193,-15.288 19.87328,-18.395 19.97101,-6.448 69.59078,1.416 87.86645,11.96 5.60384,3.234 10.49533,7.446 14.49593,12.727 6.25791,10.325 13.01579,30.744 10.25099,42.82 -0.18795,0.818 -0.48398,1.439 -0.88526,2.158 -4.01845,-3.86 -7.24092,-9.388 -10.79888,-13.814 -17.97589,-22.365 -51.48802,-26.283 -77.52994,-28.464 -12.2621,-1.741 -24.49318,-0.849 -36.78723,-1.323 -2.40863,-0.093 -5.75326,-0.171 -7.44954,-2.117 -0.2763,-1.996 0.39094,-3.687 0.9642,-5.552 z"
     id="path59"
     style="display:inline;stroke-width:0.969416" /><path
     fill="#de9770"
     d="m 439.95391,536.175 c -4.90371,4.703 -9.82058,9.368 -15.02219,13.699 -3.74498,3.117 -20.16555,14.345 -21.41074,17.19 -17.70054,5.12 -30.1083,14.267 -39.26634,31.446 -1.32132,2.48 -2.51576,5.048 -3.71397,7.597 -0.68509,-3.316 0.61367,-7.959 1.57693,-11.142 q 0.45109,-1.46 0.98864,-2.886 0.53755,-1.427 1.15874,-2.814 0.62212,-1.388 1.32507,-2.73 0.70295,-1.343 1.48389,-2.635 0.78189,-1.293 1.63896,-2.53 0.85707,-1.237 1.7865,-2.413 0.92943,-1.177 1.92652,-2.288 0.9971,-1.112 2.05904,-2.154 c 10.43894,-10.123 25.06549,-16.053 37.57851,-22.813 9.35163,-5.052 18.56042,-10.422 27.89044,-15.527 z"
     id="path60"
     style="display:inline;stroke-width:0.969416" /><path
     fill="#894a35"
     d="m 468.49092,567.634 c -1.60889,-1.116 -3.22999,-2.232 -4.78248,-3.436 -5.42623,-4.205 -9.5161,-9.908 -10.51225,-17.128 -0.99428,-7.214 1.24237,-14.577 5.31815,-20.333 3.5354,-4.994 7.09525,-7.315 12.78836,-8.189 -4.13498,4.482 -7.99743,9.988 -9.90703,15.99 -1.76301,5.541 -1.59949,11.338 0.95386,16.57 2.04494,4.192 5.91584,9.166 10.21716,10.698 2.20658,2.115 3.37565,3.323 6.44399,3.313 -3.80418,0.464 -6.73626,3.529 -10.51976,2.515 z"
     id="path61"
     style="display:inline;stroke-width:0.969416" /><path
     fill="url(#gradient_0)"
     d="m 472.56669,561.806 c 10.21998,-3.735 18.88183,-3 28.5605,2.038 2.46219,1.281 4.95728,3.675 7.33959,4.699 0.43135,0.928 0.7396,1.545 0.85049,2.593 0.0959,0.901 -0.11653,0.885 -0.60145,1.547 -2.93866,-0.67 -5.80401,-2.017 -8.63083,-3.106 -7.05015,-2.716 -13.55898,-4.433 -21.07431,-4.458 -3.06834,0.01 -4.23741,-1.198 -6.44399,-3.313 z"
     id="path62"
     style="display:inline;fill:url(#gradient_0);stroke-width:0.969416" /><path
     fill="#3f3632"
     d="m 461.54979,377.912 c -26.56443,-4.4 -59.11613,-6.686 -85.26142,1.11 -10.953,3.266 -21.03107,8.256 -31.18057,13.609 -1.27433,0.672 -2.37574,1.284 -3.76189,0.795 -0.53661,-1.768 0.003,-3.076 0.79974,-4.682 2.34472,-4.717 5.85476,-8.83 9.09226,-12.876 8.65808,-10.82 18.68353,-23.079 32.00193,-27.201 4.9178,-1.522 9.98222,-2.25 15.07952,-2.652 16.49387,-1.298 73.51243,-0.851 86.93044,6.95 6.08876,3.54 8.89867,10.852 10.59871,17.611 q 1.40401,5.714 2.66894,11.465 c -5.39427,1.673 -29.67318,-3.257 -36.96766,-4.129 z"
     id="path63"
     style="display:inline;stroke-width:0.969416" /><path
     fill="#171514"
     d="m 412.38299,400.118 c 0.91346,-1.109 1.95378,-1.748 3.25066,-2.239 6.7917,-2.572 21.37597,-2.804 27.87635,0.599 1.65023,0.256 3.33053,0.453 4.96667,0.792 1.44442,1.406 4.26279,4.527 6.15266,4.864 9.48509,6.578 19.45321,15.487 23.00553,27.326 l 0.24904,0.814 0.1419,0.491 c -2.58624,-0.553 -7.23527,-0.904 -9.31874,-2.476 -8.92498,-1.23 -18.56042,-0.26 -27.55964,0.059 -0.51218,0.147 -1.02247,0.302 -1.54028,0.424 -6.19777,1.467 -27.12453,-1.295 -32.51317,-4.958 -7.32643,-2.536 -15.63022,-3.789 -22.59296,-7.275 l -6.57086,1.932 c -4.31918,0.99 -8.09235,2.021 -12.52712,1.336 10.80922,-12.455 31.7153,-19.226 46.97996,-21.689 z"
     id="path64"
     style="display:inline;stroke-width:0.969416" /><path
     fill="#f3efec"
     d="m 444.39526,405.559 c 8.54343,5.194 19.70788,15.431 24.3118,24.73 -8.92498,-1.23 -18.56042,-0.26 -27.55964,0.059 4.05792,-5.351 5.19504,-11.683 4.46578,-18.411 q -0.3308,-3.249 -1.21794,-6.378 z"
     id="path65"
     style="display:inline;stroke-width:0.969416" /><path
     fill="#f3efec"
     d="m 384.50101,418.539 q 10.38443,-3.728 20.97562,-6.722 c -0.84767,5.303 -0.38624,9.003 1.61734,13.997 -7.32643,-2.536 -15.63022,-3.789 -22.59296,-7.275 z"
     id="path66"
     style="display:inline;stroke-width:0.969416" /><path
     fill="#de9770"
     d="m 412.38299,400.118 c 0.91346,-1.109 1.95378,-1.748 3.25066,-2.239 6.7917,-2.572 21.37597,-2.804 27.87635,0.599 q -15.60016,0.03 -31.12701,1.64 z"
     id="path67"
     style="display:inline;stroke-width:0.969416" /><path
     fill="#f3efec"
     d="m 421.47055,410.354 q 0.15224,-0.052 0.30824,-0.088 0.15601,-0.037 0.31389,-0.057 0.15882,-0.021 0.31858,-0.025 0.15882,-0.005 0.31858,0.007 0.15882,0.011 0.3167,0.039 0.15694,0.027 0.312,0.07 0.15413,0.043 0.30355,0.102 0.15036,0.058 0.29415,0.131 0.14378,0.073 0.28099,0.161 0.1372,0.087 0.26501,0.188 0.12875,0.1 0.2481,0.214 0.11935,0.113 0.22743,0.237 0.10807,0.125 0.2058,0.26 0.0968,0.135 0.18138,0.279 0.0846,0.144 0.156,0.296 0.0714,0.152 0.12875,0.31 0.0573,0.158 0.10055,0.322 0.0432,0.163 0.0724,0.33 0.0282,0.168 0.0423,0.337 0.0131,0.169 0.0122,0.339 -0.002,0.17 -0.0179,0.339 -0.0169,0.168 -0.0479,0.335 -0.031,0.167 -0.0771,0.329 -0.0461,0.163 -0.1062,0.32 -0.0611,0.157 -0.13438,0.308 -0.0742,0.15 -0.1607,0.293 -0.0874,0.142 -0.18608,0.275 -0.0996,0.133 -0.20956,0.256 -0.1109,0.123 -0.23213,0.234 -0.12029,0.11 -0.25092,0.209 -0.12968,0.098 -0.26783,0.183 -0.13815,0.084 -0.28381,0.155 -0.20863,0.102 -0.42853,0.172 -0.21991,0.071 -0.44733,0.109 -0.22649,0.038 -0.45579,0.043 -0.23024,0.005 -0.45767,-0.023 -0.22836,-0.028 -0.45109,-0.089 -0.22272,-0.06 -0.43511,-0.152 -0.21239,-0.093 -0.41162,-0.215 -0.19923,-0.121 -0.3806,-0.271 -0.18138,-0.15 -0.34302,-0.324 -0.1607,-0.174 -0.29791,-0.37 -0.1372,-0.196 -0.2481,-0.41 -0.11089,-0.214 -0.19359,-0.441 -0.0836,-0.228 -0.13626,-0.466 -0.0536,-0.238 -0.0752,-0.481 -0.0225,-0.243 -0.0141,-0.487 0.009,-0.244 0.0489,-0.485 0.0395,-0.241 0.10995,-0.473 0.0695,-0.233 0.16916,-0.453 0.0987,-0.221 0.2246,-0.425 0.12687,-0.204 0.27723,-0.388 0.15131,-0.184 0.32422,-0.345 0.17292,-0.16 0.36463,-0.295 0.19172,-0.134 0.3994,-0.239 0.20675,-0.105 0.42572,-0.18 z"
     id="path68"
     style="display:inline;stroke-width:0.969416" /><path
     fill="#de9770"
     d="m 461.54979,377.912 c 7.29448,0.872 31.57339,5.802 36.96766,4.129 q 0.83452,1.811 1.58539,3.663 0.75182,1.852 1.41811,3.74 0.66724,1.888 1.24707,3.808 0.58078,1.92 1.07322,3.868 0.49244,1.947 0.89654,3.918 0.4041,1.971 0.71798,3.96 0.31388,1.989 0.53849,3.992 0.22366,2.003 0.35617,4.015 0.13251,2.012 0.17386,4.028 0.0414,2.017 -0.008,4.033 -0.0498,2.016 -0.19077,4.028 -0.14097,2.011 -0.37309,4.013 -0.23212,2.002 -0.5554,3.989 -0.32234,1.988 -0.73396,3.956 -0.41256,1.969 -0.91346,3.914 -0.50089,1.946 -1.08919,3.863 c -1.50833,4.879 -4.55882,13.713 -9.04339,16.215 -1.19914,0.669 -2.85971,0.954 -4.17821,0.521 -0.58547,-0.193 -0.62494,-0.253 -1.07979,-0.555 -1.86732,-7.3 11.34018,-20.836 2.67082,-37.234 -3.4076,-0.356 -5.89235,-0.794 -8.20136,-3.72 1.21136,0.031 1.88142,0.131 2.94523,-0.582 -0.4821,-1.984 -3.40853,-4.098 -4.88867,-5.539 q 0.15224,-1.695 0.10056,-3.397 c -0.20957,-8.987 -5.63298,-19.039 -11.54036,-25.215 -2.29397,-2.399 -4.98641,-4.327 -7.25971,-6.732 z"
     id="path69"
     style="display:inline;stroke-width:0.969416" /><path
     fill="#de9770"
     d="m 370.39602,448.609 c 10.90601,-0.763 23.07413,3.164 33.80535,5.164 q 6.26355,1.124 12.59195,1.719 6.32746,0.596 12.67936,0.658 6.35283,0.062 12.68969,-0.409 6.33686,-0.471 12.61921,-1.473 c -8.14779,6.41 -16.82655,7.82 -26.76366,8.278 -6.79923,0.305 -13.40674,0.064 -20.12044,-1.202 -12.6662,-2.39 -27.93556,-9.221 -40.8226,-6.193 -6.39512,1.503 -12.60323,5.545 -18.6497,8.233 5.08133,-8.154 13.51669,-11.874 21.97084,-14.775 z"
     id="path70"
     style="display:inline;stroke-width:0.969416" /><path
     fill="#de9770"
     d="m 369.72409,427.38 c -7.97206,-0.702 -26.51274,-1.237 -32.7669,-4.757 l -0.71141,-1.018 c 0.52815,-1.024 0.18702,-0.825 1.10423,-1.132 6.92421,-2.319 20.41459,3.116 28.05302,1.334 4.43477,0.685 8.20794,-0.346 12.52712,-1.336 -0.13157,0.584 -0.10338,1.237 -0.39565,1.751 -0.96326,1.694 -5.68372,4.71 -7.33677,5.79 -5.02494,3.28 -33.35707,18.369 -38.43558,18.026 l -0.41632,-0.765 c 1.74891,-4.675 7.16761,-8.45 11.34582,-10.369 8.49927,-3.905 18.00972,-5.48 27.03244,-7.524 z"
     id="path71"
     style="display:inline;stroke-width:0.969416" /><path
     fill="#894a35"
     d="m 448.47667,399.27 c 11.44732,1.105 23.46226,7.123 32.40791,14.665 1.48014,1.441 4.40657,3.555 4.88867,5.539 -1.06381,0.713 -1.73387,0.613 -2.94523,0.582 -7.14318,-5.762 -18.60929,-16.368 -28.19869,-15.922 -1.88987,-0.337 -4.70824,-3.458 -6.15266,-4.864 z"
     id="path72"
     style="display:inline;stroke-width:0.969416" /><path
     fill="#3f3632"
     d="m 394.40428,625.247 c 8.5378,15.12 33.4971,41.624 48.1791,50.409 12.62955,7.557 27.57938,12.276 41.57817,15.979 31.16272,8.241 61.47494,6.301 89.3964,-11.739 12.42562,-8.028 32.11752,-26.829 40.83951,-39.255 1.72729,10.722 0.34302,20.753 -2.00077,31.258 0.94071,0.08 0.53191,-0.077 1.24802,0.4 0.64468,2.561 0.16351,5.147 0.53002,7.776 0.57514,4.121 1.4059,8.22 1.79308,12.368 1.52055,16.29 1.06664,34.741 -1.93592,50.794 -2.49415,-5.228 -4.29568,-11.824 -8.02656,-16.191 l -0.78001,-0.225 c -1.29688,2.918 -2.39453,20.985 -3.07022,25.734 q -1.73293,12.101 -5.02024,23.831 c -2.07689,-5.328 -4.04759,-10.752 -7.00222,-15.617 -1.51021,20.462 -6.66389,44.398 -21.67011,58.799 -0.56668,0.545 -1.18035,0.974 -1.81752,1.418 -5.51362,6.538 -11.23681,10.458 -18.86396,13.783 -2.1408,1.421 -4.71012,2.242 -7.06236,3.202 0.96796,-5.798 1.38991,-11.227 1.1249,-17.113 -6.32088,8.593 -12.22263,14.764 -22.27815,17.955 -22.42757,7.119 -52.10827,1.81 -72.56421,-10.087 -6.35189,-2.325 -14.79383,-5.28 -19.55093,-10.434 -3.00068,-1.633 -5.89517,-4.76 -8.26527,-7.297 -17.13197,-18.339 -15.39528,-44.221 -15.21578,-68.169 -6.71371,8.552 -11.52062,19.967 -16.38486,29.809 -7.28415,-21.722 -5.99385,-50.917 -3.19146,-73.654 -6.0023,6.324 -10.7876,13.436 -15.77307,20.658 -1.63895,-17.978 2.49791,-42.526 12.36923,-57.561 2.29773,-3.5 6.27859,-9.791 10.27637,-10.538 0.52533,-8.998 1.40307,-17.463 3.13882,-26.293 z"
     id="path73"
     style="display:inline;stroke-width:0.969416" /><path
     fill="#ebbf9d"
     d="m 394.40428,625.247 c 8.5378,15.12 33.4971,41.624 48.1791,50.409 12.62955,7.557 27.57938,12.276 41.57817,15.979 31.16272,8.241 61.47494,6.301 89.3964,-11.739 12.42562,-8.028 32.11752,-26.829 40.83951,-39.255 1.72729,10.722 0.34302,20.753 -2.00077,31.258 -6.88662,20.846 -15.05133,39.976 -27.03713,58.122 -1.45946,-1.943 -2.86817,-3.795 -4.61144,-5.469 -7.739,16.381 -14.96675,37.136 -29.84235,47.648 -3.88124,-7.879 -8.04065,-16.453 -14.14445,-22.65 3.25912,-1.772 6.39137,-3.575 9.34318,-5.888 7.53224,-5.898 22.48771,-21.178 24.63884,-31.362 0.1654,-0.783 0.13063,-0.887 0.10996,-1.581 -1.12115,-0.095 -1.50269,0.47 -2.40205,1.118 -0.0132,0.023 -0.0235,0.05 -0.0413,0.069 -10.57803,11.734 -35.23755,15.351 -49.80114,15.873 -17.11882,0.613 -43.42763,-3.623 -59.04376,-11.24 -9.45125,-4.611 -17.32275,-10.599 -24.86721,-18.136 l -0.42666,0.247 c 1.64554,4.096 2.54584,8.522 4.17539,12.647 5.08791,12.877 14.6181,22.946 24.62287,31.639 -6.72592,4.853 -13.1201,9.931 -19.46918,15.325 -14.48277,-13.487 -15.45355,-31.431 -25.14256,-47.582 l -6.77009,15.386 c -13.28362,-25.281 -20.20314,-44.903 -20.4221,-74.525 0.52533,-8.998 1.40307,-17.463 3.13882,-26.293 z"
     id="path74"
     style="display:inline;stroke-width:0.969416" /><path
     fill="#de9770"
     d="m 429.24431,689.539 c 4.37087,4.043 8.68628,8.206 13.46782,11.698 22.11369,16.149 50.52007,24.418 77.18599,22.432 18.80194,-1.401 36.51094,-6.521 51.98704,-18.284 -1.30722,1.778 -2.87193,3.561 -3.66885,5.666 l 0.23494,0.786 c -0.0132,0.023 -0.0235,0.05 -0.0413,0.069 -10.57803,11.734 -35.23755,15.351 -49.80114,15.873 -17.11882,0.613 -43.42763,-3.623 -59.04376,-11.24 -9.45125,-4.611 -17.32275,-10.599 -24.86721,-18.136 l -0.42666,0.247 c -1.81751,-2.939 -3.24784,-6.137 -5.02682,-9.111 z"
     id="path75"
     style="display:inline;stroke-width:0.969416" /><path
     fill="#565251"
     d="m 429.1447,762.9 c 1.30628,18.112 3.3343,35.278 10.43894,52.059 1.75925,4.156 6.50978,9.787 7.41759,13.767 -6.35189,-2.325 -14.79383,-5.28 -19.55093,-10.434 -6.23819,-14.488 -9.81306,-27.519 -4.44417,-43.18 q 1.12208,-3.268 2.66424,-6.337 1.54216,-3.068 3.47433,-5.875 z"
     id="path76"
     style="display:inline;stroke-width:0.969416" /><path
     fill="#565251"
     d="m 547.78105,834.769 c 3.50063,-7.643 8.33386,-14.55 11.5084,-22.403 4.20734,-10.407 6.58965,-21.971 11.55915,-31.922 2.92738,16.263 1.20666,25.32 -4.20359,40.542 -5.51362,6.538 -11.23681,10.458 -18.86396,13.783 z"
     id="path77"
     style="display:inline;stroke-width:0.969416" /><path
     fill="#565251"
     d="m 523.30008,801.303 c 0.85613,1.416 1.16062,3.208 1.53182,4.825 1.51585,6.584 2.39453,13.979 -1.26868,20.006 -3.5138,5.779 -9.29337,7.289 -15.1688,8.766 l -1.37582,-0.026 c -0.30449,-1.268 1.12584,-2.914 1.8363,-3.886 7.6234,-10.422 10.89944,-16.972 14.44518,-29.685 z"
     id="path78"
     style="display:inline;stroke-width:0.969416" /><path
     fill="#565251"
     d="m 464.93765,788.895 c 0.14755,0.788 0.12405,0.458 0.12311,1.244 -0.0113,12.445 1.51491,24.495 3.93575,36.648 l -3.66979,-3.27 c -3.64443,-3.67 -6.5859,-8.749 -7.36873,-14.067 -1.18317,-8.045 2.62196,-14.461 6.97966,-20.555 z"
     id="path79"
     style="display:inline;stroke-width:0.969416" /><path
     fill="#ebbf9d"
     d="m 215.7252,415.535 c 1.80624,-6.776 4.31448,-13.926 10.37128,-17.658 5.05408,-3.113 11.00281,-3.05 16.46756,-1.324 8.81785,2.787 20.81869,10.006 25.31736,18.906 4.02879,7.971 5.53806,43.384 5.78521,54.292 0.20393,8.994 -0.29602,18.024 -0.39,27.023 -0.27911,26.783 -0.84673,53.801 0.0555,80.564 -15.00246,-2.378 -26.65653,-10.435 -35.66233,-23.466 -10.60904,-15.35 -15.45449,-39.735 -19.10643,-58.151 -3.42357,-18.663 -8.20981,-62.792 -2.8381,-80.186 z"
     id="path80"
     style="display:inline;stroke-width:0.969416" /><path
     fill="#894a35"
     d="m 216.66873,415.874 c 2.77044,-2.571 5.21665,-3.771 8.96351,-3.575 8.83946,0.461 17.29455,7.32 22.86644,14.156 9.19563,11.283 15.80408,26.584 17.2673,41.446 -6.77479,7.209 -15.94411,12.099 -16.12736,23.695 -0.24058,15.208 20.27362,28.84 15.54283,35.124 -1.25084,0.823 -2.34097,0.947 -3.75156,0.6 -5.47697,-1.345 -10.71054,-8.525 -13.42835,-13.48 -4.59077,-8.37 -7.10465,-19.944 -4.58043,-29.455 2.30619,-8.692 8.58385,-15.102 14.51472,-21.17 -1.53558,-11.139 -5.87261,-20.241 -12.27431,-29.187 -4.65373,-6.882 -10.75565,-11.722 -18.81792,-12.876 -3.33712,-0.478 -6.7372,-0.775 -9.82998,-2.285 -0.70764,-1.155 -0.46236,-1.649 -0.34489,-2.993 z"
     id="path81"
     style="display:inline;stroke-width:0.969416" /><path
     fill="#de9770"
     d="m 215.7252,415.535 0.94353,0.339 c -0.11747,1.344 -0.36275,1.838 0.34489,2.993 3.09278,1.51 6.49286,1.807 9.82998,2.285 8.06227,1.154 14.16419,5.994 18.81792,12.876 -7.7202,3.084 -13.2263,9.853 -16.5559,17.727 -2.0891,4.941 -3.44519,10.239 -4.63494,15.493 -1.24707,5.511 -3.651,25.474 -5.90738,28.473 -3.42357,-18.663 -8.20981,-62.792 -2.8381,-80.186 z"
     id="path82"
     style="display:inline;stroke-width:0.969416" /><path
     fill="#f3efec"
     d="m 406.17676,619.502 c 18.45705,2.958 37.01559,4.87 55.45667,7.754 7.67884,1.201 15.2515,3.077 22.90873,4.409 9.3319,1.624 18.94761,2.603 28.3763,3.355 10.96616,0.875 21.86371,-0.164 32.83551,0.005 q 25.35776,0.645 50.54731,3.808 c -2.81179,3.489 -5.2486,7.161 -7.25125,11.241 -1.33353,4.703 -2.59564,11.076 -5.80119,14.731 -2.05903,2.347 -4.52874,0.88 -6.66014,2.615 -3.2967,2.682 -7.06987,8.448 -11.57512,8.303 -2.95745,-0.094 -4.52311,-1.683 -6.49192,-3.842 -1.80436,2.298 -3.91884,4.638 -6.46655,5.984 -3.26663,1.726 -5.92148,0.121 -9.0603,-1.051 -1.43691,0.321 -2.37292,2.067 -3.31739,3.269 -8.18256,2.251 -20.23133,3.395 -28.08121,-0.602 q -1.6991,0.537 -3.43861,0.894 -1.74046,0.357 -3.50534,0.53 -1.76489,0.173 -3.53729,0.16 -1.7724,-0.012 -3.53447,-0.21 c -6.63476,-0.735 -13.62288,-3.396 -17.91386,-9.039 -4.40939,0.322 -9.96718,1.281 -13.98187,-1.195 -3.12567,-1.927 -3.99684,-4.825 -4.7806,-8.376 -1.62204,1.377 -3.37753,2.684 -5.33507,3.458 -3.05894,1.209 -6.44399,1.325 -9.43997,-0.148 -4.55976,-2.242 -6.49286,-6.863 -7.99743,-11.62 -1.48107,1.897 -3.94515,5.204 -6.27859,5.906 -4.54002,1.365 -4.2346,-9.804 -7.59051,-12.05 -1.38428,0.575 -2.43118,1.086 -3.85869,0.405 -4.62178,-2.205 -7.18171,-11.412 -8.90336,-16.221 -2.23571,-3.998 -4.01845,-8.026 -5.32379,-12.473 z"
     id="path83"
     style="display:inline;stroke-width:0.969416" /><path
     fill="#de9770"
     d="m 406.17676,619.502 c 18.45705,2.958 37.01559,4.87 55.45667,7.754 7.67884,1.201 15.2515,3.077 22.90873,4.409 9.3319,1.624 18.94761,2.603 28.3763,3.355 10.96616,0.875 21.86371,-0.164 32.83551,0.005 q 25.35776,0.645 50.54731,3.808 c -2.81179,3.489 -5.2486,7.161 -7.25125,11.241 -0.46331,-1.776 -1.03093,-4.698 -2.74506,-5.572 -0.70013,-0.358 -1.25929,-0.358 -1.98385,-0.152 -3.39821,0.967 -5.9478,6.566 -7.55574,9.604 -0.45767,-1.529 -0.91346,-3.067 -1.44724,-4.568 -0.88057,-2.481 -2.91423,-5.9 -5.42153,-6.811 -1.2762,-0.465 -2.04211,-0.414 -3.24596,0.237 -3.60307,1.949 -4.86236,8.202 -6.00982,11.893 -1.11738,-3.056 -2.24134,-6.433 -4.91216,-8.348 -1.35327,-0.97 -2.89919,-1.347 -4.49868,-0.946 -4.24775,1.066 -7.32643,6.071 -9.5518,9.749 -0.77061,-4.284 -1.26681,-8.158 -4.85202,-10.916 -2.70654,-2.081 -6.24194,-2.264 -9.42776,-1.667 -5.8463,1.095 -9.91361,4.238 -13.13796,9.363 -1.51209,-2.317 -3.01008,-4.855 -4.98359,-6.756 -3.83238,-3.694 -8.75206,-5.932 -13.98375,-5.564 -4.36147,0.306 -7.67039,2.421 -10.44083,5.925 -0.624,0.79 -0.9783,1.304 -1.79308,1.87 -2.13703,-4.312 -2.86441,-9.628 -7.20708,-12.314 q -0.29791,-0.188 -0.61273,-0.341 -0.31388,-0.153 -0.6428,-0.27 -0.32798,-0.117 -0.66536,-0.197 -0.33831,-0.079 -0.68227,-0.12 -0.34395,-0.041 -0.68979,-0.042 -0.34583,-0.002 -0.69073,0.035 -0.34395,0.037 -0.68227,0.113 -0.33925,0.075 -0.66817,0.189 c -3.84742,1.289 -5.91115,4.978 -7.72772,8.515 -1.80153,-4.684 -3.69611,-8.886 -8.12899,-11.382 -2.5449,-1.433 -5.53618,-1.925 -8.30474,-0.954 -4.28628,1.504 -6.03425,5.414 -7.95795,9.36 -0.43982,-3.813 -1.49987,-10.365 -4.8041,-12.676 -1.1155,-0.78 -1.40777,-0.633 -2.64451,-0.388 -3.14352,2.552 -3.87936,8.552 -5.12643,12.477 0.29508,-2.806 0.91251,-5.9 0.45296,-8.695 -1.47543,-1.367 -1.70849,-0.284 -3.03545,-0.911 -2.12763,-1.004 -3.82861,-3.812 -6.21187,-4.962 -1.38239,-0.668 -2.18214,-0.554 -3.57487,-0.02 -1.96506,2.105 -1.81094,4.385 -1.95378,7.143 -2.23571,-3.998 -4.01845,-8.026 -5.32379,-12.473 z"
     id="path84"
     style="display:inline;stroke-width:0.969416" /><path
     fill="#de9770"
     d="m 726.69977,500.646 c 0.33644,-7.61 0.36933,-24.297 4.25339,-30.555 3.92353,-6.32 13.5383,-10.224 20.20314,-11.903 2.03648,0.696 3.82486,1.425 5.5155,2.867 5.22605,4.456 6.7466,11.133 7.33771,17.866 0.22178,1.274 0.37027,2.358 0.34208,3.662 -0.71047,14.749 -2.71781,29.943 -6.76728,44.1 -6.0756,21.24 -33.7903,77.997 -47.41788,95.356 q 3.26757,-14.646 5.92993,-29.43 2.66237,-14.785 4.71482,-29.679 2.05152,-14.894 3.48936,-29.869 1.43785,-14.975 2.2592,-30.003 z"
     id="path85"
     style="display:inline;stroke-width:0.969416" /><path
     fill="#de9770"
     d="m 726.69977,500.646 c 0.33644,-7.61 0.36933,-24.297 4.25339,-30.555 3.92353,-6.32 13.5383,-10.224 20.20314,-11.903 2.03648,0.696 3.82486,1.425 5.5155,2.867 5.22605,4.456 6.7466,11.133 7.33771,17.866 -3.41888,-2.301 -6.29645,-2.861 -10.32148,-1.94 -11.61553,2.657 -18.74837,15.725 -26.98826,23.665 z"
     id="path86"
     style="display:inline;stroke-width:0.969416" /><path
     fill="#894a35"
     d="m 726.69977,500.646 c 8.23989,-7.94 15.37273,-21.008 26.98826,-23.665 4.02503,-0.921 6.9026,-0.361 10.32148,1.94 0.22178,1.274 0.37027,2.358 0.34208,3.662 -0.11936,0.083 -0.23589,0.169 -0.35618,0.249 -3.31174,2.199 -7.87901,2.064 -11.5911,3.288 -8.88363,2.931 -15.32104,13.332 -21.41732,20.258 -1.55719,-1.015 -3.11063,-1.954 -4.42725,-3.32 z"
     id="path87"
     style="display:inline;stroke-width:0.969416" /><path
     fill="#3f3632"
     d="m 573.44048,75.2118 c 9.5565,-0.5816 18.44295,0.6317 27.85661,2.1656 -8.3395,2.5221 -17.00605,3.6007 -25.38032,6.3123 -24.90574,8.0637 -48.09264,24.7953 -66.73013,43.9693 -4.63775,4.882 -9.53113,9.765 -13.51011,15.276 3.70739,-11.719 11.05074,-23.317 18.52096,-32.685 15.85389,-19.8825 34.42747,-32.8331 59.24299,-35.0382 z"
     id="path88"
     style="display:inline;stroke-width:0.969416" /><path
     fill="#3f3632"
     d="m 608.05684,100.207 c 8.58761,-0.8395 18.16103,-0.6219 26.75897,0.078 -33.4379,9.412 -59.42719,21.216 -90.68388,36.095 q -9.80649,4.937 -19.97854,8.949 c 24.50634,-27.345 48.10016,-41.953 83.90345,-45.122 z"
     id="path89"
     style="display:inline;stroke-width:0.969416" /><path
     fill="#3f3632"
     d="m 650.92625,128.718 c 10.21058,-0.498 19.88456,0.367 29.99365,1.69 -28.52573,4.98 -58.0852,16.235 -85.62135,25.309 -7.34429,2.706 -14.86526,4.911 -22.32326,7.236 4.91311,-5.328 10.6457,-9.516 16.48448,-13.602 20.41177,-14.283 37.16877,-19.252 61.46648,-20.633 z"
     id="path90"
     style="display:inline;stroke-width:0.969416" /><path
     fill="#3f3632"
     d="m 543.35192,56.7089 c 0.38248,-0.1104 1.20854,-0.0894 1.61546,-0.1118 -0.53849,0.943 -3.90192,2.1489 -4.98359,2.6525 -8.10738,3.7767 -15.68286,7.9144 -22.94069,13.3611 -17.98904,13.4996 -41.3592,35.5813 -53.59498,55.0413 l -0.87023,0.911 c -0.80726,-7.116 11.16821,-26.158 15.16317,-31.5591 16.98819,-22.9724 38.11982,-36.8096 65.61086,-40.295 z"
     id="path91"
     style="display:inline;stroke-width:0.969416" /><path
     fill="#3f3632"
     d="m 665.97664,161.216 c 10.36753,-0.786 21.03014,0.24 31.36195,1.11 -10.30456,2.443 -20.60348,5.274 -30.97946,7.327 -8.50585,1.683 -17.14607,2.81 -25.72334,4.006 q -14.29012,1.666 -28.60843,3.038 c 16.35291,-9.854 35.3804,-14.061 53.94928,-15.481 z"
     id="path92"
     style="display:inline;stroke-width:0.969416" /><path
     fill="#3f3632"
     d="m 472.11184,55.5446 0.42572,0.1222 c 0.008,0.8706 -1.9707,2.2678 -2.62383,2.8736 -20.45782,18.9813 -31.88164,41.6646 -40.03977,68.8896 l -0.10526,0.103 -0.36745,-0.188 c -0.99803,-13.435 2.19154,-28.4448 8.25587,-40.2386 7.62246,-14.8227 18.96358,-26.7856 34.45472,-31.5618 z"
     id="path93"
     style="display:inline;stroke-width:0.969416" /></svg>
