<?xml version="1.0" encoding="UTF-8" standalone="no"?>
<!-- Created with Inkscape (http://www.inkscape.org/) -->

<svg
   version="1.1"
   id="svg1"
   width="210.84801"
   height="210.84801"
   viewBox="0 0 210.84801 210.84801"
   sodipodi:docname="Dunkin Donuts.svg"
   inkscape:version="1.4 (e7c3feb100, 2024-10-09)"
   xmlns:inkscape="http://www.inkscape.org/namespaces/inkscape"
   xmlns:sodipodi="http://sodipodi.sourceforge.net/DTD/sodipodi-0.dtd"
   xmlns="http://www.w3.org/2000/svg"
   xmlns:svg="http://www.w3.org/2000/svg">
  <sodipodi:namedview
     id="namedview1"
     pagecolor="#00ffff"
     bordercolor="#000000"
     borderopacity="0.25"
     inkscape:showpageshadow="2"
     inkscape:pageopacity="0.0"
     inkscape:pagecheckerboard="0"
     inkscape:deskcolor="#d1d1d1"
     inkscape:zoom="3.7942023"
     inkscape:cx="105.55578"
     inkscape:cy="105.424"
     inkscape:window-width="1920"
     inkscape:window-height="1011"
     inkscape:window-x="0"
     inkscape:window-y="0"
     inkscape:window-maximized="1"
     inkscape:current-layer="group-R5" />
  <defs
     id="defs1" />
  <g
     id="g1"
     transform="translate(-16,-16.004097)">
    <g
       id="group-R5"
       transform="translate(33.716)">
      <path
         id="path1"
         style="fill:#ffffff;-inkscape-stroke:none"
         d="M 114.99023 54.435547 C 107.8194 54.63375 97.212536 56.674453 84.439453 61.189453 C 58.76332 70.265453 43.168616 82.66712 43.291016 87.564453 C 43.299282 87.913786 43.413471 88.328724 43.960938 88.775391 L 52.964844 88.775391 C 52.964844 88.775391 73.898447 70.137943 118.32031 62.224609 C 121.69791 58.847276 123.41484 57.129286 124.29297 56.251953 C 124.1883 56.14662 124.07246 56.039641 123.91406 55.931641 C 122.35921 54.860641 119.29273 54.316625 114.99023 54.435547 z M 126.83203 63.314453 C 120.47323 71.963786 102.39885 81.755188 85.103516 87.867188 C 68.597249 93.702121 54.190251 96.007678 46.083984 94.330078 C 49.913584 103.91874 58.070808 124.3398 58.171875 124.5918 C 58.444275 125.04753 61.010627 128.951 68.496094 128.4082 C 76.39756 127.8338 122.85505 114.97342 135.43945 99.929688 C 137.39465 97.593154 138.38281 95.352212 138.38281 93.257812 C 138.38281 93.120346 138.36959 92.985609 138.36133 92.849609 C 133.88533 82.25681 129.32736 70.110453 126.83203 63.314453 z M 135.40625 106.25586 C 119.06505 120.62039 80.463411 131.10412 70.330078 132.65625 L 103.08984 197.4668 C 103.35131 197.9444 109.71578 209.11258 126.95898 205.78711 C 134.92458 204.25271 149.12087 200.30352 154.69141 191.10352 C 157.33007 186.74365 157.77067 181.5405 156 175.63477 L 135.40625 106.25586 z "
         transform="translate(-17.716,16.004097)" />
      <path
         id="path3"
         d="m 120,1072.17 v 118.74 c 0,10.48 1.277,20.65 3.691,30.37 15.61,-13.86 41.618,-46.81 105.774,-46.81 C 198.254,1155.4 121.508,1089.5 120,1072.17"
         style="display:inline;fill:#f46f1b;fill-opacity:1;fill-rule:nonzero;stroke:none"
         transform="matrix(0.13333333,0,0,-0.13333333,0,240.78667)" />
      <path
         id="path4"
         d="M 120,997.605 V 245.629 C 120,176.25 176.25,120 245.637,120 H 609.188 L 326.563,649.082 c 0,0 -69.356,10.398 -83.227,46.816 C 229.465,732.309 120,1004.54 120,1004.54 v -6.935"
         style="fill:#f46f1b;fill-opacity:1;fill-rule:nonzero;stroke:none"
         transform="matrix(0.13333333,0,0,-0.13333333,0,240.78667)" />
      <path
         id="path5"
         d="m 994.125,120 h 75.865 c 69.38,0 125.63,56.25 125.63,125.629 v 945.281 c 0,69.39 -56.25,125.64 -125.63,125.64 H 860.613 L 983.73,1006.28 C 997.602,969.863 990.668,945.582 961.188,905.703 975.059,853.688 1112.05,388.988 1112.05,388.988 1125.92,352.582 1150.18,197.789 994.125,120"
         style="fill:#ed2ca0;fill-opacity:1;fill-rule:nonzero;stroke:none"
         transform="matrix(0.13333333,0,0,-0.13333333,0,240.78667)" />
      <path
         id="path6"
         d="m 253.223,1211.6 c 0.328,0.03 0.66,0.06 0.988,0.1 24.898,3.32 43.605,13.23 55.602,29.46 13.621,18.42 17.789,44.17 12.394,76.52 -4.203,25.23 -21.133,43.7 -45.281,49.4 -21.52,5.08 -43.231,-1.47 -54.02,-16.33 -5.422,-7.45 -3.769,-17.87 3.68,-23.3 7.453,-5.42 17.883,-3.77 23.301,3.69 2.093,2.87 9.992,5.68 19.371,3.47 6.34,-1.5 17.375,-6.4 20.039,-22.42 1.246,-7.45 1.863,-14.29 1.863,-20.51 0,-13.04 -2.726,-23.31 -8.172,-30.69 -6.457,-8.72 -17.203,-13.99 -32.789,-16.14 -58.453,-3.98 -88.203,36.53 -91.746,78.6 -4.074,48.36 25.512,100.52 89.93,106.66 32.308,3.07 56.519,-4.15 74.015,-22.07 40.926,-41.96 31.059,-128.38 30.957,-129.24 -1.097,-9.14 5.411,-17.46 14.543,-18.57 9.145,-1.1 17.454,5.39 18.579,14.52 0.503,4.19 11.953,103 -40.11,156.5 -24.656,25.32 -58.691,36.11 -101.148,32.08 -85.985,-8.2 -125.457,-77.98 -120.016,-142.68 4.777,-56.68 46.871,-114.99 128.02,-109.05 z m 198.16,179.44 c 32.664,-39.76 18.797,-77.05 18.187,-78.61 -3.3,-8.54 0.86,-18.23 9.379,-21.6 8.508,-3.38 18.141,0.66 21.574,9.14 0.93,2.28 22.305,56.66 -23.359,112.25 l -24.687,28.04 c -32.364,35.51 -60.321,66.16 -50.84,112.34 9.371,45.71 57.25,105.69 122.75,99.45 60.715,-5.78 74.773,-30.13 84.961,-86.16 3.382,-18.61 0.265,-33.87 -9.282,-45.28 -11.121,-13.33 -30.546,-20.97 -53.289,-20.97 -8.257,0 -28.601,17.75 -30.16,34.63 -0.328,3.55 -1.324,14.34 24.539,19.16 9.059,1.68 15.035,10.39 13.352,19.45 -1.688,9.05 -10.391,15.03 -19.449,13.34 -51.762,-9.63 -52.633,-44.54 -51.664,-55.01 2.91,-31.56 35.492,-64.94 63.382,-64.94 32.664,0 61.426,12.02 78.907,32.96 11.125,13.33 23.007,36.75 16.484,72.63 -9.988,54.96 -26.277,104.99 -114.613,113.41 -80.438,7.66 -144.953,-59.42 -158.606,-125.97 -12.886,-62.81 23.594,-102.82 58.871,-141.51 z M 1027.31,252.59 C 985.531,183.59 879.066,153.969 819.324,142.461 690,117.52 642.27,201.289 640.309,204.871 l -245.704,486.07 c 76,11.641 365.516,90.278 488.075,198.012 l 154.45,-520.351 c 13.28,-44.293 9.97,-83.313 -9.82,-116.012 z M 303.418,751.43 c -0.758,1.89 -61.938,155.05 -90.66,226.965 60.797,-12.582 168.851,4.703 292.648,48.465 129.715,45.84 265.278,119.28 312.969,184.15 18.715,-50.97 52.891,-142.06 86.461,-221.506 0.062,-1.02 0.16,-2.035 0.16,-3.066 0,-15.708 -7.402,-32.516 -22.066,-50.04 C 788.547,823.57 440.113,727.109 380.852,722.801 324.711,718.73 305.461,748.012 303.418,751.43 Z m -111.605,277.71 c -0.918,36.73 116.046,129.74 308.617,197.81 153.277,54.18 264.953,60.85 296.05,39.43 1.188,-0.81 2.059,-1.61 2.844,-2.4 -6.586,-6.58 -19.465,-19.46 -44.797,-44.79 -333.164,-59.35 -490.164,-199.13 -490.164,-199.13 h -67.527 c -4.106,3.35 -4.961,6.46 -5.023,9.08 z m 877.267,-650.96 -159.51,537.461 -0.703,-0.203 c 22.028,26.503 31.817,53.3 29.031,79.648 l -0.257,2.469 -0.965,2.293 c -46.379,109.442 -94.375,242.742 -100.68,260.332 -1.277,13.6 -8.285,25.21 -20.59,33.68 -46.523,32.04 -174.515,18.12 -326.093,-35.45 -161.75,-57.17 -332.672,-157.25 -330.856,-230.1 0.238,-9.57 3.289,-18.22 8.891,-25.61 l -0.192,-0.08 106.098,-265.608 0.398,-0.762 c 0.996,-1.918 22.778,-41.73 84.239,-46.621 l 252.871,-500.25 c 0.777,-1.449 60.691,-109.4181 214.879,-79.699 79.609,15.359 184.169,49.601 230.209,125.64 24.89,41.09 29.34,89.168 13.23,142.86"
         style="display:inline;fill:#4c2005;fill-opacity:1;fill-rule:nonzero;stroke:none"
         transform="matrix(0.13333333,0,0,-0.13333333,0,240.78667)" />
      <path
         id="path7"
         d="m 640.102,530.309 c 16.793,9.75 21.105,11.961 24.871,19.492 4.168,8.847 4.367,21.179 -0.618,30.871 -5.882,11.43 -17.367,18.906 -29.968,17.976 -5.688,0.422 -11.301,-1.378 -20.782,-6.257 -0.871,-0.442 -2.593,-1.34 -4.32,-2.219 z m 7.218,-56.418 c -12.07,-6.211 -17.691,-7.993 -23.828,-6.68 -6.984,0.859 -12.695,3.488 -17.578,8.758 -2.695,3.09 -4.055,5.73 -9.484,16.293 l -43.95,85.386 c -6.347,12.34 -7.246,14.09 -8.195,18.063 -1.582,13.648 4.324,23.379 18.977,30.918 l 31.039,15.973 c 22.418,11.539 43.687,14.707 65.152,9.027 23.207,-6.981 43.594,-23.219 54.934,-45.231 10.855,-21.128 12.234,-47.136 3.972,-69.218 -4.492,-14.571 -13.796,-28.258 -25.398,-37.551 -5.566,-4 -14.602,-9.758 -24.941,-15.09 l -20.7,-10.648 v 0 0"
         style="fill:#f46f1b;fill-opacity:1;fill-rule:evenodd;stroke:none"
         transform="matrix(0.13333333,0,0,-0.13333333,0,240.78667)" />
      <path
         id="path8"
         d="m 797.328,585.301 c 16.789,8 21.078,9.781 25.176,16.847 4.59,8.34 5.586,20.524 1.426,30.59 -4.926,11.891 -15.485,20.391 -27.664,20.703 -5.442,0.969 -10.953,-0.261 -20.391,-4.171 -0.863,-0.36 -2.57,-1.059 -4.293,-1.77 z m 3.281,-56.512 c -12.004,-4.957 -17.527,-6.199 -23.343,-4.289 -6.661,1.531 -11.985,4.691 -16.344,10.371 -2.387,3.32 -3.516,6.051 -8.055,17.039 l -36.719,88.738 c -5.308,12.813 -6.058,14.633 -6.714,18.653 -0.641,13.668 5.668,22.711 20.254,28.738 l 30.882,12.781 c 22.317,9.231 42.969,10.301 63.243,2.602 21.867,-9.184 40.417,-27.203 49.898,-50.082 9.066,-21.961 8.699,-47.828 -0.676,-68.86 -5.269,-13.98 -15.105,-26.601 -26.863,-34.679 -5.613,-3.422 -14.668,-8.231 -24.965,-12.492 l -20.598,-8.52 v 0 0"
         style="display:inline;fill:#ed2ca0;fill-opacity:1;fill-rule:evenodd;stroke:none"
         transform="matrix(0.13333333,0,0,-0.13333333,0,240.78667)" />
    </g>
  </g>
</svg>
