<?xml version="1.0" encoding="UTF-8" standalone="no"?>
<!-- Generator: Adobe Illustrator 26.0.3, SVG Export Plug-In . SVG Version: 6.00 Build 0)  -->

<svg
   version="1.0"
   id="Layer_1"
   x="0px"
   y="0px"
   viewBox="0 0 314.39998 314.39998"
   xml:space="preserve"
   sodipodi:docname="dutch-bros-coffee-seeklogo.svg"
   width="314.39999"
   height="314.39999"
   inkscape:version="1.4 (e7c3feb100, 2024-10-09)"
   xmlns:inkscape="http://www.inkscape.org/namespaces/inkscape"
   xmlns:sodipodi="http://sodipodi.sourceforge.net/DTD/sodipodi-0.dtd"
   xmlns="http://www.w3.org/2000/svg"
   xmlns:svg="http://www.w3.org/2000/svg"><defs
   id="defs24" /><sodipodi:namedview
   id="namedview24"
   pagecolor="#ffffff"
   bordercolor="#000000"
   borderopacity="0.25"
   inkscape:showpageshadow="2"
   inkscape:pageopacity="0.0"
   inkscape:pagecheckerboard="0"
   inkscape:deskcolor="#d1d1d1"
   inkscape:zoom="1.0343936"
   inkscape:cx="154.68"
   inkscape:cy="124.71075"
   inkscape:window-width="1920"
   inkscape:window-height="1011"
   inkscape:window-x="0"
   inkscape:window-y="0"
   inkscape:window-maximized="1"
   inkscape:current-layer="Layer_1" />
<style
   type="text/css"
   id="style1">
	.st0{fill:#006098;}
	.st1{fill:#FDE021;}
	.st2{fill:#D7282F;}
</style>

<g
   id="g24"
   transform="translate(-365.95,-134.2)">
	<path
   class="st0"
   d="m 564.3,271 9.3,-1.9 -25.4,-26.4 -0.3,-0.3 c 23.9,-28.1 55.5,-48.4 90.9,-58.6 -16.1,-8.8 -32.9,-16.1 -50.3,-21.9 -21.6,18.7 -40.5,40.4 -55.9,64.5 l -7.9,-8.2 -7.9,8.2 c -30.1,-23.5 -52.2,-55.7 -63.3,-92.2 -8.9,15.8 -16.3,32.4 -22.2,49.6 20.2,23 43.9,42.7 70.1,58.6 l -25.7,26.6 9.3,1.9 c -21.9,20.9 -48.5,36.2 -77.5,44.7 16.1,8.8 32.9,16.1 50.3,21.9 7.2,-5.9 14.1,-12.1 20.8,-18.7 l -17.4,124 28.9,5.8 h 69.2 l 28.9,-5.8 c -0.4,-3.3 -17.1,-121.8 -17.4,-124 9.1,14.4 16.1,30.1 20.8,46.5 8.9,-15.8 16.3,-32.4 22.2,-49.6 C 599,299 582.4,284 564.3,271 Z"
   id="path22" />
	
	
</g>
</svg>
