<?xml version="1.0" encoding="UTF-8" standalone="no"?>
<!-- Created with Inkscape (http://www.inkscape.org/) -->

<svg
   width="54.999992mm"
   height="61.986mm"
   viewBox="0 0 54.999992 61.986"
   version="1.1"
   id="svg1"
   inkscape:version="1.4 (e7c3feb100, 2024-10-09)"
   sodipodi:docname="Hot Coffee.svg"
   inkscape:export-filename="Documents/Ahmed-Asra-Priyanka-Rafeed-Muhammad/images/Iced Coffee.svg"
   inkscape:export-xdpi="96"
   inkscape:export-ydpi="96"
   xmlns:inkscape="http://www.inkscape.org/namespaces/inkscape"
   xmlns:sodipodi="http://sodipodi.sourceforge.net/DTD/sodipodi-0.dtd"
   xmlns="http://www.w3.org/2000/svg"
   xmlns:svg="http://www.w3.org/2000/svg">
  <sodipodi:namedview
     id="namedview1"
     pagecolor="#ffffff"
     bordercolor="#000000"
     borderopacity="0.25"
     inkscape:showpageshadow="2"
     inkscape:pageopacity="0.0"
     inkscape:pagecheckerboard="0"
     inkscape:deskcolor="#d1d1d1"
     inkscape:document-units="mm"
     inkscape:zoom="1.0078851"
     inkscape:cx="-26.29268"
     inkscape:cy="67.468009"
     inkscape:window-width="1920"
     inkscape:window-height="1011"
     inkscape:window-x="0"
     inkscape:window-y="0"
     inkscape:window-maximized="1"
     inkscape:current-layer="layer1" />
  <defs
     id="defs1" />
  <g
     inkscape:label="Layer 1"
     inkscape:groupmode="layer"
     id="layer1"
     transform="translate(-8.1288983,-1.1645573)">
    <path
       id="path10"
       style="fill:#f09a76;fill-opacity:1;stroke:none;stroke-width:2.02879;stroke-linecap:round;stroke-linejoin:round;stroke-dasharray:none;stroke-opacity:1"
       d="m 35.628877,12.172013 c -1.24645,0 -2.469386,0.06384 -3.661825,0.186012 -0.79496,0.08145 -1.576301,0.188894 -2.341791,0.320586 -0.382746,0.06585 -0.761434,0.137833 -1.135992,0.215629 -0.749115,0.155591 -1.481681,0.334739 -2.194766,0.535694 -1.069629,0.301433 -2.095881,0.652089 -3.072147,1.04645 -0.650846,0.262905 -1.279386,0.545223 -1.88327,0.845368 -0.301943,0.150072 -0.598045,0.304699 -0.887427,0.463472 -0.578766,0.317545 -1.131671,0.651856 -1.656917,1.001763 -0.525246,0.34991 -1.021332,0.713029 -1.487682,1.088017 -0.466353,0.374989 -0.902876,0.762004 -1.3084,1.159719 -0.608287,0.596572 -1.147029,1.217479 -1.613022,1.858563 -0.465897,0.640953 -0.859565,1.302124 -1.176713,1.979629 -6.6e-5,1.4e-4 6.6e-5,3.8e-4 0,5.19e-4 -0.211384,0.451615 -0.389157,0.910433 -0.532033,1.375348 -4.9e-5,1.56e-4 4.9e-5,3.64e-4 0,5.2e-4 -0.214351,0.697614 -0.350433,1.40885 -0.405106,2.129788 -0.01823,0.240312 -0.0275,0.481469 -0.0275,0.723786 0,0.784884 0.10144,1.559543 0.289815,2.319957 A 23.538341,16.087407 0 0 1 35.628877,16.042939 23.538341,16.087407 0 0 1 58.745336,29.343336 c 0.175568,-0.734818 0.268132,-1.483015 0.268132,-2.24046 0,-0.969426 -0.14671,-1.923795 -0.432606,-2.854094 -0.07146,-0.232539 -0.151388,-0.463251 -0.240103,-0.692611 -0.08876,-0.229499 -0.186127,-0.457235 -0.29193,-0.683256 -0.211411,-0.451623 -0.456597,-0.896253 -0.734588,-1.332223 -0.278091,-0.436107 -0.589068,-0.863733 -0.931851,-1.281821 -0.342781,-0.41809 -0.717759,-0.826432 -1.123297,-1.224148 -0.202931,-0.199024 -0.413174,-0.395212 -0.631459,-0.588692 -0.217996,-0.193238 -0.443342,-0.383613 -0.676411,-0.571027 -1.06e-4,-8.5e-5 -4.23e-4,8.5e-5 -5.29e-4,0 -0.233075,-0.187411 -0.47346,-0.372068 -0.721365,-0.55336 -1.13e-4,-8.4e-5 -4.15e-4,8.3e-5 -5.29e-4,0 -0.248023,-0.181373 -0.503165,-0.359701 -0.765788,-0.534657 -0.262817,-0.175081 -0.532138,-0.346167 -0.808628,-0.513351 -0.642223,-0.388361 -1.324498,-0.75164 -2.03558,-1.093732 -0.419936,-0.202012 -0.851013,-0.3954 -1.293062,-0.579859 -0.419467,-0.17505 -0.844876,-0.345159 -1.283015,-0.50348 -0.672685,-0.24307 -1.36639,-0.465676 -2.079476,-0.666631 -0.646536,-0.182202 -1.310603,-0.343897 -1.986925,-0.488931 -0.44272,-0.09495 -0.889505,-0.184229 -1.343835,-0.262392 -0.724018,-0.124557 -1.462788,-0.225305 -2.213276,-0.304998 -0.439878,-0.04671 -0.882648,-0.0874 -1.330611,-0.117946 -0.808056,-0.05511 -1.62876,-0.08366 -2.459727,-0.08365 z m 23.116459,17.171323 c -0.07171,0.300157 -0.160013,0.597636 -0.261256,0.892651 0.100161,-0.295361 0.189533,-0.592457 0.261256,-0.892651 z M 12.5341,29.422826 c 0.230974,0.932375 0.599578,1.842233 1.100027,2.721081 0.0058,-9.59e-4 0.0105,-0.0011 0.0164,-0.0021 -0.500138,-0.879295 -0.885344,-1.786202 -1.116423,-2.719001 z m 45.929883,0.871349 c -0.316082,0.903001 -0.766121,1.780966 -1.335371,2.627553 0.0029,3.52e-4 0.0091,-0.0023 0.01216,-0.0021 0.568206,-0.845169 1.01118,-1.723077 1.323207,-2.625475 z" />
    <path
       id="path4"
       style="display:inline;fill:#db5c37;fill-opacity:1;stroke:none;stroke-width:2.02879;stroke-linecap:round;stroke-linejoin:round;stroke-dasharray:none;stroke-opacity:1"
       d="M 35.628877,16.042939 A 23.538341,16.087407 0 0 0 12.5341,29.422833 c 0.742129,2.995752 2.909335,5.763354 6.260642,7.995929 4.201971,2.799271 10.186402,4.614976 16.834135,4.614976 6.647732,0 12.632163,-1.815705 16.834135,-4.614976 3.381044,-2.252385 5.559234,-5.04902 6.282324,-8.075426 A 23.538341,16.087407 0 0 0 35.628877,16.042939 Z M 12.222601,37.067002 v 1.971834 l -0.01217,-0.01196 a 2.0470169,2.0111269 0 0 1 0.03226,0.155356 v -0.01351 c 0,0.01274 0.0037,0.02416 0.0037,0.03689 0.02417,10.881171 10.324032,19.92312 23.382476,19.923058 13.071339,6.2e-5 23.382748,-9.058701 23.386708,-19.954234 -7.17e-4,-0.02433 -0.0013,-0.04842 -0.0022,-0.07275 a 2.0470169,2.0111269 0 0 1 0.02591,-0.06651 l -0.0042,0.0036 v -1.971833 c -1.214603,1.363952 -2.656147,2.601588 -4.275303,3.680238 -5.002488,3.332559 -11.733174,5.308104 -19.130972,5.308104 -7.397798,0 -14.128486,-1.975545 -19.130972,-5.308104 -1.619174,-1.078661 -3.060693,-2.316268 -4.275304,-3.680238 z" />
    <path
       id="path8"
       style="display:inline;fill:#cf492a;fill-opacity:1;stroke-width:1.0144;stroke-linecap:round;stroke-linejoin:round"
       d="m 59.035151,37.067002 c -1.214602,1.363952 -2.656147,2.601588 -4.275302,3.680237 -0.487268,0.324609 -0.992912,0.634873 -1.512009,0.933179 -1.762876,8.162057 -6.090448,13.316627 -9.277786,16.137344 8.857399,-2.880923 15.042464,-10.207963 15.04553,-18.643314 -7.16e-4,-0.02433 -0.0013,-0.0484 -0.0022,-0.07275 a 2.0470169,2.0111269 0 0 1 0.02591,-0.06651 l -0.0042,0.0036 z" />
    <path
       style="display:inline;fill:#654526;fill-opacity:1;stroke-width:1.0144;stroke-linecap:round;stroke-linejoin:round"
       d="M 35.628947,8.1503906 C 28.231095,8.1503663 21.500568,10.125946 16.49805,13.458528 11.495531,16.79111 8.1508475,21.623122 8.1508933,27.102974 a 2.0470169,2.0111269 0 0 0 0.00399,0.104081 2.0470169,2.0111269 0 0 0 -0.025985,0.02553 V 39.03892 a 2.0470169,2.0111269 0 0 0 0.023986,0.02357 2.0470169,2.0111269 0 0 0 -0.00399,0.106042 C 8.1490312,52.538707 20.60994,63.150462 35.628946,63.15039 50.647954,63.150462 63.108862,52.538707 63.108999,39.168528 a 2.0470169,2.0111269 0 0 0 0,-0.0491 c -4.9e-4,-0.01965 -0.0014,-0.03927 -0.0021,-0.05891 a 2.0470169,2.0111269 0 0 0 0.02199,-0.0216 V 27.232583 a 2.0470169,2.0111269 0 0 0 -0.02589,-0.02553 2.0470169,2.0111269 0 0 0 0.004,-0.104081 C 63.107047,21.623122 59.762363,16.79111 54.759845,13.458528 49.757326,10.125946 43.0268,8.1503663 35.628947,8.1503906 Z m 0,4.0218524 c 6.647783,-2.2e-5 12.632232,1.815627 16.834231,4.614917 4.201999,2.79929 6.550231,6.438738 6.550199,10.315814 l 0.0021,-0.06088 a 2.0470169,2.0111269 0 0 0 0.08595,0.255293 l -0.06596,-0.0648 v 11.806335 l 0.004,-0.0039 a 2.0470169,2.0111269 0 0 0 -0.02598,0.06677 c 7.74e-4,0.02433 0.0013,0.04833 0.0021,0.07266 -0.004,10.895532 -10.31518,19.954166 -23.386518,19.954103 -13.058443,6.3e-5 -23.358255,-9.041527 -23.38243,-19.922697 -2.8e-5,-0.01273 -0.004,-0.02457 -0.004,-0.03731 v 0.01375 a 2.0470169,2.0111269 0 0 0 -0.03198,-0.155141 l 0.01198,0.01178 V 27.232583 l -0.016,0.01572 a 2.0470169,2.0111269 0 0 0 0.03599,-0.194415 l 0.0019,0.04909 c -3.3e-5,-3.877077 2.348203,-7.516524 6.550199,-10.315814 4.201997,-2.79929 10.186449,-4.614939 16.83423,-4.614917 z"
       id="path1" />
    <path
       style="display:inline;fill:#654526;fill-opacity:1;stroke-width:1.0144"
       d="m 35.628947,8.1503906 c -7.397799,0 -14.12841,1.9755774 -19.130897,5.3081374 -5.002488,3.332559 -8.3471567,8.164635 -8.3471567,13.644446 0,5.47981 3.3446687,10.311885 8.3471567,13.644445 5.002487,3.33256 11.733098,5.308136 19.130897,5.308136 7.397799,0 14.12841,-1.975576 19.130898,-5.308136 5.002488,-3.33256 8.347156,-8.164635 8.347156,-13.644445 0,-5.479811 -3.344668,-10.311887 -8.347156,-13.644446 C 49.757357,10.125968 43.026746,8.1503906 35.628947,8.1503906 Z m 0,4.0218524 c 6.647732,0 12.63226,1.815646 16.834231,4.614917 4.201971,2.799271 6.550199,6.438766 6.550199,10.315814 0,3.877046 -2.348228,7.516543 -6.550199,10.315814 -4.201971,2.79927 -10.186499,4.614916 -16.834231,4.614916 -6.647732,0 -12.632259,-1.815646 -16.83423,-4.614916 -4.201971,-2.799271 -6.550199,-6.438768 -6.550199,-10.315814 0,-3.877048 2.348228,-7.516543 6.550199,-10.315814 4.201971,-2.799271 10.186498,-4.614917 16.83423,-4.614917 z"
       id="ellipse3" />
    <g
       id="g25"
       transform="matrix(1.0234061,0,0,1.0054629,0.75958271,4.714771)"
       style="display:none">
      <path
         id="path21"
         style="fill:#a7e5f4;stroke-linecap:round;stroke-linejoin:round"
         d="m 37.028954,28.710893 c -0.07399,0.0027 -0.148775,0.0088 -0.223759,0.01912 l -6.673494,0.917257 c -1.199734,0.164871 -2.032457,1.263165 -1.867586,2.462898 l 0.152445,1.11001 h 11.212236 l -0.360185,-2.622062 c -0.154567,-1.12475 -1.12981,-1.92715 -2.239657,-1.887223 z" />
      <path
         id="path22"
         style="fill:#7fcded;stroke-linecap:round;stroke-linejoin:round"
         d="m 36.982446,27.461357 c -0.1153,0.0039 -0.23126,0.01344 -0.347783,0.02945 l -6.673494,0.917257 c -1.864365,0.256207 -3.191944,2.008783 -2.935738,3.873148 l 0.129191,0.938961 h 2.52336 l -0.1757,-1.278992 c -0.07353,-0.535102 0.263816,-0.982731 0.798918,-1.056266 l 6.674011,-0.917256 c 0.535101,-0.07353 0.980663,0.2664 1.054199,0.801501 l 0.33693,2.451013 h 2.523361 l -0.38344,-2.791561 c -0.240193,-1.747842 -1.794319,-3.025466 -3.523815,-2.96726 z" />
    </g>
    <g
       id="g23"
       transform="matrix(1.0234061,0,0,1.0054629,-0.57020559,1.4485876)"
       style="display:none">
      <path
         id="path17"
         style="fill:#a7e5f4;stroke-linecap:round;stroke-linejoin:round"
         d="m 23.886604,20.275232 c -0.85198,-0.0062 -1.661686,0.489596 -2.020548,1.32395 l -1.668116,3.877283 h 12.019939 c 0.160494,-0.96906 -0.347738,-1.953744 -1.292428,-2.360063 l -6.187736,-2.661853 c -0.278118,-0.119621 -0.567118,-0.177262 -0.851111,-0.179317 z" />
      <path
         id="path18"
         style="fill:#7fcded;stroke-linecap:round;stroke-linejoin:round"
         d="m 23.90159,19.030347 c -1.338456,-0.0034 -2.626634,0.779267 -3.184301,2.075842 L 18.8373,25.476465 h 2.722314 l 1.454692,-3.382739 c 0.213412,-0.496183 0.7332,-0.704855 1.229382,-0.491443 l 6.188253,2.661853 c 0.489979,0.210744 0.695982,0.721781 0.495577,1.212329 h 2.549198 C 33.61968,24.025974 32.820951,22.5702 31.419994,21.967635 l -6.188252,-2.661853 c -0.432191,-0.185889 -0.884,-0.274307 -1.330152,-0.275435 z" />
    </g>
    <g
       id="g24"
       transform="matrix(1.0234061,0,0,1.0054629,0.3796432,3.9682148)"
       style="display:none">
      <path
         id="path19"
         style="fill:#a7e5f4;stroke-linecap:round;stroke-linejoin:round"
         d="m 45.644966,20.112968 c -0.21523,4.5e-5 -0.434239,0.03199 -0.651123,0.09922 l -6.434233,1.99471 c -1.156717,0.358535 -1.799274,1.578 -1.440739,2.734717 l 0.165882,0.534851 h 11.629264 l -1.184941,-3.823539 c -0.29131,-0.939834 -1.151446,-1.540151 -2.08411,-1.539958 z" />
      <path
         id="path20"
         style="fill:#7fcded;stroke-linecap:round;stroke-linejoin:round"
         d="m 45.639798,18.866532 c -0.337226,-0.0014 -0.67944,0.04746 -1.016475,0.151929 l -6.434233,1.994194 c -1.797518,0.557158 -2.821619,2.500926 -2.264461,4.298445 l 0.05116,0.165365 H 38.5932 l -0.280603,-0.905371 c -0.159912,-0.515915 0.100585,-1.010558 0.6165,-1.170471 l 6.434232,-1.994711 c 0.515916,-0.159913 1.011075,0.101102 1.170988,0.617017 l 1.070219,3.453536 h 2.617412 l -1.30018,-4.194059 c -0.45269,-1.460485 -1.820656,-2.409869 -3.28197,-2.415874 z" />
    </g>
    <path
       style="display:none;fill:none;fill-opacity:1;stroke:#7fcded;stroke-width:3;stroke-linecap:round;stroke-linejoin:round;stroke-dasharray:none;stroke-opacity:1;paint-order:normal"
       d="m 13.172305,53.595286 c 6.055599,-9.052161 12.723745,2.046254 20,0"
       id="path25"
       sodipodi:nodetypes="cc" />
    <path
       style="display:none;fill:none;fill-opacity:1;stroke:#7fcded;stroke-width:3;stroke-linecap:round;stroke-linejoin:round;stroke-dasharray:none;stroke-opacity:1;paint-order:normal"
       d="m 13.172305,53.595286 c 8.119995,-1.071652 10.72691,12.971511 20,0"
       id="path26"
       sodipodi:nodetypes="cc" />
    <path
       id="path31"
       style="fill:#989898;fill-opacity:0.7432099;stroke-linecap:round;stroke-linejoin:round"
       d="m 21.872578,4.948488 a 1.5,1.5 0 0 0 -0.06925,0.014469 1.5,1.5 0 0 0 -0.06821,-0.00103 1.5,1.5 0 0 0 -0.15658,0.048059 1.5,1.5 0 0 0 -0.225826,0.069763 1.5,1.5 0 0 0 -0.200504,0.114205 1.5,1.5 0 0 0 -0.19327,0.136426 1.5,1.5 0 0 0 -0.153996,0.169498 1.5,1.5 0 0 0 -0.113688,0.125057 1.5,1.5 0 0 0 -0.02946,0.065113 1.5,1.5 0 0 0 -0.09353,0.208256 1.5,1.5 0 0 0 -0.07751,0.226343 1.5,1.5 0 0 0 -0.0248,0.224275 1.5,1.5 0 0 0 -0.0036,0.242879 1.5,1.5 0 0 0 -0.001,0.066663 c 0.227269,1.59613 -0.257039,2.875225 -1.110527,4.263306 -0.853489,1.388081 -2.083792,2.766007 -3.051493,4.35994 -0.967702,1.593932 -1.658791,3.619211 -0.956531,5.785177 0.698073,2.153055 2.530133,4.205886 5.89008,6.565491 0.02015,0.01415 0.03865,0.0282 0.05891,0.04237 a 1.5,1.5 0 0 0 0.164848,0.0801 1.5,1.5 0 0 0 0.226343,0.110071 1.5,1.5 0 0 0 0.210323,0.04031 1.5,1.5 0 0 0 0.252181,0.03514 1.5,1.5 0 0 0 0.206189,-0.02635 1.5,1.5 0 0 0 0.219625,-0.02791 1.5,1.5 0 0 0 0.06201,-0.02222 1.5,1.5 0 0 0 0.01344,-0.0047 1.5,1.5 0 0 0 0.406177,-0.216007 1.5,1.5 0 0 0 0.001,-5.17e-4 1.5,1.5 0 0 0 0.001,-0.0016 1.5,1.5 0 0 0 0.492993,-0.651123 1.5,1.5 0 0 0 0.0067,-0.01964 1.5,1.5 0 0 0 0.04858,-0.151929 1.5,1.5 0 0 0 0.0047,-0.02015 1.5,1.5 0 0 0 0.02791,-0.147795 1.5,1.5 0 0 0 0.0052,-0.04496 1.5,1.5 0 0 0 0.0088,-0.132808 1.5,1.5 0 0 0 -5.17e-4,-0.04237 1.5,1.5 0 0 0 -0.0072,-0.135909 1.5,1.5 0 0 0 -0.0052,-0.04289 1.5,1.5 0 0 0 -0.02274,-0.129191 1.5,1.5 0 0 0 -0.01137,-0.04909 1.5,1.5 0 0 0 -0.01137,-0.04909 c -0.828472,-2.834494 1.038099,-5.96064 2.4691,-9.500712 0.7155,-1.770036 1.302173,-3.681713 0.942062,-5.718514 C 26.642386,8.768176 25.270488,6.829273 22.767097,5.191367 A 1.5,1.5 0 0 0 22.705602,5.163979 1.5,1.5 0 0 0 22.489595,5.066827 1.5,1.5 0 0 0 22.26997,4.991379 1.5,1.5 0 0 0 22.039493,4.966575 1.5,1.5 0 0 0 21.872578,4.948488 Z" />
    <path
       id="path31-1"
       style="fill:#989898;fill-opacity:0.7432099;stroke-linecap:round;stroke-linejoin:round"
       d="m 35.738153,1.1645573 a 1.5,1.5 0 0 0 -0.06925,0.014469 1.5,1.5 0 0 0 -0.06821,-0.00103 1.5,1.5 0 0 0 -0.15658,0.048059 1.5,1.5 0 0 0 -0.225826,0.069763 1.5,1.5 0 0 0 -0.200504,0.114205 1.5,1.5 0 0 0 -0.19327,0.136426 1.5,1.5 0 0 0 -0.153996,0.169498 1.5,1.5 0 0 0 -0.113688,0.125057 1.5,1.5 0 0 0 -0.02946,0.065113 1.5,1.5 0 0 0 -0.09353,0.208256 1.5,1.5 0 0 0 -0.07751,0.226343 1.5,1.5 0 0 0 -0.0248,0.224275 1.5,1.5 0 0 0 -0.0036,0.242879 1.5,1.5 0 0 0 -10e-4,0.066663 C 34.554198,4.470663 34.06989,5.749758 33.216402,7.137839 c -0.853489,1.388081 -2.083792,2.766007 -3.051493,4.35994 -0.967702,1.593932 -1.658791,3.619211 -0.956531,5.785177 0.698073,2.153055 2.530133,4.205886 5.89008,6.565491 0.02015,0.01415 0.03865,0.0282 0.05891,0.04237 a 1.5,1.5 0 0 0 0.164848,0.0801 1.5,1.5 0 0 0 0.226343,0.110071 1.5,1.5 0 0 0 0.210323,0.04031 1.5,1.5 0 0 0 0.252181,0.03514 1.5,1.5 0 0 0 0.206189,-0.02635 1.5,1.5 0 0 0 0.219625,-0.02791 1.5,1.5 0 0 0 0.06201,-0.02222 1.5,1.5 0 0 0 0.01344,-0.0047 1.5,1.5 0 0 0 0.406177,-0.216007 1.5,1.5 0 0 0 0.001,-5.17e-4 1.5,1.5 0 0 0 10e-4,-0.0016 1.5,1.5 0 0 0 0.492993,-0.651123 1.5,1.5 0 0 0 0.0067,-0.01964 1.5,1.5 0 0 0 0.04858,-0.151929 1.5,1.5 0 0 0 0.0047,-0.02015 1.5,1.5 0 0 0 0.02791,-0.147795 1.5,1.5 0 0 0 0.0052,-0.04496 1.5,1.5 0 0 0 0.0088,-0.132808 1.5,1.5 0 0 0 -5.17e-4,-0.04237 1.5,1.5 0 0 0 -0.0072,-0.135909 1.5,1.5 0 0 0 -0.0052,-0.04289 1.5,1.5 0 0 0 -0.02274,-0.129191 1.5,1.5 0 0 0 -0.01137,-0.04909 1.5,1.5 0 0 0 -0.01137,-0.04909 c -0.828472,-2.834494 1.038099,-5.96064 2.4691,-9.500712 0.7155,-1.770036 1.302173,-3.681713 0.942062,-5.718514 -0.360191,-2.036718 -1.732089,-3.9756207 -4.23548,-5.6135267 a 1.5,1.5 0 0 0 -0.0615,-0.027388 1.5,1.5 0 0 0 -0.216007,-0.097152 1.5,1.5 0 0 0 -0.219625,-0.075448 1.5,1.5 0 0 0 -0.230477,-0.024804 1.5,1.5 0 0 0 -0.166915,-0.018087 z" />
    <path
       id="path31-8"
       style="fill:#989898;fill-opacity:0.7432099;stroke-linecap:round;stroke-linejoin:round"
       d="m 49.152945,5.1291406 a 1.5,1.5 0 0 0 -0.06925,0.014469 1.5,1.5 0 0 0 -0.06821,-0.00103 1.5,1.5 0 0 0 -0.15658,0.048059 1.5,1.5 0 0 0 -0.225826,0.069763 1.5,1.5 0 0 0 -0.200504,0.114205 1.5,1.5 0 0 0 -0.19327,0.136426 1.5,1.5 0 0 0 -0.153996,0.169498 1.5,1.5 0 0 0 -0.113688,0.125057 1.5,1.5 0 0 0 -0.02946,0.065113 1.5,1.5 0 0 0 -0.09353,0.208256 1.5,1.5 0 0 0 -0.07751,0.226343 1.5,1.5 0 0 0 -0.0248,0.224275 1.5,1.5 0 0 0 -0.0036,0.2428794 1.5,1.5 0 0 0 -0.001,0.06666 c 0.227269,1.59613 -0.257039,2.875225 -1.110527,4.263306 -0.853489,1.388081 -2.083792,2.766007 -3.051493,4.35994 -0.967702,1.593932 -1.658791,3.619211 -0.956531,5.785177 0.698073,2.153055 2.530133,4.205886 5.89008,6.565491 0.02015,0.01415 0.03865,0.0282 0.05891,0.04237 a 1.5,1.5 0 0 0 0.164848,0.0801 1.5,1.5 0 0 0 0.226343,0.110071 1.5,1.5 0 0 0 0.210323,0.04031 1.5,1.5 0 0 0 0.252181,0.03514 1.5,1.5 0 0 0 0.206189,-0.02635 1.5,1.5 0 0 0 0.219625,-0.02791 1.5,1.5 0 0 0 0.06201,-0.02222 1.5,1.5 0 0 0 0.01344,-0.0047 1.5,1.5 0 0 0 0.406177,-0.216007 1.5,1.5 0 0 0 0.001,-5.17e-4 1.5,1.5 0 0 0 10e-4,-0.0016 1.5,1.5 0 0 0 0.492993,-0.651123 1.5,1.5 0 0 0 0.0067,-0.01964 1.5,1.5 0 0 0 0.04858,-0.151929 1.5,1.5 0 0 0 0.0047,-0.02015 1.5,1.5 0 0 0 0.02791,-0.147795 1.5,1.5 0 0 0 0.0052,-0.04496 1.5,1.5 0 0 0 0.0088,-0.132808 1.5,1.5 0 0 0 -5.17e-4,-0.04237 1.5,1.5 0 0 0 -0.0072,-0.135909 1.5,1.5 0 0 0 -0.0052,-0.04289 1.5,1.5 0 0 0 -0.02274,-0.129191 1.5,1.5 0 0 0 -0.01137,-0.04909 1.5,1.5 0 0 0 -0.01137,-0.04909 c -0.828472,-2.834494 1.038099,-5.96064 2.4691,-9.500712 0.7155,-1.770036 1.302173,-3.681713 0.942062,-5.718514 -0.360191,-2.036718 -1.732089,-3.975621 -4.23548,-5.6135274 a 1.5,1.5 0 0 0 -0.0615,-0.027388 1.5,1.5 0 0 0 -0.216007,-0.097152 1.5,1.5 0 0 0 -0.219625,-0.075448 1.5,1.5 0 0 0 -0.230477,-0.024804 1.5,1.5 0 0 0 -0.166915,-0.018087 z" />
  </g>
</svg>
