<?xml version="1.0" encoding="UTF-8" standalone="no"?>
<!-- Created with Inkscape (http://www.inkscape.org/) -->

<svg
   width="53.742134mm"
   height="54.701172mm"
   viewBox="0 0 53.742134 54.701172"
   version="1.1"
   id="svg1"
   sodipodi:docname="Iced Coffee.svg"
   inkscape:version="1.4 (e7c3feb100, 2024-10-09)"
   xmlns:inkscape="http://www.inkscape.org/namespaces/inkscape"
   xmlns:sodipodi="http://sodipodi.sourceforge.net/DTD/sodipodi-0.dtd"
   xmlns="http://www.w3.org/2000/svg"
   xmlns:svg="http://www.w3.org/2000/svg">
  <sodipodi:namedview
     id="namedview1"
     pagecolor="#ffffff"
     bordercolor="#000000"
     borderopacity="0.25"
     inkscape:showpageshadow="2"
     inkscape:pageopacity="0.0"
     inkscape:pagecheckerboard="0"
     inkscape:deskcolor="#d1d1d1"
     inkscape:document-units="mm"
     inkscape:zoom="2.7361559"
     inkscape:cx="84.425014"
     inkscape:cy="81.501204"
     inkscape:window-width="1920"
     inkscape:window-height="1011"
     inkscape:window-x="0"
     inkscape:window-y="0"
     inkscape:window-maximized="1"
     inkscape:current-layer="svg1" />
  <defs
     id="defs1" />
  <path
     id="path10"
     style="fill:#d99c9f;fill-opacity:1;stroke:none;stroke-width:2;stroke-linecap:round;stroke-linejoin:round;stroke-dasharray:none;stroke-opacity:1"
     d="m 34.999931,12.150163 c -1.217943,0 -2.412909,0.06349 -3.578076,0.185001 -0.776779,0.08101 -1.54025,0.187869 -2.288233,0.318844 -0.373991,0.06549 -0.744018,0.137084 -1.11001,0.214457 -0.731982,0.154746 -1.447794,0.332921 -2.144571,0.532784 -1.045166,0.299795 -2.047945,0.648546 -3.001884,1.040764 -0.63596,0.261478 -1.250125,0.542261 -1.840198,0.840775 -0.295037,0.149257 -0.584367,0.303044 -0.867131,0.460954 -0.565528,0.31582 -1.105789,0.648314 -1.619022,0.996321 -0.513234,0.348008 -0.997973,0.709154 -1.453658,1.082105 -0.455686,0.372951 -0.882226,0.757864 -1.278475,1.153418 -0.594375,0.59333 -1.120796,1.210865 -1.576131,1.848466 -0.455242,0.637469 -0.839907,1.295049 -1.149801,1.968872 -6.4e-5,1.39e-4 6.4e-5,3.78e-4 0,5.17e-4 -0.206549,0.449161 -0.380256,0.905486 -0.519865,1.367875 -4.7e-5,1.55e-4 4.7e-5,3.61e-4 0,5.17e-4 -0.209449,0.693823 -0.342418,1.401196 -0.395841,2.118217 -0.01781,0.239006 -0.02687,0.478853 -0.02687,0.719852 0,0.780621 0.09912,1.551071 0.283187,2.307353 A 23,16 0 0 1 34.999931,16.000057 23,16 0 0 1 57.587699,29.22819 c 0.171553,-0.730826 0.262,-1.474957 0.262,-2.228288 0,-0.964157 -0.143355,-1.913341 -0.422713,-2.838586 -0.06982,-0.231276 -0.147925,-0.460734 -0.234611,-0.688847 -0.08673,-0.228252 -0.181871,-0.454752 -0.285254,-0.679545 -0.206575,-0.449169 -0.446154,-0.891384 -0.717786,-1.324984 -0.271732,-0.433737 -0.575596,-0.85904 -0.910539,-1.274857 -0.334942,-0.415818 -0.701344,-0.821941 -1.097607,-1.217497 -0.19829,-0.197942 -0.403724,-0.393065 -0.617017,-0.585494 -0.213011,-0.192188 -0.433203,-0.381528 -0.660941,-0.567924 -1.04e-4,-8.5e-5 -4.13e-4,8.5e-5 -5.17e-4,0 -0.227744,-0.186392 -0.462632,-0.370046 -0.704867,-0.550354 -1.11e-4,-8.3e-5 -4.05e-4,8.3e-5 -5.16e-4,0 -0.242351,-0.180387 -0.491657,-0.357745 -0.748275,-0.531751 -0.256806,-0.174131 -0.519967,-0.344287 -0.790133,-0.510563 -0.627535,-0.386251 -1.294206,-0.747556 -1.989026,-1.087789 -0.410331,-0.200915 -0.83155,-0.393251 -1.263488,-0.576709 -0.409874,-0.174098 -0.825553,-0.343283 -1.253671,-0.500744 -0.6573,-0.241748 -1.33514,-0.463146 -2.031917,-0.663009 -0.63175,-0.181211 -1.280629,-0.342029 -1.941483,-0.486275 -0.432595,-0.09443 -0.869161,-0.183228 -1.313099,-0.260966 -0.70746,-0.12388 -1.429333,-0.224081 -2.162658,-0.303341 -0.429817,-0.04646 -0.86246,-0.08692 -1.300179,-0.117305 -0.789575,-0.05481 -1.591509,-0.0832 -2.403471,-0.0832 z M 57.587699,29.22819 c -0.07008,0.298527 -0.156354,0.594389 -0.255281,0.887801 0.09787,-0.293756 0.185197,-0.589238 0.255281,-0.887801 z M 12.43335,29.30725 c 0.225691,0.927308 0.585865,1.832223 1.074869,2.706295 0.0057,-9.53e-4 0.01025,-0.0011 0.01602,-0.0021 -0.488699,-0.874518 -0.865095,-1.776497 -1.090889,-2.704228 z m 44.879431,0.866614 c -0.308854,0.898095 -0.7486,1.771289 -1.30483,2.613277 0.0028,3.5e-4 0.009,-0.0023 0.01188,-0.0021 0.55521,-0.840577 0.988053,-1.713715 1.292945,-2.61121 z"
     transform="translate(-8.1289096,-8.1503906)" />
  <path
     id="path4"
     style="display:inline;fill:#a45e63;fill-opacity:1;stroke:none;stroke-width:2;stroke-linecap:round;stroke-linejoin:round;stroke-dasharray:none;stroke-opacity:1"
     d="M 34.999931,16.000057 A 23,16 0 0 0 12.43335,29.307255 c 0.725155,2.979476 2.842796,5.732041 6.117456,7.952486 4.105869,2.784062 9.953431,4.589901 16.449125,4.589901 6.495694,0 12.343256,-1.805839 16.449125,-4.589901 3.303717,-2.240148 5.432091,-5.021588 6.138643,-8.031551 A 23,16 0 0 0 34.999931,16.000057 Z M 12.128975,36.909892 v 1.96112 l -0.01189,-0.01188 a 2.0002,2.0002 0 0 1 0.03152,0.154512 v -0.01344 c 0,0.01267 0.0036,0.02403 0.0036,0.03669 0.02362,10.822051 10.087914,19.814874 22.847701,19.814811 12.772387,6.3e-5 22.847966,-9.009482 22.851835,-19.845817 -7e-4,-0.0242 -0.0013,-0.04815 -0.0021,-0.07235 a 2.0002,2.0002 0 0 1 0.02532,-0.06615 l -0.0041,0.0036 v -1.96112 c -1.186824,1.356541 -2.595399,2.587453 -4.177523,3.660241 -4.888077,3.314454 -11.464827,5.279265 -18.693432,5.279265 -7.228605,0 -13.805356,-1.964811 -18.693433,-5.279265 -1.582141,-1.0728 -2.990691,-2.303682 -4.177523,-3.660241 z"
     transform="translate(-8.1289096,-8.1503906)" />
  <path
     id="path8"
     style="display:inline;fill:#84464a;fill-opacity:1;stroke-linecap:round;stroke-linejoin:round"
     d="m 57.870886,36.909892 c -1.186824,1.356541 -2.595399,2.587453 -4.177523,3.660241 -0.476124,0.322846 -0.970203,0.631424 -1.477429,0.928109 -1.722557,8.117711 -5.951154,13.244276 -9.065596,16.049667 8.654825,-2.86527 14.698433,-10.152502 14.701428,-18.542021 -7e-4,-0.0242 -0.0013,-0.04815 -0.0021,-0.07235 a 2.0002,2.0002 0 0 1 0.02532,-0.06615 l -0.0041,0.0036 z"
     transform="translate(-8.1289096,-8.1503906)" />
  <path
     style="display:inline;fill:#4c3930;fill-opacity:1;stroke-linecap:round;stroke-linejoin:round"
     d="M 35,8.1503906 C 27.771342,8.1503664 21.194748,10.115212 16.306641,13.429688 11.418534,16.744163 8.1503458,21.549922 8.1503906,27 a 2.0002,2.0002 0 0 0 0.00391,0.103516 2.0002,2.0002 0 0 0 -0.025391,0.02539 v 11.742188 a 2.0002,2.0002 0 0 0 0.023437,0.02344 A 2.0002,2.0002 0 0 0 8.1484375,39 C 8.1485718,52.297535 20.324489,62.851635 35,62.851562 49.675511,62.851635 61.851428,52.297535 61.851562,39 a 2.0002,2.0002 0 0 0 0,-0.04883 c -4.78e-4,-0.01954 -0.0014,-0.03905 -0.002,-0.05859 a 2.0002,2.0002 0 0 0 0.02148,-0.02148 V 27.128906 A 2.0002,2.0002 0 0 0 61.845703,27.103516 2.0002,2.0002 0 0 0 61.849609,27 C 61.849654,21.549922 58.581466,16.744163 53.693359,13.429688 48.805252,10.115212 42.228658,8.1503664 35,8.1503906 Z m 0,4.0000004 c 6.495742,-2.2e-5 12.343323,1.805763 16.449219,4.589843 4.105896,2.784081 6.400422,6.403756 6.40039,10.259766 l 0.002,-0.06055 a 2.0002,2.0002 0 0 0 0.08398,0.253906 l -0.06445,-0.06445 v 11.742188 l 0.0039,-0.0039 a 2.0002,2.0002 0 0 0 -0.02539,0.06641 c 7.56e-4,0.0242 0.0013,0.04807 0.002,0.07227 C 57.84778,49.842209 47.772387,58.851625 35,58.851562 22.240213,58.851625 12.175967,49.85916 12.152344,39.037109 c -2.8e-5,-0.01266 -0.0039,-0.02444 -0.0039,-0.03711 v 0.01367 a 2.0002,2.0002 0 0 0 -0.03125,-0.154297 l 0.01172,0.01172 V 27.128906 l -0.01563,0.01563 a 2.0002,2.0002 0 0 0 0.03516,-0.193359 L 12.150391,27 c -3.2e-5,-3.856011 2.294497,-7.475685 6.40039,-10.259766 C 22.656675,13.956154 28.504258,12.150369 35,12.150391 Z"
     id="path1"
     transform="translate(-8.1289096,-8.1503906)" />
  <path
     style="display:inline;fill:#4c3930;fill-opacity:1"
     d="m 35,8.1503906 c -7.228605,0 -13.805282,1.9648434 -18.693359,5.2792974 C 11.418564,16.744141 8.1503906,21.549962 8.1503906,27 c 0,5.450038 3.2681734,10.255859 8.1562504,13.570312 4.888077,3.314454 11.464754,5.279297 18.693359,5.279297 7.228605,0 13.805282,-1.964843 18.693359,-5.279297 4.888077,-3.314453 8.15625,-8.120274 8.15625,-13.570312 0,-5.450038 -3.268173,-10.255859 -8.15625,-13.570312 C 48.805282,10.115234 42.228605,8.1503906 35,8.1503906 Z m 0,4.0000004 c 6.495694,0 12.34335,1.805781 16.449219,4.589843 4.105868,2.784062 6.40039,6.403784 6.40039,10.259766 0,3.855982 -2.294522,7.475704 -6.40039,10.259766 C 47.34335,40.043828 41.495694,41.849609 35,41.849609 c -6.495694,0 -12.34335,-1.805781 -16.449219,-4.589843 C 14.444913,34.475704 12.150391,30.855982 12.150391,27 c 0,-3.855982 2.294522,-7.475704 6.40039,-10.259766 C 22.65665,13.956172 28.504306,12.150391 35,12.150391 Z"
     id="ellipse3"
     transform="translate(-8.1289096,-8.1503906)" />
  <g
     id="g25"
     transform="translate(-0.63664398,-15.86147)">
    <path
       id="path21"
       style="fill:#a7e5f4;stroke-linecap:round;stroke-linejoin:round;fill-opacity:0.67198581"
       d="M 37.074213 29.958801 C 37.041538 29.960219 37.008438 29.96299 36.974994 29.967586 L 30.300983 30.884842 C 29.765881 30.958377 29.428536 31.406007 29.502066 31.941109 L 29.677765 33.2201 L 38.366124 33.2201 L 38.029194 30.769087 C 37.960254 30.26743 37.564343 29.937519 37.074213 29.958801 z " />
    <path
       id="path22"
       style="fill:#7fcded;stroke-linecap:round;stroke-linejoin:round;fill-opacity:0.68085104"
       d="m 36.982446,27.461357 c -0.1153,0.0039 -0.23126,0.01344 -0.347783,0.02945 l -6.673494,0.917257 c -1.864365,0.256207 -3.191944,2.008783 -2.935738,3.873148 l 0.129191,0.938961 h 2.52336 l -0.1757,-1.278992 c -0.07353,-0.535102 0.263816,-0.982731 0.798918,-1.056266 l 6.674011,-0.917256 c 0.535101,-0.07353 0.980663,0.2664 1.054199,0.801501 l 0.33693,2.451013 h 2.523361 l -0.38344,-2.791561 c -0.240193,-1.747842 -1.794319,-3.025466 -3.523815,-2.96726 z" />
  </g>
  <g
     id="g23"
     transform="translate(5.4486395,3.3175734)">
    <path
       id="path17"
       style="fill:#a7e5f4;stroke-linecap:round;stroke-linejoin:round;fill-opacity:0.6826241"
       d="M 23.872051 21.519153 C 23.506531 21.511068 23.174282 21.721658 23.014223 22.093795 L 21.559531 25.476535 L 30.927435 25.476535 C 31.12784 24.985987 30.921837 24.47495 30.431858 24.264206 L 24.243605 21.602353 C 24.119559 21.549 23.993892 21.521849 23.872051 21.519153 z " />
    <path
       id="path18"
       style="fill:#7fcded;stroke-linecap:round;stroke-linejoin:round;fill-opacity:0.72695035"
       d="m 23.90159,19.030347 c -1.338456,-0.0034 -2.626634,0.779267 -3.184301,2.075842 L 18.8373,25.476465 h 2.722314 l 1.454692,-3.382739 c 0.213412,-0.496183 0.7332,-0.704855 1.229382,-0.491443 l 6.188253,2.661853 c 0.489979,0.210744 0.695982,0.721781 0.495577,1.212329 h 2.549198 C 33.61968,24.025974 32.820951,22.5702 31.419994,21.967635 l -6.188252,-2.661853 c -0.432191,-0.185889 -0.884,-0.274307 -1.330152,-0.275435 z" />
  </g>
  <g
     id="g24"
     transform="translate(-28.084974,-2.7919238)">
    <path
       id="path19"
       style="fill:#a7e5f4;stroke-linecap:round;stroke-linejoin:round;fill-opacity:0.68085104"
       d="M 45.649277 21.359266 C 45.556075 21.360748 45.46024 21.375791 45.363506 21.405775 L 38.929273 23.400485 C 38.413358 23.560398 38.152861 24.055041 38.312773 24.570956 L 38.593377 25.476327 L 47.604713 25.476327 L 46.534494 22.022791 C 46.404565 21.60361 46.053151 21.352846 45.649277 21.359266 z " />
    <path
       id="path20"
       style="fill:#7fcded;stroke-linecap:round;stroke-linejoin:round;fill-opacity:0.66666669"
       d="m 45.639798,18.866532 c -0.337226,-0.0014 -0.67944,0.04746 -1.016475,0.151929 l -6.434233,1.994194 c -1.797518,0.557158 -2.821619,2.500926 -2.264461,4.298445 l 0.05116,0.165365 H 38.5932 l -0.280603,-0.905371 c -0.159912,-0.515915 0.100585,-1.010558 0.6165,-1.170471 l 6.434232,-1.994711 c 0.515916,-0.159913 1.011075,0.101102 1.170988,0.617017 l 1.070219,3.453536 h 2.617412 l -1.30018,-4.194059 c -0.45269,-1.460485 -1.820656,-2.409869 -3.28197,-2.415874 z" />
  </g>
</svg>
