<?xml version="1.0" encoding="UTF-8" standalone="no"?>
<!-- Svg Vector Icons : http://www.onlinewebfonts.com/icon -->

<svg
   version="1.1"
   x="0px"
   y="0px"
   viewBox="0 0 236 236"
   enable-background="new 0 0 256 256"
   xml:space="preserve"
   id="svg2"
   sodipodi:docname="Other.svg"
   width="236"
   height="236"
   inkscape:version="1.4 (e7c3feb100, 2024-10-09)"
   xmlns:inkscape="http://www.inkscape.org/namespaces/inkscape"
   xmlns:sodipodi="http://sodipodi.sourceforge.net/DTD/sodipodi-0.dtd"
   xmlns="http://www.w3.org/2000/svg"
   xmlns:svg="http://www.w3.org/2000/svg"><defs
   id="defs2" /><sodipodi:namedview
   id="namedview2"
   pagecolor="#ffffff"
   bordercolor="#000000"
   borderopacity="0.25"
   inkscape:showpageshadow="2"
   inkscape:pageopacity="0.0"
   inkscape:pagecheckerboard="0"
   inkscape:deskcolor="#d1d1d1"
   inkscape:zoom="2.2097087"
   inkscape:cx="56.342268"
   inkscape:cy="133.04921"
   inkscape:window-width="1920"
   inkscape:window-height="1011"
   inkscape:window-x="0"
   inkscape:window-y="0"
   inkscape:window-maximized="1"
   inkscape:current-layer="svg2" />
<metadata
   id="metadata1"> Svg Vector Icons : http://www.onlinewebfonts.com/icon </metadata>
<rect
   style="fill:#ffffff;fill-opacity:1;-inkscape-stroke:none"
   id="rect1"
   width="192.33304"
   height="76.93322"
   x="13.57645"
   y="74.670479" /><g
   id="g2"
   transform="translate(-10,-10)"
   style="fill:#e56c00;fill-opacity:1"><g
     id="g1"
     style="fill:#e56c00;fill-opacity:1"><path
       fill="#000000"
       d="M 128,10 C 62.8,10 10,62.8 10,128 10,193.2 62.8,246 128,246 193.2,246 246,193.2 246,128 245.9,62.8 193,10 128,10 Z M 69,146.1 c -10,0 -18.1,-8.1 -18.1,-18.1 0,-10 8.1,-18.1 18.1,-18.1 10,0 18.1,8.1 18.1,18.1 0,10 -8.1,18.1 -18.1,18.1 z m 59,0 c -10,0 -18.1,-8.1 -18.1,-18.1 0,-10 8.1,-18.1 18.1,-18.1 10,0 18.1,8.1 18.1,18.1 0,10 -8.1,18.1 -18.1,18.1 z m 59,0 c -10,0 -18.1,-8.1 -18.1,-18.1 0,-10 8.1,-18.1 18.1,-18.1 10,0 18.1,8.1 18.1,18.1 0,10 -8.1,18.1 -18.1,18.1 z"
       id="path1"
       style="fill:#e56c00;fill-opacity:1" /></g></g>
</svg>
