<?xml version="1.0" encoding="UTF-8" standalone="no"?>
<!-- Svg Vector Icons : http://www.onlinewebfonts.com/icon -->

<svg
   version="1.1"
   x="0px"
   y="0px"
   viewBox="0 0 236 236"
   enable-background="new 0 0 256 256"
   xml:space="preserve"
   id="svg2"
   width="236"
   height="236"
   xmlns="http://www.w3.org/2000/svg"
   xmlns:svg="http://www.w3.org/2000/svg"><defs
   id="defs2" />
<metadata
   id="metadata1"> Svg Vector Icons : http://www.onlinewebfonts.com/icon </metadata>
<g
   id="g2"
   transform="translate(-10,-10)"
   style="fill:#000000;fill-opacity:1"><g
     id="g1"
     style="fill:#000000;fill-opacity:1"><path
       fill="#000000"
       d="M 128,10 C 62.8,10 10,62.8 10,128 10,193.2 62.8,246 128,246 193.2,246 246,193.2 246,128 245.9,62.8 193,10 128,10 Z M 69,146.1 c -10,0 -18.1,-8.1 -18.1,-18.1 0,-10 8.1,-18.1 18.1,-18.1 10,0 18.1,8.1 18.1,18.1 0,10 -8.1,18.1 -18.1,18.1 z m 59,0 c -10,0 -18.1,-8.1 -18.1,-18.1 0,-10 8.1,-18.1 18.1,-18.1 10,0 18.1,8.1 18.1,18.1 0,10 -8.1,18.1 -18.1,18.1 z m 59,0 c -10,0 -18.1,-8.1 -18.1,-18.1 0,-10 8.1,-18.1 18.1,-18.1 10,0 18.1,8.1 18.1,18.1 0,10 -8.1,18.1 -18.1,18.1 z"
       id="path1"
       style="fill:#000000;fill-opacity:1" /></g></g>
</svg>
